<svg width="241" height="82" viewBox="0 0 241 82" fill="none" xmlns="http://www.w3.org/2000/svg">
<path d="M77.71 5.23001C77.71 4.55001 77.16 4 76.48 4C75.8 4 75.25 4.55001 75.25 5.23001C75.25 5.91001 75.8 6.46002 76.48 6.46002C77.16 6.46002 77.71 5.91001 77.71 5.23001Z" fill="#FFF7F7"/>
<path d="M97.9503 5.23001C97.9503 4.55001 97.4002 4 96.7202 4C96.0402 4 95.4902 4.55001 95.4902 5.23001C95.4902 5.91001 96.0402 6.46002 96.7202 6.46002C97.4002 6.46002 97.9503 5.91001 97.9503 5.23001Z" fill="#FFF7F7"/>
<path d="M118.2 5.23001C118.2 4.55001 117.65 4 116.97 4C116.29 4 115.74 4.55001 115.74 5.23001C115.74 5.91001 116.29 6.46002 116.97 6.46002C117.65 6.46002 118.2 5.91001 118.2 5.23001Z" fill="#FFF7F7"/>
<path d="M138.45 5.23001C138.45 4.55001 137.9 4 137.22 4C136.54 4 135.99 4.55001 135.99 5.23001C135.99 5.91001 136.54 6.46002 137.22 6.46002C137.9 6.46002 138.45 5.91001 138.45 5.23001Z" fill="white"/>
<path d="M77.71 23.9097C77.71 23.2297 77.16 22.6797 76.48 22.6797C75.8 22.6797 75.25 23.2297 75.25 23.9097C75.25 24.5897 75.8 25.1397 76.48 25.1397C77.16 25.1397 77.71 24.5897 77.71 23.9097Z" fill="white"/>
<path d="M97.9503 23.9097C97.9503 23.2297 97.4002 22.6797 96.7202 22.6797C96.0402 22.6797 95.4902 23.2297 95.4902 23.9097C95.4902 24.5897 96.0402 25.1397 96.7202 25.1397C97.4002 25.1397 97.9503 24.5897 97.9503 23.9097Z" fill="white"/>
<path d="M118.2 23.9097C118.2 23.2297 117.65 22.6797 116.97 22.6797C116.29 22.6797 115.74 23.2297 115.74 23.9097C115.74 24.5897 116.29 25.1397 116.97 25.1397C117.65 25.1397 118.2 24.5897 118.2 23.9097Z" fill="white"/>
<path d="M138.45 23.9097C138.45 23.2297 137.9 22.6797 137.22 22.6797C136.54 22.6797 135.99 23.2297 135.99 23.9097C135.99 24.5897 136.54 25.1397 137.22 25.1397C137.9 25.1397 138.45 24.5897 138.45 23.9097Z" fill="white"/>
<path d="M77.71 42.5903C77.71 41.9103 77.16 41.3604 76.48 41.3604C75.8 41.3604 75.25 41.9103 75.25 42.5903C75.25 43.2703 75.8 43.8203 76.48 43.8203C77.16 43.8203 77.71 43.2703 77.71 42.5903Z" fill="white"/>
<path d="M97.9503 42.5903C97.9503 41.9103 97.4002 41.3604 96.7202 41.3604C96.0402 41.3604 95.4902 41.9103 95.4902 42.5903C95.4902 43.2703 96.0402 43.8203 96.7202 43.8203C97.4002 43.8203 97.9503 43.2703 97.9503 42.5903Z" fill="white"/>
<path d="M118.2 42.5903C118.2 41.9103 117.65 41.3604 116.97 41.3604C116.29 41.3604 115.74 41.9103 115.74 42.5903C115.74 43.2703 116.29 43.8203 116.97 43.8203C117.65 43.8203 118.2 43.2703 118.2 42.5903Z" fill="white"/>
<path d="M138.45 42.5903C138.45 41.9103 137.9 41.3604 137.22 41.3604C136.54 41.3604 135.99 41.9103 135.99 42.5903C135.99 43.2703 136.54 43.8203 137.22 43.8203C137.9 43.8203 138.45 43.2703 138.45 42.5903Z" fill="white"/>
<path d="M77.71 61.2603C77.71 60.5803 77.16 60.0303 76.48 60.0303C75.8 60.0303 75.25 60.5803 75.25 61.2603C75.25 61.9403 75.8 62.4903 76.48 62.4903C77.16 62.4903 77.71 61.9403 77.71 61.2603Z" fill="white"/>
<path d="M97.9503 61.2603C97.9503 60.5803 97.4002 60.0303 96.7202 60.0303C96.0402 60.0303 95.4902 60.5803 95.4902 61.2603C95.4902 61.9403 96.0402 62.4903 96.7202 62.4903C97.4002 62.4903 97.9503 61.9403 97.9503 61.2603Z" fill="white"/>
<path d="M118.2 61.2603C118.2 60.5803 117.65 60.0303 116.97 60.0303C116.29 60.0303 115.74 60.5803 115.74 61.2603C115.74 61.9403 116.29 62.4903 116.97 62.4903C117.65 62.4903 118.2 61.9403 118.2 61.2603Z" fill="white"/>
<path d="M138.45 61.2603C138.45 60.5803 137.9 60.0303 137.22 60.0303C136.54 60.0303 135.99 60.5803 135.99 61.2603C135.99 61.9403 136.54 62.4903 137.22 62.4903C137.9 62.4903 138.45 61.9403 138.45 61.2603Z" fill="white"/>
<path d="M57.46 79.9399C57.46 79.2599 56.91 78.71 56.23 78.71C55.55 78.71 55 79.2599 55 79.9399C55 80.6199 55.55 81.17 56.23 81.17C56.91 81.17 57.46 80.6199 57.46 79.9399Z" fill="white"/>
<path d="M77.71 79.9399C77.71 79.2599 77.16 78.71 76.48 78.71C75.8 78.71 75.25 79.2599 75.25 79.9399C75.25 80.6199 75.8 81.17 76.48 81.17C77.16 81.17 77.71 80.6199 77.71 79.9399Z" fill="white"/>
<path d="M97.9503 79.9399C97.9503 79.2599 97.4002 78.71 96.7202 78.71C96.0402 78.71 95.4902 79.2599 95.4902 79.9399C95.4902 80.6199 96.0402 81.17 96.7202 81.17C97.4002 81.17 97.9503 80.6199 97.9503 79.9399Z" fill="white"/>
<path d="M118.2 79.9399C118.2 79.2599 117.65 78.71 116.97 78.71C116.29 78.71 115.74 79.2599 115.74 79.9399C115.74 80.6199 116.29 81.17 116.97 81.17C117.65 81.17 118.2 80.6199 118.2 79.9399Z" fill="white"/>
<path d="M138.45 79.9399C138.45 79.2599 137.9 78.71 137.22 78.71C136.54 78.71 135.99 79.2599 135.99 79.9399C135.99 80.6199 136.54 81.17 137.22 81.17C137.9 81.17 138.45 80.6199 138.45 79.9399Z" fill="white"/>
<path d="M159.46 5.23001C159.46 4.55001 158.91 4 158.23 4C157.55 4 157 4.55001 157 5.23001C157 5.91001 157.55 6.46002 158.23 6.46002C158.91 6.46002 159.46 5.91001 159.46 5.23001Z" fill="#FFF7F7"/>
<path d="M179.71 5.23001C179.71 4.55001 179.16 4 178.48 4C177.8 4 177.25 4.55001 177.25 5.23001C177.25 5.91001 177.8 6.46002 178.48 6.46002C179.16 6.46002 179.71 5.91001 179.71 5.23001Z" fill="#FFF7F7"/>
<path d="M199.95 5.23001C199.95 4.55001 199.4 4 198.72 4C198.04 4 197.49 4.55001 197.49 5.23001C197.49 5.91001 198.04 6.46002 198.72 6.46002C199.4 6.46002 199.95 5.91001 199.95 5.23001Z" fill="#FFF7F7"/>
<path d="M220.2 5.23001C220.2 4.55001 219.65 4 218.97 4C218.29 4 217.74 4.55001 217.74 5.23001C217.74 5.91001 218.29 6.46002 218.97 6.46002C219.65 6.46002 220.2 5.91001 220.2 5.23001Z" fill="#FFF7F7"/>
<path d="M240.45 5.23001C240.45 4.55001 239.9 4 239.22 4C238.54 4 237.99 4.55001 237.99 5.23001C237.99 5.91001 238.54 6.46002 239.22 6.46002C239.9 6.46002 240.45 5.91001 240.45 5.23001Z" fill="white"/>
<path d="M159.46 23.9097C159.46 23.2297 158.91 22.6797 158.23 22.6797C157.55 22.6797 157 23.2297 157 23.9097C157 24.5897 157.55 25.1397 158.23 25.1397C158.91 25.1397 159.46 24.5897 159.46 23.9097Z" fill="white"/>
<path d="M179.71 23.9097C179.71 23.2297 179.16 22.6797 178.48 22.6797C177.8 22.6797 177.25 23.2297 177.25 23.9097C177.25 24.5897 177.8 25.1397 178.48 25.1397C179.16 25.1397 179.71 24.5897 179.71 23.9097Z" fill="white"/>
<path d="M199.95 23.9097C199.95 23.2297 199.4 22.6797 198.72 22.6797C198.04 22.6797 197.49 23.2297 197.49 23.9097C197.49 24.5897 198.04 25.1397 198.72 25.1397C199.4 25.1397 199.95 24.5897 199.95 23.9097Z" fill="white"/>
<path d="M220.2 23.9097C220.2 23.2297 219.65 22.6797 218.97 22.6797C218.29 22.6797 217.74 23.2297 217.74 23.9097C217.74 24.5897 218.29 25.1397 218.97 25.1397C219.65 25.1397 220.2 24.5897 220.2 23.9097Z" fill="white"/>
<path d="M240.45 23.9097C240.45 23.2297 239.9 22.6797 239.22 22.6797C238.54 22.6797 237.99 23.2297 237.99 23.9097C237.99 24.5897 238.54 25.1397 239.22 25.1397C239.9 25.1397 240.45 24.5897 240.45 23.9097Z" fill="white"/>
<path d="M159.46 42.5903C159.46 41.9103 158.91 41.3604 158.23 41.3604C157.55 41.3604 157 41.9103 157 42.5903C157 43.2703 157.55 43.8203 158.23 43.8203C158.91 43.8203 159.46 43.2703 159.46 42.5903Z" fill="white"/>
<path d="M179.71 42.5903C179.71 41.9103 179.16 41.3604 178.48 41.3604C177.8 41.3604 177.25 41.9103 177.25 42.5903C177.25 43.2703 177.8 43.8203 178.48 43.8203C179.16 43.8203 179.71 43.2703 179.71 42.5903Z" fill="white"/>
<path d="M199.95 42.5903C199.95 41.9103 199.4 41.3604 198.72 41.3604C198.04 41.3604 197.49 41.9103 197.49 42.5903C197.49 43.2703 198.04 43.8203 198.72 43.8203C199.4 43.8203 199.95 43.2703 199.95 42.5903Z" fill="white"/>
<path d="M220.2 42.5903C220.2 41.9103 219.65 41.3604 218.97 41.3604C218.29 41.3604 217.74 41.9103 217.74 42.5903C217.74 43.2703 218.29 43.8203 218.97 43.8203C219.65 43.8203 220.2 43.2703 220.2 42.5903Z" fill="white"/>
<path d="M240.45 42.5903C240.45 41.9103 239.9 41.3604 239.22 41.3604C238.54 41.3604 237.99 41.9103 237.99 42.5903C237.99 43.2703 238.54 43.8203 239.22 43.8203C239.9 43.8203 240.45 43.2703 240.45 42.5903Z" fill="white"/>
<path d="M159.46 61.2603C159.46 60.5803 158.91 60.0303 158.23 60.0303C157.55 60.0303 157 60.5803 157 61.2603C157 61.9403 157.55 62.4903 158.23 62.4903C158.91 62.4903 159.46 61.9403 159.46 61.2603Z" fill="white"/>
<path d="M179.71 61.2603C179.71 60.5803 179.16 60.0303 178.48 60.0303C177.8 60.0303 177.25 60.5803 177.25 61.2603C177.25 61.9403 177.8 62.4903 178.48 62.4903C179.16 62.4903 179.71 61.9403 179.71 61.2603Z" fill="white"/>
<path d="M199.95 61.2603C199.95 60.5803 199.4 60.0303 198.72 60.0303C198.04 60.0303 197.49 60.5803 197.49 61.2603C197.49 61.9403 198.04 62.4903 198.72 62.4903C199.4 62.4903 199.95 61.9403 199.95 61.2603Z" fill="white"/>
<path d="M220.2 61.2603C220.2 60.5803 219.65 60.0303 218.97 60.0303C218.29 60.0303 217.74 60.5803 217.74 61.2603C217.74 61.9403 218.29 62.4903 218.97 62.4903C219.65 62.4903 220.2 61.9403 220.2 61.2603Z" fill="white"/>
<path d="M240.45 61.2603C240.45 60.5803 239.9 60.0303 239.22 60.0303C238.54 60.0303 237.99 60.5803 237.99 61.2603C237.99 61.9403 238.54 62.4903 239.22 62.4903C239.9 62.4903 240.45 61.9403 240.45 61.2603Z" fill="white"/>
<path d="M159.46 79.9399C159.46 79.2599 158.91 78.71 158.23 78.71C157.55 78.71 157 79.2599 157 79.9399C157 80.6199 157.55 81.17 158.23 81.17C158.91 81.17 159.46 80.6199 159.46 79.9399Z" fill="white"/>
<path d="M179.71 79.9399C179.71 79.2599 179.16 78.71 178.48 78.71C177.8 78.71 177.25 79.2599 177.25 79.9399C177.25 80.6199 177.8 81.17 178.48 81.17C179.16 81.17 179.71 80.6199 179.71 79.9399Z" fill="white"/>
<path d="M199.95 79.9399C199.95 79.2599 199.4 78.71 198.72 78.71C198.04 78.71 197.49 79.2599 197.49 79.9399C197.49 80.6199 198.04 81.17 198.72 81.17C199.4 81.17 199.95 80.6199 199.95 79.9399Z" fill="white"/>
<path d="M220.2 79.9399C220.2 79.2599 219.65 78.71 218.97 78.71C218.29 78.71 217.74 79.2599 217.74 79.9399C217.74 80.6199 218.29 81.17 218.97 81.17C219.65 81.17 220.2 80.6199 220.2 79.9399Z" fill="white"/>
<path d="M240.45 79.9399C240.45 79.2599 239.9 78.71 239.22 78.71C238.54 78.71 237.99 79.2599 237.99 79.9399C237.99 80.6199 238.54 81.17 239.22 81.17C239.9 81.17 240.45 80.6199 240.45 79.9399Z" fill="white"/>
<circle cx="20" cy="20" r="8" fill="white" fill-opacity="0.3"/>
<circle cx="20" cy="20" r="20" fill="white" fill-opacity="0.3"/>
</svg>
