<svg width="1920" height="891" viewBox="0 0 1920 891" fill="none" xmlns="http://www.w3.org/2000/svg">
<rect y="61" width="1920" height="830" fill="#101928"/>
<path d="M-61.1056 31.9204C-53.707 29.707 -45.8313 28.6096 -38.1167 28.2718C35.1958 25.0578 -35.1378 110.937 -4.12891 138.588C22.6492 162.465 84.0177 133.924 121.226 169.51C157.276 203.987 120.385 246.469 135.308 282.779C146.311 309.551 169.751 306.408 191.953 316.467C205.99 322.826 214.191 332.182 226.103 341.268" stroke="white" stroke-width="2.76298" stroke-miterlimit="1.5" stroke-linecap="round" stroke-linejoin="round"/>
<path d="M202.591 343.278C209.787 341.01 217.937 341.766 225.228 342.791C229.543 343.397 234.008 343.958 238.02 345.742C230.447 335.696 225.223 325.777 223.685 313.138" stroke="white" stroke-width="2.76298" stroke-miterlimit="1.5" stroke-linecap="round" stroke-linejoin="round"/>
<rect opacity="0.5" x="-62" y="765.671" width="239.666" height="104.893" transform="rotate(-27.2674 -62 765.671)" fill="url(#paint0_linear_111_137)"/>
<path d="M1822.17 763.427C1813.19 739.187 1818.99 744.987 1794.75 736.007C1818.99 727.027 1813.19 732.827 1822.17 708.587C1831.15 732.827 1825.35 727.027 1849.59 736.007C1825.35 744.987 1831.15 739.187 1822.17 763.427Z" fill="white"/>
<path d="M1874.25 778.587C1869.83 766.653 1872.69 769.508 1860.75 765.087C1872.69 760.666 1869.83 763.522 1874.25 751.587C1878.67 763.522 1875.82 760.666 1887.75 765.087C1875.82 769.508 1878.67 766.653 1874.25 778.587Z" fill="white"/>
<rect x="1802.1" y="132.587" width="25.5517" height="26.8966" fill="#75ADAD"/>
<rect x="1800.75" y="133.932" width="25.5517" height="24.2069" fill="#0B6D6D"/>
<rect x="1827.65" y="158.139" width="25.5517" height="26.8966" fill="#75ADAD"/>
<rect x="1826.3" y="159.484" width="25.5517" height="24.2069" fill="#0B6D6D"/>
<rect x="1802.1" y="183.691" width="25.5517" height="26.8966" fill="#75ADAD"/>
<rect x="1800.75" y="185.035" width="25.5517" height="24.2069" fill="#0B6D6D"/>
<defs>
<linearGradient id="paint0_linear_111_137" x1="-62" y1="818.118" x2="134.025" y2="824.546" gradientUnits="userSpaceOnUse">
<stop stop-color="#10B981"/>
<stop offset="1" stop-color="#07533A" stop-opacity="0"/>
</linearGradient>
</defs>
</svg>
