<svg width="166" height="153" viewBox="0 0 166 153" fill="none" xmlns="http://www.w3.org/2000/svg">
<g id="Group">
<path id="Vector" d="M4.87721 2.43866C4.87721 1.09047 3.7868 0 2.4386 0C1.09041 0 0 1.09047 0 2.43866C0 3.78686 1.09041 4.87733 2.4386 4.87733C3.7868 4.87733 4.87721 3.78686 4.87721 2.43866Z" fill="#10B981"/>
<path id="Vector_2" d="M45.0256 2.43866C45.0256 1.09047 43.9352 0 42.587 0C41.2388 0 40.1484 1.09047 40.1484 2.43866C40.1484 3.78686 41.2388 4.87733 42.587 4.87733C43.9352 4.87733 45.0256 3.78686 45.0256 2.43866Z" fill="#10B981"/>
<path id="Vector_3" d="M85.1542 2.43866C85.1542 1.09047 84.0637 0 82.7155 0C81.3673 0 80.2769 1.09047 80.2769 2.43866C80.2769 3.78686 81.3673 4.87733 82.7155 4.87733C84.0637 4.87733 85.1542 3.78686 85.1542 2.43866Z" fill="#10B981"/>
<path id="Vector_4" d="M125.303 2.43866C125.303 1.09047 124.212 0 122.864 0C121.516 0 120.425 1.09047 120.425 2.43866C120.425 3.78686 121.516 4.87733 122.864 4.87733C124.212 4.87733 125.303 3.78686 125.303 2.43866Z" fill="#10B981"/>
<path id="Vector_5" d="M165.451 2.43866C165.451 1.09047 164.361 0 163.012 0C161.664 0 160.574 1.09047 160.574 2.43866C160.574 3.78686 161.664 4.87733 163.012 4.87733C164.361 4.87733 165.451 3.78686 165.451 2.43866Z" fill="#10B981"/>
<path id="Vector_6" d="M4.87721 39.4737C4.87721 38.1255 3.7868 37.035 2.4386 37.035C1.09041 37.035 0 38.1255 0 39.4737C0 40.8219 1.09041 41.9124 2.4386 41.9124C3.7868 41.9124 4.87721 40.8219 4.87721 39.4737Z" fill="#10B981"/>
<path id="Vector_7" d="M45.0256 39.4737C45.0256 38.1255 43.9352 37.035 42.587 37.035C41.2388 37.035 40.1484 38.1255 40.1484 39.4737C40.1484 40.8219 41.2388 41.9124 42.587 41.9124C43.9352 41.9124 45.0256 40.8219 45.0256 39.4737Z" fill="#10B981"/>
<path id="Vector_8" d="M85.1542 39.4737C85.1542 38.1255 84.0637 37.035 82.7155 37.035C81.3673 37.035 80.2769 38.1255 80.2769 39.4737C80.2769 40.8219 81.3673 41.9124 82.7155 41.9124C84.0637 41.9124 85.1542 40.8219 85.1542 39.4737Z" fill="#10B981"/>
<path id="Vector_9" d="M125.303 39.4737C125.303 38.1255 124.212 37.035 122.864 37.035C121.516 37.035 120.425 38.1255 120.425 39.4737C120.425 40.8219 121.516 41.9124 122.864 41.9124C124.212 41.9124 125.303 40.8219 125.303 39.4737Z" fill="#10B981"/>
<path id="Vector_10" d="M165.451 39.4737C165.451 38.1255 164.361 37.035 163.012 37.035C161.664 37.035 160.574 38.1255 160.574 39.4737C160.574 40.8219 161.664 41.9124 163.012 41.9124C164.361 41.9124 165.451 40.8219 165.451 39.4737Z" fill="#10B981"/>
<path id="Vector_11" d="M4.87721 76.5109C4.87721 75.1627 3.7868 74.0723 2.4386 74.0723C1.09041 74.0723 0 75.1627 0 76.5109C0 77.8591 1.09041 78.9495 2.4386 78.9495C3.7868 78.9495 4.87721 77.8591 4.87721 76.5109Z" fill="#10B981"/>
<path id="Vector_12" d="M45.0256 76.5109C45.0256 75.1627 43.9352 74.0723 42.587 74.0723C41.2388 74.0723 40.1484 75.1627 40.1484 76.5109C40.1484 77.8591 41.2388 78.9495 42.587 78.9495C43.9352 78.9495 45.0256 77.8591 45.0256 76.5109Z" fill="#10B981"/>
<path id="Vector_13" d="M85.1542 76.5109C85.1542 75.1627 84.0637 74.0723 82.7155 74.0723C81.3673 74.0723 80.2769 75.1627 80.2769 76.5109C80.2769 77.8591 81.3673 78.9495 82.7155 78.9495C84.0637 78.9495 85.1542 77.8591 85.1542 76.5109Z" fill="#10B981"/>
<path id="Vector_14" d="M125.303 76.5109C125.303 75.1627 124.212 74.0723 122.864 74.0723C121.516 74.0723 120.425 75.1627 120.425 76.5109C120.425 77.8591 121.516 78.9495 122.864 78.9495C124.212 78.9495 125.303 77.8591 125.303 76.5109Z" fill="#10B981"/>
<path id="Vector_15" d="M165.451 76.5109C165.451 75.1627 164.361 74.0723 163.012 74.0723C161.664 74.0723 160.574 75.1627 160.574 76.5109C160.574 77.8591 161.664 78.9495 163.012 78.9495C164.361 78.9495 165.451 77.8591 165.451 76.5109Z" fill="#10B981"/>
<path id="Vector_16" d="M4.87721 113.527C4.87721 112.178 3.7868 111.088 2.4386 111.088C1.09041 111.088 0 112.178 0 113.527C0 114.875 1.09041 115.965 2.4386 115.965C3.7868 115.965 4.87721 114.875 4.87721 113.527Z" fill="#10B981"/>
<path id="Vector_17" d="M45.0256 113.527C45.0256 112.178 43.9352 111.088 42.587 111.088C41.2388 111.088 40.1484 112.178 40.1484 113.527C40.1484 114.875 41.2388 115.965 42.587 115.965C43.9352 115.965 45.0256 114.875 45.0256 113.527Z" fill="#10B981"/>
<path id="Vector_18" d="M85.1542 113.527C85.1542 112.178 84.0637 111.088 82.7155 111.088C81.3673 111.088 80.2769 112.178 80.2769 113.527C80.2769 114.875 81.3673 115.965 82.7155 115.965C84.0637 115.965 85.1542 114.875 85.1542 113.527Z" fill="#10B981"/>
<path id="Vector_19" d="M125.303 113.527C125.303 112.178 124.212 111.088 122.864 111.088C121.516 111.088 120.425 112.178 120.425 113.527C120.425 114.875 121.516 115.965 122.864 115.965C124.212 115.965 125.303 114.875 125.303 113.527Z" fill="#10B981"/>
<path id="Vector_20" d="M165.451 113.527C165.451 112.178 164.361 111.088 163.012 111.088C161.664 111.088 160.574 112.178 160.574 113.527C160.574 114.875 161.664 115.965 163.012 115.965C164.361 115.965 165.451 114.875 165.451 113.527Z" fill="#10B981"/>
<path id="Vector_21" d="M4.87721 150.562C4.87721 149.213 3.7868 148.123 2.4386 148.123C1.09041 148.123 0 149.213 0 150.562C0 151.91 1.09041 153 2.4386 153C3.7868 153 4.87721 151.91 4.87721 150.562Z" fill="#10B981"/>
<path id="Vector_22" d="M45.0256 150.562C45.0256 149.213 43.9352 148.123 42.587 148.123C41.2388 148.123 40.1484 149.213 40.1484 150.562C40.1484 151.91 41.2388 153 42.587 153C43.9352 153 45.0256 151.91 45.0256 150.562Z" fill="#10B981"/>
<path id="Vector_23" d="M85.1542 150.562C85.1542 149.213 84.0637 148.123 82.7155 148.123C81.3673 148.123 80.2769 149.213 80.2769 150.562C80.2769 151.91 81.3673 153 82.7155 153C84.0637 153 85.1542 151.91 85.1542 150.562Z" fill="#10B981"/>
<path id="Vector_24" d="M125.303 150.562C125.303 149.213 124.212 148.123 122.864 148.123C121.516 148.123 120.425 149.213 120.425 150.562C120.425 151.91 121.516 153 122.864 153C124.212 153 125.303 151.91 125.303 150.562Z" fill="#10B981"/>
<path id="Vector_25" d="M165.451 150.562C165.451 149.213 164.361 148.123 163.012 148.123C161.664 148.123 160.574 149.213 160.574 150.562C160.574 151.91 161.664 153 163.012 153C164.361 153 165.451 151.91 165.451 150.562Z" fill="#10B981"/>
</g>
</svg>
