<svg width="166" height="153" viewBox="0 0 166 153" fill="none" xmlns="http://www.w3.org/2000/svg">
<g id="Group">
<path id="Vector" d="M160.573 2.43866C160.573 1.09047 161.664 0 163.012 0C164.36 0 165.451 1.09047 165.451 2.43866C165.451 3.78686 164.36 4.87733 163.012 4.87733C161.664 4.87733 160.573 3.78686 160.573 2.43866Z" fill="white"/>
<path id="Vector_2" d="M120.425 2.43866C120.425 1.09047 121.515 0 122.864 0C124.212 0 125.302 1.09047 125.302 2.43866C125.302 3.78686 124.212 4.87733 122.864 4.87733C121.515 4.87733 120.425 3.78686 120.425 2.43866Z" fill="white"/>
<path id="Vector_3" d="M80.296 2.43866C80.296 1.09047 81.3865 0 82.7347 0C84.0829 0 85.1733 1.09047 85.1733 2.43866C85.1733 3.78686 84.0829 4.87733 82.7347 4.87733C81.3865 4.87733 80.296 3.78686 80.296 2.43866Z" fill="white"/>
<path id="Vector_4" d="M40.1486 2.43866C40.1486 1.09047 41.2391 0 42.5873 0C43.9355 0 45.0259 1.09047 45.0259 2.43866C45.0259 3.78686 43.9355 4.87733 42.5873 4.87733C41.2391 4.87733 40.1486 3.78686 40.1486 2.43866Z" fill="white"/>
<path id="Vector_5" d="M0.000114918 2.43866C0.000114918 1.09047 1.09065 0 2.43884 0C3.78703 0 4.87744 1.09047 4.87744 2.43866C4.87744 3.78686 3.78703 4.87733 2.43884 4.87733C1.09065 4.87733 0.000114918 3.78686 0.000114918 2.43866Z" fill="white"/>
<path id="Vector_6" d="M160.573 39.4738C160.573 38.1256 161.664 37.0352 163.012 37.0352C164.36 37.0352 165.451 38.1256 165.451 39.4738C165.451 40.822 164.36 41.9125 163.012 41.9125C161.664 41.9125 160.573 40.822 160.573 39.4738Z" fill="white"/>
<path id="Vector_7" d="M120.425 39.4738C120.425 38.1256 121.515 37.0352 122.864 37.0352C124.212 37.0352 125.302 38.1256 125.302 39.4738C125.302 40.822 124.212 41.9125 122.864 41.9125C121.515 41.9125 120.425 40.822 120.425 39.4738Z" fill="white"/>
<path id="Vector_8" d="M80.296 39.4738C80.296 38.1256 81.3865 37.0352 82.7347 37.0352C84.0829 37.0352 85.1733 38.1256 85.1733 39.4738C85.1733 40.822 84.0829 41.9125 82.7347 41.9125C81.3865 41.9125 80.296 40.822 80.296 39.4738Z" fill="white"/>
<path id="Vector_9" d="M40.1486 39.4738C40.1486 38.1256 41.2391 37.0352 42.5873 37.0352C43.9355 37.0352 45.0259 38.1256 45.0259 39.4738C45.0259 40.822 43.9355 41.9125 42.5873 41.9125C41.2391 41.9125 40.1486 40.822 40.1486 39.4738Z" fill="white"/>
<path id="Vector_10" d="M0.000114918 39.4738C0.000114918 38.1256 1.09065 37.0352 2.43884 37.0352C3.78703 37.0352 4.87744 38.1256 4.87744 39.4738C4.87744 40.822 3.78703 41.9125 2.43884 41.9125C1.09065 41.9125 0.000114918 40.822 0.000114918 39.4738Z" fill="white"/>
<path id="Vector_11" d="M160.573 76.5109C160.573 75.1627 161.664 74.0723 163.012 74.0723C164.36 74.0723 165.451 75.1627 165.451 76.5109C165.451 77.8591 164.36 78.9495 163.012 78.9495C161.664 78.9495 160.573 77.8591 160.573 76.5109Z" fill="white"/>
<path id="Vector_12" d="M120.425 76.5109C120.425 75.1627 121.515 74.0723 122.864 74.0723C124.212 74.0723 125.302 75.1627 125.302 76.5109C125.302 77.8591 124.212 78.9495 122.864 78.9495C121.515 78.9495 120.425 77.8591 120.425 76.5109Z" fill="white"/>
<path id="Vector_13" d="M80.296 76.5109C80.296 75.1627 81.3865 74.0723 82.7347 74.0723C84.0829 74.0723 85.1733 75.1627 85.1733 76.5109C85.1733 77.8591 84.0829 78.9495 82.7347 78.9495C81.3865 78.9495 80.296 77.8591 80.296 76.5109Z" fill="white"/>
<path id="Vector_14" d="M40.1486 76.5109C40.1486 75.1627 41.2391 74.0723 42.5873 74.0723C43.9355 74.0723 45.0259 75.1627 45.0259 76.5109C45.0259 77.8591 43.9355 78.9495 42.5873 78.9495C41.2391 78.9495 40.1486 77.8591 40.1486 76.5109Z" fill="white"/>
<path id="Vector_15" d="M0.000114918 76.5109C0.000114918 75.1627 1.09065 74.0723 2.43884 74.0723C3.78703 74.0723 4.87744 75.1627 4.87744 76.5109C4.87744 77.8591 3.78703 78.9495 2.43884 78.9495C1.09065 78.9495 0.000114918 77.8591 0.000114918 76.5109Z" fill="white"/>
<path id="Vector_16" d="M160.573 113.527C160.573 112.178 161.664 111.088 163.012 111.088C164.36 111.088 165.451 112.178 165.451 113.527C165.451 114.875 164.36 115.965 163.012 115.965C161.664 115.965 160.573 114.875 160.573 113.527Z" fill="white"/>
<path id="Vector_17" d="M120.425 113.527C120.425 112.178 121.515 111.088 122.864 111.088C124.212 111.088 125.302 112.178 125.302 113.527C125.302 114.875 124.212 115.965 122.864 115.965C121.515 115.965 120.425 114.875 120.425 113.527Z" fill="white"/>
<path id="Vector_18" d="M80.296 113.527C80.296 112.178 81.3865 111.088 82.7347 111.088C84.0829 111.088 85.1733 112.178 85.1733 113.527C85.1733 114.875 84.0829 115.965 82.7347 115.965C81.3865 115.965 80.296 114.875 80.296 113.527Z" fill="white"/>
<path id="Vector_19" d="M40.1486 113.527C40.1486 112.178 41.2391 111.088 42.5873 111.088C43.9355 111.088 45.0259 112.178 45.0259 113.527C45.0259 114.875 43.9355 115.965 42.5873 115.965C41.2391 115.965 40.1486 114.875 40.1486 113.527Z" fill="white"/>
<path id="Vector_20" d="M0.000114918 113.527C0.000114918 112.178 1.09065 111.088 2.43884 111.088C3.78703 111.088 4.87744 112.178 4.87744 113.527C4.87744 114.875 3.78703 115.965 2.43884 115.965C1.09065 115.965 0.000114918 114.875 0.000114918 113.527Z" fill="white"/>
<path id="Vector_21" d="M160.573 150.562C160.573 149.213 161.664 148.123 163.012 148.123C164.36 148.123 165.451 149.213 165.451 150.562C165.451 151.91 164.36 153 163.012 153C161.664 153 160.573 151.91 160.573 150.562Z" fill="white"/>
<path id="Vector_22" d="M120.425 150.562C120.425 149.213 121.515 148.123 122.864 148.123C124.212 148.123 125.302 149.213 125.302 150.562C125.302 151.91 124.212 153 122.864 153C121.515 153 120.425 151.91 120.425 150.562Z" fill="white"/>
<path id="Vector_23" d="M80.296 150.562C80.296 149.213 81.3865 148.123 82.7347 148.123C84.0829 148.123 85.1733 149.213 85.1733 150.562C85.1733 151.91 84.0829 153 82.7347 153C81.3865 153 80.296 151.91 80.296 150.562Z" fill="white"/>
<path id="Vector_24" d="M40.1486 150.562C40.1486 149.213 41.2391 148.123 42.5873 148.123C43.9355 148.123 45.0259 149.213 45.0259 150.562C45.0259 151.91 43.9355 153 42.5873 153C41.2391 153 40.1486 151.91 40.1486 150.562Z" fill="white"/>
<path id="Vector_25" d="M0.000114918 150.562C0.000114918 149.213 1.09065 148.123 2.43884 148.123C3.78703 148.123 4.87744 149.213 4.87744 150.562C4.87744 151.91 3.78703 153 2.43884 153C1.09065 153 0.000114918 151.91 0.000114918 150.562Z" fill="white"/>
</g>
</svg>
