<svg width="198" height="198" viewBox="0 0 198 198" fill="none" xmlns="http://www.w3.org/2000/svg">
<g id="decaration">
<circle id="Ellipse 30" cx="99" cy="99" r="98" stroke="#10B981" stroke-width="2" stroke-dasharray="4 4"/>
<g id="Group 223">
<g id="Group 219">
<path id="Vector" d="M53.9199 116.91C53.9199 116.23 53.3699 115.68 52.6899 115.68C52.0099 115.68 51.46 116.23 51.46 116.91C51.46 117.59 52.0099 118.14 52.6899 118.14C53.3699 118.14 53.9199 117.59 53.9199 116.91Z" fill="#002FF5"/>
<path id="Vector_2" d="M35.46 116.91C35.46 116.23 34.91 115.68 34.23 115.68C33.55 115.68 33 116.23 33 116.91C33 117.59 33.55 118.14 34.23 118.14C34.91 118.14 35.46 117.59 35.46 116.91Z" fill="#002FF5"/>
<path id="Vector_3" d="M72.3799 116.91C72.3799 116.23 71.8299 115.68 71.1499 115.68C70.4699 115.68 69.9199 116.23 69.9199 116.91C69.9199 117.59 70.4699 118.14 71.1499 118.14C71.8299 118.14 72.3799 117.59 72.3799 116.91Z" fill="#002FF5"/>
<path id="Vector_4" d="M90.8399 116.91C90.8399 116.23 90.2899 115.68 89.6099 115.68C88.9299 115.68 88.3799 116.23 88.3799 116.91C88.3799 117.59 88.9299 118.14 89.6099 118.14C90.2899 118.14 90.8399 117.59 90.8399 116.91Z" fill="#002FF5"/>
<path id="Vector_5" d="M109.3 116.91C109.3 116.23 108.75 115.68 108.07 115.68C107.39 115.68 106.84 116.23 106.84 116.91C106.84 117.59 107.39 118.14 108.07 118.14C108.75 118.14 109.3 117.59 109.3 116.91Z" fill="#002FF5"/>
<path id="Vector_6" d="M127.76 116.91C127.76 116.23 127.21 115.68 126.53 115.68C125.85 115.68 125.3 116.23 125.3 116.91C125.3 117.59 125.85 118.14 126.53 118.14C127.21 118.14 127.76 117.59 127.76 116.91Z" fill="#002FF5"/>
<path id="Vector_7" d="M146.22 116.91C146.22 116.23 145.67 115.68 144.99 115.68C144.31 115.68 143.76 116.23 143.76 116.91C143.76 117.59 144.31 118.14 144.99 118.14C145.67 118.14 146.22 117.59 146.22 116.91Z" fill="#002FF5"/>
<path id="Vector_8" d="M164.68 116.91C164.68 116.23 164.13 115.68 163.45 115.68C162.77 115.68 162.22 116.23 162.22 116.91C162.22 117.59 162.77 118.14 163.45 118.14C164.13 118.14 164.68 117.59 164.68 116.91Z" fill="#002FF5"/>
</g>
<g id="Group 220">
<path id="Vector_9" d="M62.9199 135.589C62.9199 134.909 62.3699 134.359 61.6899 134.359C61.0099 134.359 60.46 134.909 60.46 135.589C60.46 136.269 61.0099 136.819 61.6899 136.819C62.3699 136.819 62.9199 136.269 62.9199 135.589Z" fill="#002FF5"/>
<path id="Vector_10" d="M44.46 135.589C44.46 134.909 43.91 134.359 43.23 134.359C42.55 134.359 42 134.909 42 135.589C42 136.269 42.55 136.819 43.23 136.819C43.91 136.819 44.46 136.269 44.46 135.589Z" fill="#002FF5"/>
<path id="Vector_11" d="M81.3799 135.589C81.3799 134.909 80.8299 134.359 80.1499 134.359C79.4699 134.359 78.9199 134.909 78.9199 135.589C78.9199 136.269 79.4699 136.819 80.1499 136.819C80.8299 136.819 81.3799 136.269 81.3799 135.589Z" fill="#002FF5"/>
<path id="Vector_12" d="M99.8399 135.589C99.8399 134.909 99.2899 134.359 98.6099 134.359C97.9299 134.359 97.3799 134.909 97.3799 135.589C97.3799 136.269 97.9299 136.819 98.6099 136.819C99.2899 136.819 99.8399 136.269 99.8399 135.589Z" fill="#002FF5"/>
<path id="Vector_13" d="M118.3 135.589C118.3 134.909 117.75 134.359 117.07 134.359C116.39 134.359 115.84 134.909 115.84 135.589C115.84 136.269 116.39 136.819 117.07 136.819C117.75 136.819 118.3 136.269 118.3 135.589Z" fill="#002FF5"/>
<path id="Vector_14" d="M136.76 135.589C136.76 134.909 136.21 134.359 135.53 134.359C134.85 134.359 134.3 134.909 134.3 135.589C134.3 136.269 134.85 136.819 135.53 136.819C136.21 136.819 136.76 136.269 136.76 135.589Z" fill="#002FF5"/>
<path id="Vector_15" d="M155.22 135.589C155.22 134.909 154.67 134.359 153.99 134.359C153.31 134.359 152.76 134.909 152.76 135.589C152.76 136.269 153.31 136.819 153.99 136.819C154.67 136.819 155.22 136.269 155.22 135.589Z" fill="#002FF5"/>
</g>
<g id="Group 221">
<path id="Vector_16" d="M63.46 154.259C63.46 153.579 62.91 153.029 62.23 153.029C61.55 153.029 61 153.579 61 154.259C61 154.939 61.55 155.489 62.23 155.489C62.91 155.489 63.46 154.939 63.46 154.259Z" fill="#002FF5"/>
<path id="Vector_17" d="M81.9199 154.259C81.9199 153.579 81.3699 153.029 80.6899 153.029C80.0099 153.029 79.46 153.579 79.46 154.259C79.46 154.939 80.0099 155.489 80.6899 155.489C81.3699 155.489 81.9199 154.939 81.9199 154.259Z" fill="#002FF5"/>
<path id="Vector_18" d="M100.38 154.259C100.38 153.579 99.8299 153.029 99.1499 153.029C98.4699 153.029 97.9199 153.579 97.9199 154.259C97.9199 154.939 98.4699 155.489 99.1499 155.489C99.8299 155.489 100.38 154.939 100.38 154.259Z" fill="#002FF5"/>
<path id="Vector_19" d="M118.84 154.259C118.84 153.579 118.29 153.029 117.61 153.029C116.93 153.029 116.38 153.579 116.38 154.259C116.38 154.939 116.93 155.489 117.61 155.489C118.29 155.489 118.84 154.939 118.84 154.259Z" fill="#002FF5"/>
<path id="Vector_20" d="M137.3 154.259C137.3 153.579 136.75 153.029 136.07 153.029C135.39 153.029 134.84 153.579 134.84 154.259C134.84 154.939 135.39 155.489 136.07 155.489C136.75 155.489 137.3 154.939 137.3 154.259Z" fill="#002FF5"/>
</g>
<g id="Group 222">
<path id="Vector_21" d="M81.46 172.94C81.46 172.26 80.91 171.71 80.23 171.71C79.55 171.71 79 172.26 79 172.94C79 173.62 79.55 174.17 80.23 174.17C80.91 174.17 81.46 173.62 81.46 172.94Z" fill="#002FF5"/>
<path id="Vector_22" d="M99.92 172.94C99.92 172.26 99.3699 171.71 98.6899 171.71C98.0099 171.71 97.46 172.26 97.46 172.94C97.46 173.62 98.0099 174.17 98.6899 174.17C99.3699 174.17 99.92 173.62 99.92 172.94Z" fill="#002FF5"/>
<path id="Vector_23" d="M118.38 172.94C118.38 172.26 117.83 171.71 117.15 171.71C116.47 171.71 115.92 172.26 115.92 172.94C115.92 173.62 116.47 174.17 117.15 174.17C117.83 174.17 118.38 173.62 118.38 172.94Z" fill="#002FF5"/>
</g>
</g>
</g>
</svg>
