<svg width="41" height="30" viewBox="0 0 41 30" fill="none" xmlns="http://www.w3.org/2000/svg">
<path d="M19.0935 2.19895L16.3949 0C6.23539 5.65445 1.47312 12.0942 0.203181 19.3194C-0.749273 25.288 1.63186 30 7.66408 30C11.9501 30 16.0774 27.1728 17.0299 22.4607C17.8236 16.9634 14.6487 13.6649 10.6802 12.8796C12.2676 7.53927 18.9348 2.19895 19.0935 2.19895ZM32.7454 12.5655C34.4916 7.38221 40.8413 2.19895 41 2.19895L38.3014 0C28.1419 5.65445 23.3796 12.0942 22.1096 19.3194C21.1572 25.288 23.5383 30 29.5705 30C33.8566 30 37.9839 27.1728 38.7776 22.4607C39.7301 16.9634 36.714 13.3508 32.7454 12.5655Z" fill="#10B981"/>
</svg>
