<svg width="40" height="40" viewBox="0 0 40 40" fill="none" xmlns="http://www.w3.org/2000/svg">
<path d="M1.6089 21.2165C1.6089 10.3966 10.2924 1.62519 21.0038 1.62519C21.4481 1.62519 21.8083 1.26139 21.8083 0.812595C21.8083 0.363803 21.4481 0 21.0038 0C9.40382 0 0 9.49899 0 21.2165C0 21.6653 0.360156 22.0291 0.80445 22.0291C1.24874 22.0291 1.6089 21.6653 1.6089 21.2165ZM23.7218 4.30473C31.8968 5.62456 37.9926 12.7798 37.9926 21.2319C37.9926 30.6997 30.3943 38.3748 21.0215 38.3748C12.7346 38.3748 5.69745 32.333 4.30012 24.1772C4.22434 23.735 3.80806 23.4385 3.37028 23.515C2.93251 23.5915 2.63905 24.0121 2.71478 24.4543C4.24504 33.386 11.9486 40 21.0215 40C31.2829 40 39.6015 31.5972 39.6015 21.2319C39.6015 11.9781 32.9284 4.14531 23.9757 2.6999C23.537 2.62907 23.1245 2.9309 23.0544 3.37406C22.9842 3.81721 23.2831 4.23387 23.7218 4.30473Z" fill="white"/>
<path d="M20.1992 1.09995V21.5038C20.1992 21.9526 20.5594 22.3164 21.0037 22.3164C21.448 22.3164 21.8081 21.9526 21.8081 21.5038V1.09995C21.8081 0.651157 21.448 0.287354 21.0037 0.287354C20.5594 0.287354 20.1992 0.651157 20.1992 1.09995Z" fill="white"/>
<path d="M0.80445 22.3161H21.0038C21.4481 22.3161 21.8083 21.9523 21.8083 21.5035C21.8083 21.0547 21.4481 20.6909 21.0038 20.6909H0.80445C0.360156 20.6909 0 21.0547 0 21.5035C0 21.9523 0.360156 22.3161 0.80445 22.3161ZM10.7273 10.5024C10.7273 9.99282 10.3392 9.58906 9.87258 9.58906C9.40598 9.58906 9.01785 9.99278 9.01785 10.5024C9.01785 11.0121 9.40598 11.4158 9.87258 11.4158C10.3392 11.4158 10.7273 11.0121 10.7273 10.5024ZM12.3362 10.5024C12.3362 11.8991 11.2385 13.041 9.87258 13.041C8.50663 13.041 7.40895 11.8992 7.40895 10.5024C7.40895 9.10575 8.50663 7.96387 9.87258 7.96387C11.2385 7.96387 12.3362 9.10571 12.3362 10.5024ZM16.7004 15.8523C16.7004 15.3427 16.3122 14.9389 15.8456 14.9389C15.379 14.9389 14.9909 15.3427 14.9909 15.8523C14.9909 16.3619 15.379 16.7657 15.8456 16.7657C16.3122 16.7657 16.7004 16.362 16.7004 15.8523ZM18.3093 15.8523C18.3093 17.249 17.2116 18.3909 15.8456 18.3909C14.4797 18.3909 13.382 17.249 13.382 15.8523C13.382 14.4556 14.4797 13.3137 15.8456 13.3137C17.2116 13.3137 18.3093 14.4556 18.3093 15.8523ZM15.2685 9.41856L8.63181 16.3216C8.32229 16.6435 8.32975 17.158 8.64847 17.4706C8.96718 17.7833 9.47648 17.7758 9.78601 17.4538L16.4227 10.5508C16.7322 10.2289 16.7248 9.7144 16.4061 9.40174C16.0874 9.08908 15.5781 9.09662 15.2685 9.41856Z" fill="white"/>
</svg>
