<svg width="40" height="40" viewBox="0 0 40 40" fill="none" xmlns="http://www.w3.org/2000/svg">
<g id="Icon">
<g id="Icon_2">
<path id="Vector" d="M17.4861 20.2572C17.4861 19.4859 16.8675 18.8603 16.1049 18.8603C15.3424 18.8603 14.7238 19.4859 14.7238 20.2572C14.7238 21.0285 15.3424 21.6541 16.1049 21.6541C16.8675 21.6541 17.4861 21.0285 17.4861 20.2572ZM19.3276 20.2572C19.3276 22.0571 17.8845 23.5166 16.1049 23.5166C14.3254 23.5166 12.8823 22.0571 12.8823 20.2572C12.8823 18.4573 14.3254 16.9978 16.1049 16.9978C17.8845 16.9978 19.3276 18.4573 19.3276 20.2572ZM25.7728 27.4744C25.7728 26.7031 25.1543 26.0775 24.3917 26.0775C23.6291 26.0775 23.0106 26.7031 23.0106 27.4744C23.0106 28.2457 23.6291 28.8713 24.3917 28.8713C25.1543 28.8713 25.7728 28.2457 25.7728 27.4744ZM27.6143 27.4744C27.6143 29.2743 26.1713 30.7338 24.3917 30.7338C22.6121 30.7338 21.1691 29.2743 21.1691 27.4744C21.1691 25.6745 22.6121 24.215 24.3917 24.215C26.1713 24.215 27.6143 25.6745 27.6143 27.4744ZM23.7406 18.9003L14.5331 28.2128C14.1735 28.5765 14.1735 29.1661 14.5331 29.5298C14.8927 29.8935 15.4757 29.8935 15.8352 29.5298L25.0427 20.2173C25.4023 19.8536 25.4023 19.264 25.0427 18.9003C24.6832 18.5366 24.1002 18.5366 23.7406 18.9003Z" fill="white"/>
<path id="Vector_2" d="M1.56748 19.5535L18.8946 2.2624C19.4302 1.72793 20.2919 1.72939 20.8258 2.26581L38.0319 19.5513C38.3926 19.9138 38.9756 19.9118 39.334 19.5469C39.6924 19.182 39.6904 18.5923 39.3296 18.2299L22.1235 0.944367C20.8732 -0.311782 18.8556 -0.315192 17.6012 0.936592L0.274065 18.2277C-0.0878953 18.5889 -0.0918517 19.1786 0.265343 19.5446C0.622538 19.9107 1.20551 19.9147 1.56748 19.5535Z" fill="white"/>
<path id="Vector_3" d="M32.0006 13.2262V36.7404C32.0006 37.5117 31.3821 38.1373 30.6195 38.1373H8.9819C8.21931 38.1373 7.60078 37.5117 7.60078 36.7404V13.2262C7.60078 12.7118 7.18855 12.2949 6.68003 12.2949C6.1715 12.2949 5.75928 12.7118 5.75928 13.2262V36.7404C5.75928 38.5403 7.20231 39.9998 8.9819 39.9998H30.6195C32.3991 39.9998 33.8421 38.5403 33.8421 36.7404V13.2262C33.8421 12.7118 33.4299 12.2949 32.9214 12.2949C32.4129 12.2949 32.0006 12.7118 32.0006 13.2262Z" fill="white"/>
</g>
</g>
</svg>
