<svg width="40" height="40" viewBox="0 0 40 40" fill="none" xmlns="http://www.w3.org/2000/svg">
<path d="M21.195 18.7055V13.6469C23.1893 14.0636 23.1897 15.54 23.1897 16.0775H25.5794C25.5794 13.108 23.9636 11.1922 21.195 10.7751V8.75293H18.8053V10.7751C16.0368 11.1922 14.4209 13.1079 14.4209 16.0775C14.4209 19.047 16.0367 20.9626 18.8053 21.3797V26.4384C16.8111 26.0217 16.8107 24.5453 16.8107 24.0078H14.4209C14.4209 26.9772 16.0367 28.893 18.8053 29.3102V31.3324H21.195V29.3102C23.9636 28.893 25.5794 26.9773 25.5794 24.0078C25.5794 21.0383 23.9636 19.1227 21.195 18.7055ZM18.8053 18.5079C16.8111 18.0914 16.8107 16.615 16.8107 16.0775C16.8107 15.54 16.8111 14.0636 18.8053 13.6469V18.5079ZM21.195 26.4384V21.5773C23.1893 21.9939 23.1897 23.4703 23.1897 24.0078C23.1897 24.5453 23.1893 26.0217 21.195 26.4384Z" fill="white"/>
<path d="M28.2337 0H11.7663C7.0511 0 3.21477 4.57088 3.21477 10.1893V14.9973L1.68969 13.1801L0 15.1936L4.40969 20.4478L8.81939 15.1936L7.12954 13.1802L5.60454 14.9972V10.1893C5.60454 6.14105 8.36868 2.8474 11.7663 2.8474H28.2337C31.6312 2.8474 34.3955 6.14086 34.3955 10.1893V17.4852H36.7853V10.1893C36.7853 4.57088 32.949 0 28.2337 0Z" fill="white"/>
<path d="M35.5904 20.335L31.1808 25.589L32.8707 27.6023L34.3957 25.7853V29.8107C34.3957 33.8588 31.6315 37.1525 28.2339 37.1525H11.7664C8.36891 37.1525 5.60461 33.859 5.60461 29.8107V23.2974H3.21484V29.8107C3.21484 35.429 7.0511 39.9999 11.7664 39.9999H28.2338C32.949 39.9999 36.7854 35.4291 36.7854 29.8107V25.7852L38.3104 27.6023L40.0001 25.589L35.5904 20.335Z" fill="white"/>
</svg>
