<svg width="33" height="24" viewBox="0 0 33 24" fill="none" xmlns="http://www.w3.org/2000/svg">
<path id="&#226;&#128;&#156;" d="M17.5252 22.2408L19.6841 24C27.8117 19.4764 31.6216 14.3246 32.6375 8.54451C33.3995 3.76964 31.4946 0 26.6688 0C23.24 0 19.9381 2.26178 19.1761 6.03142C18.5412 10.4293 21.0811 13.0681 24.2559 13.6963C22.986 17.9686 17.6522 22.2408 17.5252 22.2408ZM6.60374 13.9476C5.20681 18.0942 0.127048 22.2408 4.95911e-05 22.2408L2.15895 24C10.2866 19.4764 14.0964 14.3246 15.1123 8.54451C15.8743 3.76964 13.9694 0 9.14362 0C5.71478 0 2.41293 2.26178 1.77797 6.03142C1.016 10.4293 3.42889 13.3194 6.60374 13.9476Z" fill="#10B981"/>
</svg>
