<svg width="118" height="118" viewBox="0 0 118 118" fill="none" xmlns="http://www.w3.org/2000/svg">
<g id="Group 231">
<circle id="Ellipse 34" cx="59" cy="59" r="59" fill="#92CEFB"/>
<ellipse id="Ellipse 33" cx="61.5" cy="58" rx="56.5" ry="57" fill="#10B981"/>
<g id="Icon">
<g id="Icon_2">
<g id="Group">
<g id="Group_2">
<path id="Vector" d="M62.9119 56.2311V48.0558C66.1026 48.7292 66.1032 51.1153 66.1032 51.9839H69.9269C69.9269 47.1849 67.3416 44.0887 62.9119 43.4146V40.1465H59.0882V43.4146C54.6586 44.0887 52.0732 47.1848 52.0732 51.9839C52.0732 56.7831 54.6585 59.879 59.0882 60.5531V68.7286C55.8975 68.0552 55.8969 65.6691 55.8969 64.8005H52.0732C52.0732 69.5995 54.6585 72.6957 59.0882 73.3698V76.6379H62.9119V73.3698C67.3415 72.6957 69.9269 69.5996 69.9269 64.8005C69.9269 60.0013 67.3415 56.9054 62.9119 56.2311ZM59.0882 55.9119C55.8975 55.2387 55.8969 52.8527 55.8969 51.9839C55.8969 51.1153 55.8975 48.7292 59.0882 48.0558V55.9119ZM62.9119 68.7286V60.8723C66.1026 61.5457 66.1032 63.9318 66.1032 64.8005C66.1032 65.6691 66.1026 68.0552 62.9119 68.7286Z" fill="white"/>
</g>
</g>
<g id="Group_3">
<g id="Group_4">
<path id="Vector_2" d="M74.1739 26H47.8261C40.2817 26 34.1436 33.3872 34.1436 42.4672V50.2377L31.7035 47.3008L29 50.555L36.0555 59.0464L43.111 50.555L40.4073 47.301L37.9672 50.2376V42.4672C37.9672 35.9248 42.3899 30.6018 47.8261 30.6018H74.1739C79.6099 30.6018 84.0327 35.9245 84.0327 42.4672V54.2585H87.8564V42.4672C87.8564 33.3872 81.7184 26 74.1739 26Z" fill="white"/>
</g>
</g>
<g id="Group_5">
<g id="Group_6">
<path id="Vector_3" d="M85.9444 58.8633L78.8891 67.3545L81.5928 70.6084L84.0328 67.6718V74.1774C84.0328 80.7197 79.6102 86.0427 74.1739 86.0427H47.8261C42.3901 86.0427 37.9672 80.72 37.9672 74.1774V63.651H34.1436V74.1774C34.1436 83.2573 40.2816 90.6445 47.8261 90.6445H74.1738C81.7182 90.6445 87.8563 83.2575 87.8563 74.1774V67.6716L90.2964 70.6082L92.9999 67.3545L85.9444 58.8633Z" fill="white"/>
</g>
</g>
</g>
</g>
</g>
</svg>
