<svg width="118" height="118" viewBox="0 0 118 118" fill="none" xmlns="http://www.w3.org/2000/svg">
<circle cx="59" cy="59" r="59" fill="#92CEFB"/>
<ellipse cx="61.5" cy="58" rx="56.5" ry="57" fill="#10B981"/>
<path d="M31.6001 60.4169C31.6001 42.9308 45.6335 28.7554 62.9443 28.7554C63.6623 28.7554 64.2443 28.1674 64.2443 27.4421C64.2443 26.7168 63.6623 26.1289 62.9443 26.1289C44.1975 26.1289 29 41.4802 29 60.4169C29 61.1422 29.582 61.7301 30.3001 61.7301C31.0181 61.7301 31.6001 61.1422 31.6001 60.4169ZM67.3368 33.0858C80.5484 35.2188 90.3999 46.7824 90.3999 60.4419C90.3999 75.7427 78.1203 88.1465 62.9729 88.1465C49.5804 88.1465 38.2077 78.3824 35.9494 65.2017C35.827 64.487 35.1542 64.0079 34.4467 64.1316C33.7392 64.2552 33.265 64.9348 33.3874 65.6495C35.8604 80.0841 48.3102 90.7729 62.9729 90.7729C79.5563 90.7729 93 77.1931 93 60.4418C93 45.4868 82.2156 32.8281 67.7472 30.4922C67.0382 30.3778 66.3716 30.8655 66.2582 31.5817C66.1448 32.2979 66.6278 32.9713 67.3368 33.0858Z" fill="white"/>
<path d="M61.6442 27.906V60.8807C61.6442 61.606 62.2262 62.194 62.9442 62.194C63.6623 62.194 64.2443 61.606 64.2443 60.8807V27.906C64.2443 27.1807 63.6623 26.5928 62.9442 26.5928C62.2262 26.5928 61.6442 27.1807 61.6442 27.906Z" fill="white"/>
<path d="M30.3001 62.1935H62.9443C63.6623 62.1935 64.2443 61.6055 64.2443 60.8802C64.2443 60.155 63.6623 59.567 62.9443 59.567H30.3001C29.582 59.567 29 60.155 29 60.8802C29 61.6055 29.582 62.1935 30.3001 62.1935ZM46.3364 43.1015C46.3364 42.2779 45.7092 41.6254 44.9551 41.6254C44.201 41.6254 43.5738 42.2778 43.5738 43.1015C43.5738 43.9251 44.201 44.5776 44.9551 44.5776C45.7092 44.5776 46.3364 43.9251 46.3364 43.1015ZM48.9366 43.1015C48.9366 45.3587 47.1626 47.2041 44.9551 47.2041C42.7476 47.2041 40.9736 45.3587 40.9736 43.1015C40.9736 40.8443 42.7476 38.9989 44.9551 38.9989C47.1626 38.9989 48.9366 40.8442 48.9366 43.1015ZM55.9895 51.7474C55.9895 50.9238 55.3622 50.2713 54.6081 50.2713C53.854 50.2713 53.2268 50.9238 53.2268 51.7474C53.2268 52.571 53.854 53.2235 54.6081 53.2235C55.3622 53.2235 55.9895 52.5711 55.9895 51.7474ZM58.5896 51.7474C58.5896 54.0046 56.8156 55.85 54.6081 55.85C52.4006 55.85 50.6267 54.0047 50.6267 51.7474C50.6267 49.4902 52.4006 47.6448 54.6081 47.6448C56.8156 47.6448 58.5896 49.4902 58.5896 51.7474ZM53.6755 41.3498L42.9499 52.5058C42.4497 53.0261 42.4617 53.8575 42.9768 54.3628C43.4919 54.8681 44.315 54.8559 44.8152 54.3356L55.5408 43.1796C56.041 42.6594 56.0289 41.8279 55.5139 41.3226C54.9988 40.8174 54.1757 40.8295 53.6755 41.3498Z" fill="white"/>
</svg>
