<svg width="118" height="118" viewBox="0 0 118 118" fill="none" xmlns="http://www.w3.org/2000/svg">
<circle cx="59" cy="59" r="59" fill="#92CEFB"/>
<ellipse cx="61.5" cy="58" rx="56.5" ry="57" fill="#10B981"/>
<path d="M57.2595 59.1481C57.2595 57.9016 56.2598 56.8906 55.0274 56.8906C53.795 56.8906 52.7954 57.9016 52.7954 59.1481C52.7954 60.3946 53.795 61.4056 55.0274 61.4056C56.2598 61.4056 57.2595 60.3946 57.2595 59.1481ZM60.2355 59.1481C60.2355 62.0569 57.9034 64.4156 55.0274 64.4156C52.1514 64.4156 49.8193 62.0569 49.8193 59.1481C49.8193 56.2393 52.1514 53.8806 55.0274 53.8806C57.9034 53.8806 60.2355 56.2393 60.2355 59.1481ZM70.6517 70.8119C70.6517 69.5654 69.6521 68.5544 68.4196 68.5544C67.1872 68.5544 66.1876 69.5654 66.1876 70.8119C66.1876 72.0584 67.1872 73.0694 68.4196 73.0694C69.6521 73.0694 70.6517 72.0584 70.6517 70.8119ZM73.6277 70.8119C73.6277 73.7207 71.2956 76.0794 68.4196 76.0794C65.5436 76.0794 63.2116 73.7207 63.2116 70.8119C63.2116 67.9031 65.5436 65.5444 68.4196 65.5444C71.2956 65.5444 73.6277 67.9031 73.6277 70.8119ZM67.3674 56.9552L52.4872 72.0053C51.9061 72.593 51.9061 73.5459 52.4872 74.1336C53.0683 74.7214 54.0104 74.7214 54.5916 74.1336L69.4718 59.0836C70.0529 58.4959 70.0529 57.543 69.4718 56.9552C68.8907 56.3675 67.9485 56.3675 67.3674 56.9552Z" fill="white"/>
<path d="M31.5332 58.0106L59.5356 30.0664C60.4012 29.2027 61.7937 29.205 62.6566 30.0719L90.4633 58.0071C91.0464 58.5929 91.9886 58.5896 92.5677 57.9999C93.1469 57.4102 93.1437 56.4573 92.5606 55.8715L64.7539 27.9363C62.7332 25.9063 59.4726 25.9008 57.4453 27.9238L29.4429 55.868C28.858 56.4518 28.8516 57.4047 29.4288 57.9963C30.0061 58.5879 30.9482 58.5944 31.5332 58.0106Z" fill="white"/>
<path d="M80.7166 47.7854V85.7867C80.7166 87.0332 79.7169 88.0442 78.4845 88.0442H43.5159C42.2835 88.0442 41.2839 87.0332 41.2839 85.7867V47.7854C41.2839 46.9542 40.6177 46.2804 39.7959 46.2804C38.9741 46.2804 38.3079 46.9542 38.3079 47.7854V85.7867C38.3079 88.6956 40.6399 91.0543 43.5159 91.0543H78.4845C81.3605 91.0543 83.6926 88.6956 83.6926 85.7867V47.7854C83.6926 46.9542 83.0264 46.2804 82.2046 46.2804C81.3828 46.2804 80.7166 46.9542 80.7166 47.7854Z" fill="white"/>
</svg>
