<svg width="240" height="376" viewBox="0 0 240 376" fill="none" xmlns="http://www.w3.org/2000/svg">
<path d="M-55.8554 31.3341C-48.4568 29.1207 -40.5811 28.0233 -32.8665 27.6855C40.446 24.4715 -29.8876 110.35 1.12129 138.001C27.8994 161.878 89.2679 133.338 126.476 168.923C162.526 203.401 125.635 245.883 140.558 282.193C151.561 308.964 175.001 305.822 197.203 315.88C211.241 322.24 219.442 331.596 231.353 340.682" stroke="white" stroke-width="2.76298" stroke-miterlimit="1.5" stroke-linecap="round" stroke-linejoin="round"/>
<path d="M202.841 342.691C210.037 340.423 218.186 341.179 225.478 342.204C229.793 342.81 234.258 343.371 238.27 345.155C230.697 335.109 225.473 325.19 223.935 312.551" stroke="white" stroke-width="2.76298" stroke-miterlimit="1.5" stroke-linecap="round" stroke-linejoin="round"/>
</svg>
