<svg width="80" height="80" viewBox="0 0 80 80" fill="none" xmlns="http://www.w3.org/2000/svg">
<g id="Group 1597883262">
<circle id="Ellipse 33" cx="40" cy="40.0005" r="39.5" stroke="#10B981"/>
<g id="Icon">
<g id="Icon_2">
<g id="Group">
<g id="Group_2">
<path id="Vector" d="M41.1803 38.4479V32.3775C43.5495 32.8775 43.5499 34.6492 43.5499 35.2942H46.389C46.389 31.7308 44.4694 29.4319 41.1803 28.9313V26.5046H38.3411V28.9313C35.052 29.4319 33.1323 31.7307 33.1323 35.2942C33.1323 38.8577 35.0519 41.1565 38.3411 41.657V47.7275C35.9719 47.2275 35.9715 45.4558 35.9715 44.8108H33.1323C33.1323 48.3742 35.0519 50.6732 38.3411 51.1737V53.6004H41.1803V51.1737C44.4693 50.6732 46.389 48.3743 46.389 44.8108C46.389 41.2473 44.4693 38.9485 41.1803 38.4479ZM38.3411 38.2108C35.9719 37.711 35.9715 35.9393 35.9715 35.2942C35.9715 34.6492 35.9719 32.8775 38.3411 32.3775V38.2108ZM41.1803 47.7275V41.8941C43.5495 42.3941 43.5499 44.1658 43.5499 44.8108C43.5499 45.4558 43.5495 47.2275 41.1803 47.7275Z" fill="#10B981"/>
</g>
</g>
<g id="Group_3">
<g id="Group_4">
<path id="Vector_2" d="M49.5426 16.0005H29.9788C24.377 16.0005 19.8193 21.4856 19.8193 28.2278V33.9975L18.0074 31.8169L16 34.2331L21.2389 40.5382L26.4777 34.2331L24.4701 31.817L22.6584 33.9974V28.2278C22.6584 23.3699 25.9423 19.4174 29.9788 19.4174H49.5426C53.579 19.4174 56.8631 23.3696 56.8631 28.2278V36.9831H59.7022V28.2278C59.7022 21.4856 55.1446 16.0005 49.5426 16.0005Z" fill="#10B981"/>
</g>
</g>
<g id="Group_5">
<g id="Group_6">
<path id="Vector_3" d="M58.2824 40.4031L53.0437 46.708L55.0513 49.1241L56.863 46.9436V51.7742C56.863 56.632 53.5791 60.5844 49.5426 60.5844H29.9787C25.9423 60.5844 22.6582 56.6322 22.6582 51.7742V43.9581H19.8191V51.7742C19.8191 58.5162 24.3767 64.0013 29.9787 64.0013H49.5425C55.1443 64.0013 59.702 58.5163 59.702 51.7742V46.9435L61.5139 49.124L63.5213 46.708L58.2824 40.4031Z" fill="#10B981"/>
</g>
</g>
</g>
</g>
</g>
</svg>
