<svg width="80" height="80" viewBox="0 0 80 80" fill="none" xmlns="http://www.w3.org/2000/svg">
<g id="Group 1597883262">
<circle id="Ellipse 33" cx="40" cy="40.0005" r="39.5" stroke="#10B981"/>
<g id="Icon">
<g id="Icon_2">
<path id="Vector" d="M36.9835 40.3092C36.9835 39.3837 36.2412 38.633 35.3261 38.633C34.411 38.633 33.6688 39.3837 33.6688 40.3092C33.6688 41.2348 34.411 41.9855 35.3261 41.9855C36.2412 41.9855 36.9835 41.2348 36.9835 40.3092ZM39.1933 40.3092C39.1933 42.4691 37.4616 44.2205 35.3261 44.2205C33.1906 44.2205 31.459 42.4691 31.459 40.3092C31.459 38.1493 33.1906 36.3979 35.3261 36.3979C37.4616 36.3979 39.1933 38.1493 39.1933 40.3092ZM46.9276 48.9699C46.9276 48.0444 46.1853 47.2936 45.2702 47.2936C44.3551 47.2936 43.6129 48.0444 43.6129 48.9699C43.6129 49.8954 44.3551 50.6462 45.2702 50.6462C46.1853 50.6462 46.9276 49.8954 46.9276 48.9699ZM49.1374 48.9699C49.1374 51.1298 47.4057 52.8812 45.2702 52.8812C43.1347 52.8812 41.4031 51.1298 41.4031 48.9699C41.4031 46.81 43.1347 45.0586 45.2702 45.0586C47.4057 45.0586 49.1374 46.81 49.1374 48.9699ZM44.4889 38.6809L33.4399 49.856C33.0084 50.2924 33.0084 51 33.4399 51.4364C33.8714 51.8728 34.571 51.8728 35.0025 51.4364L46.0515 40.2613C46.483 39.8249 46.483 39.1173 46.0515 38.6809C45.62 38.2445 44.9204 38.2445 44.4889 38.6809Z" fill="#10B981"/>
<path id="Vector_2" d="M17.881 39.4647L38.6735 18.7154C39.3162 18.074 40.3502 18.0758 40.991 18.7195L61.6382 39.4621C62.0712 39.897 62.7707 39.8946 63.2008 39.4567C63.6308 39.0189 63.6284 38.3113 63.1955 37.8764L42.5482 17.1337C41.0478 15.6264 38.6268 15.6223 37.1214 17.1244L16.3289 37.8737C15.8945 38.3072 15.8898 39.0148 16.3184 39.4541C16.747 39.8934 17.4466 39.8982 17.881 39.4647Z" fill="#10B981"/>
<path id="Vector_3" d="M54.401 31.8721V60.0892C54.401 61.0147 53.6588 61.7654 52.7437 61.7654H26.7785C25.8634 61.7654 25.1212 61.0147 25.1212 60.0892V31.8721C25.1212 31.255 24.6265 30.7546 24.0163 30.7546C23.406 30.7546 22.9114 31.255 22.9114 31.8721V60.0892C22.9114 62.2491 24.643 64.0005 26.7785 64.0005H52.7437C54.8792 64.0005 56.6108 62.2491 56.6108 60.0892V31.8721C56.6108 31.255 56.1161 30.7546 55.5059 30.7546C54.8957 30.7546 54.401 31.255 54.401 31.8721Z" fill="#10B981"/>
</g>
</g>
</g>
</svg>
