<svg width="80" height="80" viewBox="0 0 80 80" fill="none" xmlns="http://www.w3.org/2000/svg">
<circle cx="40" cy="40.0005" r="39.5" stroke="#10B981"/>
<path d="M17.9307 41.4603C17.9307 28.4764 28.3508 17.9507 41.2046 17.9507C41.7377 17.9507 42.1699 17.5142 42.1699 16.9756C42.1699 16.4371 41.7377 16.0005 41.2046 16.0005C27.2846 16.0005 16 27.3993 16 41.4603C16 41.9988 16.4322 42.4354 16.9653 42.4354C17.4985 42.4354 17.9307 41.9988 17.9307 41.4603ZM44.4661 21.1662C54.2762 22.75 61.5911 31.3363 61.5911 41.4788C61.5911 52.8401 52.4732 62.0503 41.2258 62.0503C31.2815 62.0503 22.8369 54.8001 21.1601 45.0131C21.0692 44.4824 20.5697 44.1267 20.0443 44.2185C19.519 44.3103 19.1669 44.815 19.2577 45.3456C21.0941 56.0637 30.3384 64.0005 41.2258 64.0005C53.5395 64.0005 63.5218 53.9171 63.5218 41.4788C63.5218 30.3742 55.5141 20.9749 44.7709 19.2404C44.2444 19.1554 43.7494 19.5176 43.6652 20.0494C43.5811 20.5811 43.9397 21.0811 44.4661 21.1662Z" fill="#10B981"/>
<path d="M40.2393 17.3203V41.805C40.2393 42.3435 40.6714 42.7801 41.2046 42.7801C41.7378 42.7801 42.1699 42.3435 42.1699 41.805V17.3203C42.1699 16.7818 41.7378 16.3452 41.2046 16.3452C40.6714 16.3452 40.2393 16.7818 40.2393 17.3203Z" fill="#10B981"/>
<path d="M16.9653 42.7798H41.2046C41.7377 42.7798 42.1699 42.3432 42.1699 41.8046C42.1699 41.2661 41.7377 40.8295 41.2046 40.8295H16.9653C16.4322 40.8295 16 41.2661 16 41.8046C16 42.3432 16.4322 42.7798 16.9653 42.7798ZM28.8728 28.6034C28.8728 27.9919 28.407 27.5074 27.8471 27.5074C27.2872 27.5074 26.8214 27.9918 26.8214 28.6034C26.8214 29.2149 27.2872 29.6995 27.8471 29.6995C28.407 29.6995 28.8728 29.215 28.8728 28.6034ZM30.8035 28.6034C30.8035 30.2794 29.4862 31.6497 27.8471 31.6497C26.208 31.6497 24.8907 30.2795 24.8907 28.6034C24.8907 26.9274 26.208 25.5571 27.8471 25.5571C29.4862 25.5571 30.8035 26.9273 30.8035 28.6034ZM36.0404 35.0233C36.0404 34.4117 35.5747 33.9272 35.0147 33.9272C34.4548 33.9272 33.9891 34.4117 33.9891 35.0233C33.9891 35.6348 34.4548 36.1193 35.0147 36.1193C35.5747 36.1193 36.0404 35.6348 36.0404 35.0233ZM37.9711 35.0233C37.9711 36.6993 36.6539 38.0695 35.0147 38.0695C33.3756 38.0695 32.0584 36.6993 32.0584 35.0233C32.0584 33.3472 33.3756 31.977 35.0147 31.977C36.6539 31.977 37.9711 33.3472 37.9711 35.0233ZM34.3222 27.3028L26.3582 35.5864C25.9867 35.9727 25.9957 36.5901 26.3782 36.9653C26.7606 37.3404 27.3718 37.3314 27.7432 36.9451L35.7073 28.6614C36.0787 28.2751 36.0697 27.6578 35.6873 27.2826C35.3048 26.9074 34.6937 26.9164 34.3222 27.3028Z" fill="#10B981"/>
</svg>
