<svg width="1920" height="1121" viewBox="0 0 1920 1121" fill="none" xmlns="http://www.w3.org/2000/svg">
<rect x="-0.00012207" y="60.0005" width="1920" height="1061" fill="#101928"/>
<path d="M-60.8556 31.3338C-53.457 29.1204 -45.5813 28.023 -37.8667 27.6852C35.4458 24.4711 -34.8878 110.35 -3.87891 138.001C22.8992 161.878 84.2677 133.338 121.476 168.923C157.526 203.401 120.635 245.883 135.558 282.192C146.561 308.964 170.001 305.821 192.203 315.88C206.24 322.24 214.441 331.596 226.353 340.681" stroke="white" stroke-width="2.76298" stroke-miterlimit="1.5" stroke-linecap="round" stroke-linejoin="round"/>
<path d="M202.84 342.691C210.036 340.423 218.186 341.179 225.478 342.205C229.793 342.811 234.257 343.372 238.27 345.155C230.697 335.109 225.472 325.191 223.935 312.551" stroke="white" stroke-width="2.76298" stroke-miterlimit="1.5" stroke-linecap="round" stroke-linejoin="round"/>
<rect opacity="0.5" x="-61.7512" y="1006.08" width="239.666" height="104.893" transform="rotate(-27.2674 -61.7512 1006.08)" fill="url(#paint0_linear_425_453)"/>
<path d="M1822.42 993.84C1813.44 969.6 1819.24 975.401 1795 966.421C1819.24 957.441 1813.44 963.24 1822.42 939C1831.4 963.24 1825.6 957.441 1849.84 966.421C1825.6 975.401 1831.4 969.6 1822.42 993.84Z" fill="white"/>
<path d="M1874.5 1009C1870.08 997.066 1872.93 999.922 1861 995.5C1872.93 991.079 1870.08 993.935 1874.5 982C1878.92 993.935 1876.07 991.079 1888 995.5C1876.07 999.922 1878.92 997.066 1874.5 1009Z" fill="white"/>
<rect x="1802.34" y="132" width="25.5517" height="26.8966" fill="#75ADAD"/>
<rect x="1801" y="133.345" width="25.5517" height="24.2069" fill="#0B6D6D"/>
<rect x="1827.9" y="157.552" width="25.5517" height="26.8966" fill="#75ADAD"/>
<rect x="1826.55" y="158.897" width="25.5517" height="24.2069" fill="#0B6D6D"/>
<rect x="1802.34" y="183.104" width="25.5517" height="26.8966" fill="#75ADAD"/>
<rect x="1801" y="184.449" width="25.5517" height="24.2069" fill="#0B6D6D"/>
<defs>
<linearGradient id="paint0_linear_425_453" x1="-61.7512" y1="1058.53" x2="134.274" y2="1064.96" gradientUnits="userSpaceOnUse">
<stop stop-color="#10B981"/>
<stop offset="1" stop-color="#07533A" stop-opacity="0"/>
</linearGradient>
</defs>
</svg>
