<svg width="40" height="40" viewBox="0 0 40 40" fill="none" xmlns="http://www.w3.org/2000/svg">
<g clip-path="url(#clip0_1_1913)">
<path d="M6.90223 13.6357C7.08465 13.4035 7.27122 13.1755 7.46608 12.9557C7.71484 12.6697 7.97603 12.3877 8.24966 12.1183C9.23225 11.1357 10.3185 10.294 11.5001 9.59338V9.31975C11.5001 8.68127 10.9818 8.16718 10.3475 8.16718H9.06641C8.83838 8.16718 8.62694 8.27497 8.49842 8.46154L6.60787 11.1357L6.14767 10.1655L6.8815 8.62323C6.981 8.41179 6.8276 8.16718 6.59543 8.16718H5.12777C4.8956 8.16718 4.73805 8.41179 4.8417 8.62323L5.57553 10.1655L5.12362 11.1191L3.27868 8.46983C3.15016 8.28326 2.93457 8.16718 2.70654 8.16718H1.35911C0.720639 8.16718 0.206543 8.68542 0.206543 9.31975V16.9856H4.87901C5.42213 15.7874 6.09796 14.668 6.90223 13.6357Z" fill="#10B981"/>
<path d="M2.13428 3.71476C2.13428 5.76285 3.80094 7.42952 5.84904 7.42952C7.89713 7.42952 9.5638 5.76285 9.5638 3.71476C9.5638 1.66667 7.89713 0 5.84904 0C3.80094 0 2.13428 1.66667 2.13428 3.71476Z" fill="#10B981"/>
<path d="M37.1594 8.16718C36.9313 8.16718 36.7199 8.27497 36.5914 8.46154L34.7008 11.1357L34.2406 10.1655L34.9744 8.62323C35.0739 8.41179 34.9205 8.16718 34.6884 8.16718H33.2208C32.9886 8.16718 32.8311 8.41179 32.9347 8.62323L33.6685 10.1655L33.2166 11.1191L31.3758 8.46983C31.2473 8.28326 31.0317 8.16718 30.8037 8.16718H29.4563C28.8178 8.16718 28.3037 8.68542 28.3037 9.31975V9.61411C29.4687 10.3065 30.5425 11.144 31.5126 12.1141C31.7946 12.396 32.0641 12.6862 32.3211 12.9806C32.5035 13.1921 32.686 13.4118 32.8559 13.6315C33.6602 14.6639 34.3402 15.7833 34.8791 16.9814H39.5931V9.31975C39.5931 8.68127 39.0748 8.16718 38.4405 8.16718H37.1594Z" fill="#10B981"/>
<path d="M30.2314 3.71476C30.2314 5.76285 31.8981 7.42952 33.9462 7.42952C35.9943 7.42952 37.661 5.76285 37.661 3.71476C37.661 1.66667 35.9943 0 33.9462 0C31.8981 0 30.2314 1.66667 30.2314 3.71476Z" fill="#10B981"/>
<path d="M38.9834 36.2852L33.8881 32.3798C33.2206 33.466 32.4246 34.4693 31.5124 35.3814C31.4378 35.456 31.3591 35.5307 31.2803 35.6053L36.4585 39.5729C36.8358 39.8631 37.2794 40 37.7189 40C38.3408 40 38.9585 39.7222 39.3648 39.1873C40.0614 38.2835 39.8914 36.9818 38.9834 36.2852Z" fill="#10B981"/>
<path d="M25.542 23.6741C25.542 23.0356 25.0238 22.5215 24.3895 22.5215H23.1084C22.8804 22.5215 22.6689 22.6293 22.5404 22.8158L20.6498 25.49L20.1896 24.5198L20.9235 22.9776C21.0229 22.7661 20.8696 22.5215 20.6374 22.5215H19.1698C18.9376 22.5215 18.7801 22.7661 18.8837 22.9776L19.6175 24.5198L19.1656 25.4734L17.329 22.8242C17.2005 22.6376 16.9849 22.5215 16.7568 22.5215H15.4094C14.7709 22.5215 14.2568 23.0398 14.2568 23.6741V31.3399H25.5462V23.6741H25.542Z" fill="#10B981"/>
<path d="M19.8998 21.787C21.9479 21.787 23.6146 20.1203 23.6146 18.0722C23.6146 16.0241 21.948 14.3574 19.8998 14.3574C17.8517 14.3574 16.1851 16.0241 16.1851 18.0722C16.1851 20.1203 17.8517 21.787 19.8998 21.787Z" fill="#10B981"/>
<path d="M13.8795 37.9522C15.7825 38.7565 17.8016 39.1628 19.8787 39.1628C21.9599 39.1628 23.979 38.7565 25.8778 37.9522C27.5735 37.235 29.1075 36.2317 30.4467 34.9713C30.5586 34.8677 30.6705 34.7599 30.7783 34.6521C31.6572 33.7732 32.4201 32.7989 33.0586 31.75C33.4442 31.1073 33.7883 30.444 34.0785 29.7516C34.8828 27.8487 35.2891 25.8296 35.2891 23.7524C35.2891 21.6753 34.8828 19.6522 34.0785 17.7533C33.9707 17.4963 33.8546 17.2392 33.7302 16.9905C32.984 15.4606 31.9931 14.0717 30.7742 12.8528C30.0155 12.0941 29.1863 11.4225 28.2991 10.842C27.5321 10.3404 26.7236 9.9092 25.8737 9.5485C23.9707 8.74419 21.9516 8.33789 19.8746 8.33789C17.7933 8.33789 15.7742 8.74419 13.8754 9.5485C13.042 9.90091 12.246 10.3238 11.4915 10.813C10.5877 11.3976 9.74603 12.0775 8.97489 12.8487C7.76013 14.0634 6.76925 15.4523 6.01883 16.9863C5.8986 17.2351 5.77837 17.4921 5.67057 17.7491C4.86626 19.6521 4.45996 21.6712 4.45996 23.7483C4.45996 25.8254 4.86626 27.8486 5.67057 29.7475C6.44587 31.5841 7.55698 33.2301 8.97489 34.648C10.3928 36.0617 12.0428 37.1728 13.8795 37.9522ZM11.2427 16.9863C11.3256 16.8826 11.4086 16.779 11.4956 16.6795C11.6946 16.4432 11.9019 16.2151 12.1258 15.9954C14.1988 13.9224 16.9517 12.7823 19.8828 12.7823C22.814 12.7823 25.567 13.9224 27.6357 15.9954C27.8721 16.2317 28.096 16.4763 28.3074 16.7292C28.3779 16.8163 28.4484 16.8992 28.5189 16.9904C30.0321 18.9141 30.8489 21.269 30.8489 23.7524C30.8489 26.6836 29.7087 29.4366 27.6357 31.5095C25.5628 33.5825 22.8099 34.7226 19.8828 34.7226C16.9558 34.7226 14.1988 33.5825 12.1299 31.5095C10.057 29.4366 8.91684 26.6837 8.91684 23.7524C8.91266 21.2648 9.73355 18.91 11.2427 16.9863Z" fill="#10B981"/>
</g>
<defs>
<clipPath id="clip0_1_1913">
<rect width="40" height="40" fill="white"/>
</clipPath>
</defs>
</svg>
