<svg width="40" height="40" viewBox="0 0 40 40" fill="none" xmlns="http://www.w3.org/2000/svg">
<g clip-path="url(#clip0_1_1901)">
<path d="M19.9996 12.4545C22.8491 12.4545 25.1672 10.1363 25.1672 7.28696C25.1672 4.43759 22.849 2.11938 19.9996 2.11938C17.1502 2.11938 14.832 4.43759 14.832 7.28696C14.832 10.1363 17.1502 12.4545 19.9996 12.4545ZM19.9996 4.61399C21.4734 4.61399 22.6724 5.81298 22.6724 7.28681C22.6724 8.76064 21.4734 9.95962 19.9996 9.95962C18.5258 9.95962 17.3268 8.76064 17.3268 7.28681C17.3268 5.81306 18.5259 4.61399 19.9996 4.61399Z" fill="#10B981"/>
<path d="M11.6664 24.9009H28.3336C29.0225 24.9009 29.5811 24.3424 29.5811 23.6535C29.5811 18.3705 25.283 14.0725 20 14.0725C14.7171 14.0725 10.4189 18.3705 10.4189 23.6535C10.4189 24.3424 10.9775 24.9009 11.6664 24.9009ZM26.9762 22.4061H13.0237C14.4054 14.6568 25.5959 14.6646 26.9762 22.4061Z" fill="#10B981"/>
<path d="M25.0343 29.6896L22.3287 29.2964L21.1187 26.8448C20.662 25.9196 19.3383 25.9189 18.8815 26.8448L17.6715 29.2964L14.9658 29.6896C13.9448 29.838 13.5353 31.0967 14.2745 31.8174L16.2322 33.7257L15.7701 36.4204C15.5956 37.4373 16.6662 38.2159 17.58 37.7354L20 36.4632L22.42 37.7354C23.3282 38.2129 24.4055 37.4442 24.2299 36.4204L23.7677 33.7257L25.7254 31.8174C26.4644 31.0971 26.0559 29.8382 25.0343 29.6896ZM21.3438 34.351C19.8981 33.591 20.0131 33.6378 18.6565 34.351C18.9165 32.8348 18.9988 32.9383 17.826 31.7951C19.349 31.5738 19.2753 31.6842 20.0001 30.2155C20.7229 31.68 20.6492 31.5735 22.1743 31.7951C21.0048 32.935 21.0833 32.8321 21.3438 34.351Z" fill="#10B981"/>
<path d="M11.1367 29.6896L8.43111 29.2964L7.22111 26.8448C6.76447 25.9196 5.4408 25.9189 4.98392 26.8448L3.774 29.2964L1.06838 29.6896C0.0473624 29.838 -0.362169 31.0967 0.37705 31.8173L2.33486 33.7257L1.87267 36.4203C1.69822 37.4372 2.76885 38.2158 3.6826 37.7353L6.1026 36.4631L8.5226 37.7353C9.43072 38.2128 10.5081 37.4442 10.3325 36.4203L9.87033 33.7257L11.8281 31.8173C12.5669 31.0971 12.1584 29.8382 11.1367 29.6896ZM7.44627 34.351C6.03432 33.6087 6.17088 33.6087 4.75892 34.351C5.01908 32.8347 5.10127 32.9384 3.92846 31.7951C5.45143 31.5738 5.37775 31.6842 6.1026 30.2155C6.82533 31.6799 6.75166 31.5735 8.27674 31.7951C7.17517 32.8689 7.16931 32.7367 7.44627 34.351Z" fill="#10B981"/>
<path d="M38.9317 29.6896L36.226 29.2964L35.0161 26.8448C34.5595 25.9196 33.2358 25.9189 32.7789 26.8448L31.5689 29.2964L28.8633 29.6896C27.8423 29.838 27.4328 31.0967 28.172 31.8174L30.1299 33.7257L29.6677 36.4204C29.4932 37.4373 30.5638 38.2158 31.4776 37.7354L33.8976 36.4632L36.3176 37.7354C37.2258 38.2129 38.3031 37.4442 38.1275 36.4204L37.6653 33.7257L39.6231 31.8174C40.3617 31.0971 39.9533 29.8382 38.9317 29.6896ZM35.2413 34.351C33.7954 33.5909 33.9176 33.634 32.5539 34.351C32.814 32.8348 32.8963 32.9383 31.7235 31.7951C33.3395 31.5603 33.2156 31.5975 33.8976 30.2155C34.6203 31.68 34.5466 31.5735 36.0717 31.7951C34.9022 32.935 34.9807 32.8321 35.2413 34.351Z" fill="#10B981"/>
</g>
<defs>
<clipPath id="clip0_1_1901">
<rect width="40" height="40" fill="white"/>
</clipPath>
</defs>
</svg>
