<svg width="40" height="40" viewBox="0 0 40 40" fill="none" xmlns="http://www.w3.org/2000/svg">
<g clip-path="url(#clip0_1_1890)">
<path d="M13.5207 15.3014L10.9009 17.9212C10.4166 18.4071 10.0918 19.0402 10.0918 19.746V20.9211C10.0918 21.3782 10.462 21.7476 10.9182 21.7476H14.9165C15.3727 21.7476 15.7429 21.3988 15.7429 20.9691C15.7429 20.5377 15.3727 20.1889 14.9157 20.1889H12.743C12.2868 20.1889 11.9166 20.0898 11.9166 19.9683C11.9166 19.8451 11.9166 19.7468 11.9166 19.7468C11.9166 19.4823 12.019 19.2319 12.1959 19.0699L14.8157 16.451C15.3008 15.9651 15.6099 15.332 15.6099 14.6262V13.3601C15.6099 12.0808 14.4033 11.0354 12.9165 11.0354C11.4306 11.0354 10.224 12.08 10.224 13.3601V13.875C10.224 14.1601 10.5934 14.3907 11.0505 14.3907H11.2224C11.6785 14.3907 12.0488 14.1601 12.0488 13.875C12.0488 13.5907 12.0488 13.3601 12.0488 13.3601C12.0488 12.9486 12.4463 12.5949 12.9165 12.5949C13.4025 12.5949 13.7851 12.9486 13.7851 13.3601V14.6262C13.7851 14.8899 13.6826 15.1254 13.5207 15.3014Z" fill="#10B981"/>
<path d="M22.4241 11.1523H22.2531C21.796 11.1523 21.2357 11.4697 21.0002 11.8614L17.6416 17.4638C17.4077 17.8555 17.2168 18.5224 17.2168 18.953C17.2168 19.3828 17.5862 19.7323 18.0432 19.7323H20.5977C21.0556 19.7323 21.4241 20.1017 21.4241 20.5588V20.9216C21.4241 21.3786 21.7936 21.748 22.2506 21.748H22.4233C22.8803 21.748 23.2497 21.3794 23.2497 20.9216V20.5588C23.2497 20.1017 23.3803 19.7323 23.5423 19.7323C23.7059 19.7323 23.8365 19.3836 23.8365 18.953C23.8365 18.5216 23.7059 18.172 23.5431 18.172C23.382 18.172 23.2497 17.8026 23.2497 17.3456V11.9788C23.2506 11.5218 22.882 11.1523 22.4241 11.1523ZM21.425 17.3456C21.425 17.8026 21.0564 18.172 20.5985 18.1712H20.03C19.5738 18.1712 19.3928 17.853 19.625 17.4605L21.0043 15.1299C21.2365 14.7382 21.4258 14.7886 21.4258 15.2456L21.425 17.3456Z" fill="#10B981"/>
<path d="M25.9698 9.72052C25.6549 9.72052 25.4004 10.0899 25.4004 10.5469V16.0303C25.4004 16.4873 25.6558 16.8567 25.9698 16.8559C26.2847 16.8559 26.54 16.4865 26.54 16.0295V13.2188C26.54 12.951 26.7979 12.7428 27.1061 12.7428C27.4127 12.7428 27.6714 12.951 27.6714 13.2188V16.0295C27.6714 16.4865 27.9268 16.8559 28.2408 16.8559C28.554 16.8559 28.8094 16.4865 28.8094 16.0295V13.2188C28.8094 12.4461 28.0466 11.8213 27.1053 11.8213C27.0037 11.8213 26.907 11.8337 26.8144 11.8544C26.6566 11.8907 26.5392 11.5808 26.5392 11.1238V10.5469C26.54 10.0899 26.2838 9.72052 25.9698 9.72052Z" fill="#10B981"/>
<path d="M39.225 21.3228L37.5912 20.8129C37.7523 19.2451 37.7234 17.6609 37.4846 16.0849C35.9391 5.87185 26.374 -1.17925 16.1594 0.367C5.94802 1.91325 -1.10308 11.48 0.443173 21.693C0.620029 22.8566 0.901015 23.9814 1.27456 25.0557C1.57621 25.9177 2.25471 26.5003 2.70759 26.3921C3.15965 26.2838 3.20179 25.5285 2.89354 24.6698C2.52412 23.6417 2.24892 22.5632 2.07868 21.4434C0.667962 12.1337 7.09676 3.41157 16.4081 2.0025C25.7195 0.592616 34.44 7.02141 35.8507 16.3328C36.0499 17.6576 36.0962 18.9906 35.9862 20.312C35.9862 20.312 35.3036 20.0988 34.4607 19.836C33.6169 19.5732 33.0987 20.0831 33.2987 20.9724L34.3805 25.7871C34.5805 26.6764 35.2879 26.8979 35.9573 26.2797L39.587 22.9351C40.2581 22.3161 40.0944 21.5947 39.225 21.3228Z" fill="#10B981"/>
<path d="M38.4712 34.5312C38.5158 34.2949 38.4935 34.0444 38.3869 33.8031C37.6712 32.1866 35.4051 28.2776 29.849 26.9157C27.302 26.2892 23.4979 25.543 19.8426 25.543L19.4682 25.5454C14.0361 25.6264 9.16846 26.7289 9.01392 26.7661C8.84367 26.7934 4.81896 27.4843 2.13389 30.3627L2.14381 30.3726C1.67936 30.7602 1.24961 31.4643 1.05788 31.809L1.04135 31.7982C0.685163 32.3875 0.418227 32.966 0.224842 33.5668C0.147158 33.8089 0.150463 34.0544 0.213272 34.2833C0.097572 34.4825 0.0248463 34.7105 0.0231934 34.9552L5.33905e-05 37.8783C-0.00655804 38.6328 0.601694 39.2534 1.35953 39.2617L10.3907 39.3361H10.3982C11.1494 39.3361 11.7643 38.7262 11.7709 37.9758L11.794 35.0519C11.7957 34.8229 11.7353 34.6097 11.637 34.418C11.6808 34.3552 11.7329 34.294 11.7668 34.2296C11.8924 33.9891 12.4957 33.1899 14.9692 33.0379C15.7625 32.9883 16.7138 32.9643 17.7964 32.9643C20.9195 32.9643 24.1549 33.1709 24.1872 33.1734L24.288 33.1742C24.6243 33.1742 26.3094 33.2337 26.4169 34.4081C26.4293 34.5428 26.464 34.6676 26.5069 34.7882C26.3516 35.0188 26.2615 35.2965 26.2706 35.5957L26.3673 38.5237C26.3945 39.2642 26.9978 39.8452 27.7383 39.8452L37.4447 39.5261C38.1984 39.4981 38.7918 38.8634 38.767 38.1113L38.6703 35.1866C38.6621 34.9444 38.5877 34.7238 38.4712 34.5312ZM10.1189 37.6807L1.65456 37.6113L1.67275 35.251L10.137 35.3205L10.1189 37.6807ZM24.3012 31.523C24.2987 31.523 24.2954 31.523 24.2929 31.523C24.2607 31.5214 20.974 31.3106 17.7956 31.3106C16.679 31.3106 15.6931 31.3362 14.8667 31.3875C11.8932 31.5718 10.7428 32.618 10.3007 33.4651C10.2874 33.4899 10.2503 33.5246 10.2874 33.5246L2.00828 33.5172C2.13141 33.2312 2.28017 32.9469 2.45455 32.656C2.56942 32.4932 3.14875 31.723 3.3099 31.5263L3.34461 31.49C5.63713 29.0313 9.24945 28.4024 9.33457 28.3859C9.38333 28.3743 14.2345 27.2752 19.493 27.1975L19.8434 27.195C23.3343 27.195 26.997 27.9156 29.4565 28.5206C33.677 29.5561 35.7076 32.2486 36.5687 33.8444L28.0342 34.0337C27.7292 32.1875 25.8582 31.523 24.3012 31.523ZM28.0094 38.1824L27.9309 35.8221L37.0274 35.5246L37.1059 37.8832L28.0094 38.1824Z" fill="#10B981"/>
</g>
<defs>
<clipPath id="clip0_1_1890">
<rect width="40" height="40" fill="white"/>
</clipPath>
</defs>
</svg>
