<svg width="44" height="50" viewBox="0 0 44 50" fill="none" xmlns="http://www.w3.org/2000/svg">
<g id="SVGRepo_iconCarrier">
<g id="Group">
<path id="Vector" d="M7.03008 28.5029H3.4447C1.91685 28.5029 0.673828 29.746 0.673828 31.274V47.2295C0.673828 48.7573 1.91685 50.0005 3.4447 50.0005H7.03008C8.55793 50.0005 9.80116 48.7575 9.80116 47.2295V31.274C9.80116 29.746 8.55793 28.5029 7.03008 28.5029ZM7.2505 47.2295C7.2505 47.3511 7.15166 47.4499 7.03008 47.4499H3.4447C3.32333 47.4499 3.22449 47.3511 3.22449 47.2295V31.274C3.22449 31.1524 3.32333 31.0536 3.4447 31.0536H7.03008C7.15166 31.0536 7.2505 31.1524 7.2505 31.274V47.2295Z" fill="#1C2539"/>
<path id="Vector_2" d="M18.0983 34.1738H14.5129C12.9851 34.1738 11.7418 35.4169 11.7418 36.9449V47.2288C11.7418 48.7566 12.9851 49.9998 14.5129 49.9998H18.0983C19.6261 49.9998 20.8692 48.7568 20.8692 47.2288V36.9449C20.8692 35.4169 19.6263 34.1738 18.0983 34.1738ZM18.3185 47.2288C18.3185 47.3503 18.2197 47.4492 18.0983 47.4492H14.5129C14.3913 47.4492 14.2925 47.3503 14.2925 47.2288V36.9449C14.2925 36.8233 14.3913 36.7245 14.5129 36.7245H18.0983C18.2197 36.7245 18.3185 36.8233 18.3185 36.9449V47.2288Z" fill="#1C2539"/>
<path id="Vector_3" d="M29.1666 33.4561H25.5813C24.0534 33.4561 22.8102 34.6991 22.8102 36.2271V47.2292C22.8102 48.7571 24.0534 50.0003 25.5813 50.0003H29.1666C30.6945 50.0003 31.9375 48.7573 31.9375 47.2292V36.2271C31.9375 34.6993 30.6945 33.4561 29.1666 33.4561ZM29.3869 47.2292C29.3869 47.3508 29.288 47.4496 29.1666 47.4496H25.5813C25.4597 47.4496 25.3608 47.3508 25.3608 47.2292V36.2271C25.3608 36.1056 25.4597 36.0067 25.5813 36.0067H29.1666C29.288 36.0067 29.3869 36.1056 29.3869 36.2271V47.2292Z" fill="#1C2539"/>
<path id="Vector_4" d="M40.5556 29.2207H36.9702C35.4423 29.2207 34.1991 30.4637 34.1991 31.9918V47.229C34.1991 48.7569 35.4423 50.0001 36.9702 50.0001H40.5556C42.0834 50.0001 43.3264 48.7571 43.3264 47.229V31.9918C43.3264 30.4637 42.0834 29.2207 40.5556 29.2207ZM40.7758 47.2288C40.7758 47.3504 40.6769 47.4492 40.5556 47.4492H36.9702C36.8486 47.4492 36.7498 47.3504 36.7498 47.2288V31.9916C36.7498 31.87 36.8486 31.7712 36.9702 31.7712H40.5556C40.6769 31.7712 40.7758 31.87 40.7758 31.9916V47.2288Z" fill="#1C2539"/>
<path id="Vector_5" d="M21.5225 0C12.6651 0 5.45886 7.20605 5.45886 16.0634C5.45886 24.9208 12.6649 32.1269 21.5223 32.1269C30.3797 32.1269 37.5855 24.9208 37.5855 16.0634C37.5855 7.20605 30.3799 0 21.5225 0ZM21.5225 29.5762C14.0714 29.5762 8.00974 23.5143 8.00974 16.0634C8.00974 8.61252 14.0714 2.55066 21.5225 2.55066C28.9734 2.55066 35.0351 8.61252 35.0351 16.0634C35.0351 23.5143 28.9732 29.5762 21.5225 29.5762Z" fill="#1C2539"/>
<path id="Vector_6" d="M24.3566 11.9541C24.3566 12.6583 24.9277 13.2294 25.6319 13.2294C26.3361 13.2294 26.9072 12.6583 26.9072 11.9541C26.9072 9.42449 25.1532 7.29766 22.7979 6.72333V5.3515C22.7979 4.64731 22.2268 4.07617 21.5226 4.07617C20.8184 4.07617 20.2472 4.64731 20.2472 5.3515V6.72333C17.8917 7.29766 16.1377 9.42427 16.1377 11.9541C16.1377 14.4839 17.8917 16.6106 20.2472 17.1849V22.7003C19.3241 22.2324 18.6884 21.2766 18.6884 20.1728C18.6884 19.4686 18.1172 18.8974 17.413 18.8974C16.7088 18.8974 16.1377 19.4686 16.1377 20.1728C16.1377 22.7026 17.8917 24.8292 20.2472 25.4035V26.7754C20.2472 27.4796 20.8184 28.0507 21.5226 28.0507C22.2268 28.0507 22.7979 27.4796 22.7979 26.7754V25.4035C25.1532 24.8292 26.9072 22.7026 26.9072 20.1728C26.9072 17.6429 25.1532 15.5163 22.7979 14.942V9.42682C23.7208 9.89466 24.3566 10.8505 24.3566 11.9541ZM18.6884 11.9541C18.6884 10.8503 19.3241 9.89445 20.2472 9.42661V14.4816C19.3239 14.014 18.6884 13.0579 18.6884 11.9541ZM24.3566 20.173C24.3566 21.2768 23.721 22.2326 22.7979 22.7003V17.6457C23.7208 18.1133 24.3566 19.0694 24.3566 20.173Z" fill="#1C2539"/>
</g>
</g>
</svg>
