<svg width="50" height="50" viewBox="0 0 50 50" fill="none" xmlns="http://www.w3.org/2000/svg">
<path d="M27.0454 42.7363C27.0527 42.7354 27.0596 42.7339 27.0669 42.7329L27.0576 42.7236L27.0454 42.7363ZM7.14355 16.0713H17.8579V12.5H3.57227V41.0713H26.7866V37.5H7.14355V16.0713ZM32.1436 12.5V16.0713H42.8579V26.7856H46.4297V12.5H32.1436ZM28.5723 31.5635V41.3848L37.501 46.2954L46.4297 41.3848V31.5635L37.5005 26.6523L28.5723 31.5635ZM42.8579 39.2729L37.501 42.2192L32.1436 39.2729V33.6748L37.5005 30.7285L42.8574 33.6748V39.2729H42.8579Z" fill="#1C2539"/>
<path d="M35.7148 36.4741C35.7148 36.9477 35.903 37.4019 36.2378 37.7368C36.5727 38.0716 37.0269 38.2598 37.5005 38.2598C37.9741 38.2598 38.4283 38.0716 38.7631 37.7368C39.098 37.4019 39.2861 36.9477 39.2861 36.4741C39.2861 36.0005 39.098 35.5464 38.7631 35.2115C38.4283 34.8766 37.9741 34.6885 37.5005 34.6885C37.0269 34.6885 36.5727 34.8766 36.2378 35.2115C35.903 35.5464 35.7148 36.0005 35.7148 36.4741Z" fill="#1C2539"/>
<path d="M23.2153 9.66797V21.4287H10.7153V25H39.2866V21.4287H26.7866V9.66797L29.0957 11.9771L31.6206 9.45166L25.001 2.83203L18.3813 9.45166L20.9063 11.9771L23.2153 9.66797Z" fill="#1C2539"/>
</svg>
