<svg width="50" height="50" viewBox="0 0 50 50" fill="none" xmlns="http://www.w3.org/2000/svg">
<g id="Frame">
<g id="SVGRepo_iconCarrier">
<path id="Vector" fill-rule="evenodd" clip-rule="evenodd" d="M23.4406 12.5H21.8812C21.0187 12.5 20.3187 13.2 20.3187 14.0625C20.3187 14.925 21.0187 15.625 21.8812 15.625H23.4469L23.45 17.1906C23.4515 18.0531 24.1531 18.7516 25.0156 18.75C25.8781 18.7484 26.5765 18.0469 26.575 17.1844L26.5719 15.625H28.1312C28.9937 15.625 29.6937 14.925 29.6937 14.0625C29.6937 13.2 28.9937 12.5 28.1312 12.5H26.5656L26.5625 10.9344C26.5609 10.0719 25.8594 9.37344 24.9969 9.375C24.1344 9.37657 23.4359 10.0781 23.4375 10.9406L23.4406 12.5Z" fill="#1C2539"/>
<path id="Vector_2" fill-rule="evenodd" clip-rule="evenodd" d="M40.625 14.0625V7.8125C40.625 6.56875 40.1313 5.37656 39.2516 4.49844C38.3734 3.61875 37.1812 3.125 35.9375 3.125C30.5266 3.125 19.4734 3.125 14.0625 3.125C12.8187 3.125 11.6266 3.61875 10.7484 4.49844C9.86875 5.37656 9.375 6.56875 9.375 7.8125V42.1875C9.375 43.4313 9.86875 44.6234 10.7484 45.5016C11.6266 46.3813 12.8187 46.875 14.0625 46.875C18.125 46.875 30.1813 46.875 35.9359 46.875C36.7984 46.875 37.4984 46.175 37.4984 45.3125C37.4984 44.45 36.7984 43.75 35.9359 43.75C30.1813 43.75 18.125 43.75 14.0625 43.75C13.6484 43.75 13.25 43.5859 12.9578 43.2922C12.6641 43 12.5 42.6016 12.5 42.1875V7.8125C12.5 7.39844 12.6641 7 12.9578 6.70781C13.25 6.41406 13.6484 6.25 14.0625 6.25H35.9375C36.3516 6.25 36.75 6.41406 37.0422 6.70781C37.3359 7 37.5 7.39844 37.5 7.8125V14.0625C37.5 14.925 38.2 15.625 39.0625 15.625C39.925 15.625 40.625 14.925 40.625 14.0625Z" fill="#1C2539"/>
<path id="Vector_3" fill-rule="evenodd" clip-rule="evenodd" d="M37.4719 22.1967C35.661 22.8436 34.3625 24.5764 34.3625 26.6108C34.3625 29.203 36.4454 31.278 39.0375 31.278C39.9016 31.278 40.6125 31.978 40.6125 32.842C40.6125 33.7045 39.9125 34.4045 39.05 34.4045C38.1875 34.4045 37.4875 33.7045 37.4875 32.842C37.4875 31.9795 36.7875 31.2795 35.925 31.2795C35.0625 31.2795 34.3625 31.9795 34.3625 32.842C34.3625 34.8764 35.6625 36.6108 37.4766 37.2577L37.4688 39.0748C37.4657 39.9373 38.1625 40.6405 39.025 40.6436C39.8875 40.6483 40.5907 39.9498 40.5938 39.0873L40.6016 37.2655C42.4266 36.6248 43.7375 34.8858 43.7375 32.842C43.7375 30.2561 41.6219 28.153 39.0375 28.153C38.1797 28.153 37.4875 27.4686 37.4875 26.6108C37.4875 25.7483 38.1875 25.0483 39.05 25.0483C39.9094 25.0483 40.6079 25.7436 40.6125 26.6014V26.6217C40.6188 27.478 41.3157 28.1733 42.175 28.1733C43.0375 28.1733 43.7375 27.4733 43.7375 26.6108C43.7375 24.5655 42.425 22.8248 40.5969 22.1858L40.6125 20.3436C40.6188 19.4811 39.925 18.7764 39.0625 18.7686C38.2 18.7623 37.4938 19.4577 37.4875 20.3186L37.4719 22.1967Z" fill="#1C2539"/>
<path id="Vector_4" fill-rule="evenodd" clip-rule="evenodd" d="M17.1875 26.5918H29.6875C30.55 26.5918 31.25 25.8918 31.25 25.0293C31.25 24.1668 30.55 23.4668 29.6875 23.4668H17.1875C16.325 23.4668 15.625 24.1668 15.625 25.0293C15.625 25.8918 16.325 26.5918 17.1875 26.5918Z" fill="#1C2539"/>
<path id="Vector_5" fill-rule="evenodd" clip-rule="evenodd" d="M17.1875 32.8613H29.6875C30.55 32.8613 31.25 32.1613 31.25 31.2988C31.25 30.4363 30.55 29.7363 29.6875 29.7363H17.1875C16.325 29.7363 15.625 30.4363 15.625 31.2988C15.625 32.1613 16.325 32.8613 17.1875 32.8613Z" fill="#1C2539"/>
<path id="Vector_6" fill-rule="evenodd" clip-rule="evenodd" d="M17.1875 39.0811H29.6875C30.55 39.0811 31.25 38.3811 31.25 37.5186C31.25 36.6561 30.55 35.9561 29.6875 35.9561H17.1875C16.325 35.9561 15.625 36.6561 15.625 37.5186C15.625 38.3811 16.325 39.0811 17.1875 39.0811Z" fill="#1C2539"/>
</g>
</g>
</svg>
