<svg width="153" height="43" viewBox="0 0 153 43" fill="none" xmlns="http://www.w3.org/2000/svg">
<path id="Vector" d="M1.96728 10.4454C3.11137 11.9169 5.74248 16.1485 7.8692 19.8387C13.4699 29.6534 15.7665 31.7118 18.2759 29.2331C19.562 27.9328 18.7403 24.2079 16.1944 19.5398C15.5681 18.4209 15.0498 17.3096 15.0587 17.1838C15.0676 17.058 18.2867 19.1181 22.1723 21.731C34.8104 30.2709 46.9921 36.06 60.3965 39.9121C68.4266 42.2478 86.0413 43.3615 95.2434 42.176C111.407 40.0264 124.558 35.9577 141.037 27.824C149.022 23.8974 152.364 21.9199 152.584 21.1135C152.822 20.0554 152.556 19.9735 150.756 20.0996C149.555 20.2047 145.209 21.7954 141.065 23.5901C124.275 30.7534 106.07 34.9089 87.611 35.7588C71.6042 36.4652 57.2282 33.3034 40.2612 25.3439C34.481 22.6608 22.7258 15.4476 20.1815 13.0556C19.1098 12.095 19.1683 12.0359 21.4855 11.5036C25.1256 10.6851 26.4524 9.57724 26.6039 7.4383C26.8757 3.60079 21.1362 1.11029 10.7404 0.757674C4.7324 0.524327 3.63893 0.637006 2.20859 1.67433C1.00318 2.60103 0.50431 3.51426 0.267068 5.33105C-0.0464425 7.45858 0.179037 8.10669 1.96728 10.4454Z" fill="#10B981" fill-opacity="0.2"/>
</svg>
