<svg width="16" height="16" viewBox="0 0 16 16" fill="none" xmlns="http://www.w3.org/2000/svg">
<rect width="16" height="16" fill="#1E1E1E"/>
<rect id="Rectangle 40025" x="-275" y="-163" width="1201" height="637" fill="#D9D9D9"/>
<g id="social-instagram">
<path id="Vector" d="M15.9333 4.5499C15.8667 3.71682 15.7333 3.20415 15.5333 2.69149C15.4 2.17882 15.1333 1.73024 14.6667 1.28166C14.2 0.83308 13.8 0.576748 13.2667 0.384498C12.7333 0.192249 12.2 0.0640831 11.3333 0C10.4667 0 10.2 0 8 0C5.8 0 5.53333 0 4.73333 0.0640831C3.86667 0.0640831 3.26667 0.192249 2.73333 0.384498C2.26667 0.576748 1.8 0.83308 1.33333 1.28166C0.866667 1.73024 0.6 2.17882 0.4 2.62741C0.2 3.14007 0.0666667 3.71682 0.0666667 4.5499C0 5.31889 0 5.57523 0 7.68997C0 9.80471 0 10.061 0.0666667 10.83C0.133333 11.6631 0.266667 12.1758 0.466667 12.6884C0.6 13.2011 0.866667 13.6497 1.33333 14.0983C1.8 14.5469 2.2 14.8032 2.73333 14.9954C3.26667 15.1877 3.8 15.3159 4.66667 15.3799C5.53333 15.3799 5.8 15.3799 8 15.3799C10.2 15.3799 10.4667 15.3799 11.2667 15.3159C12.1333 15.2518 12.6667 15.1236 13.2 14.9314C13.7333 14.7391 14.2 14.4828 14.6 14.0342C15 13.5856 15.3333 13.2011 15.5333 12.6884C15.7333 12.1758 15.8667 11.6631 15.9333 10.83C16 10.061 16 9.80471 16 7.68997C16 5.57523 16 5.31889 15.9333 4.5499ZM14.5333 10.766C14.4667 11.535 14.4 11.9195 14.2667 12.1758C14.1333 12.5603 13.9333 12.8166 13.6667 13.0729C13.4 13.3293 13.1333 13.5215 12.7333 13.6497C12.4667 13.7779 12 13.906 11.2667 13.906C10.4 13.9701 10.2 13.9701 8.06667 13.9701C5.93333 13.9701 5.66667 13.9701 4.86667 13.906C4.06667 13.8419 3.66667 13.7779 3.4 13.6497C3 13.5215 2.73333 13.3293 2.46667 13.0729C2.2 12.8166 2 12.5603 1.86667 12.1758C1.73333 11.9195 1.6 11.4709 1.6 10.766C1.53333 9.93288 1.53333 9.74063 1.53333 7.68997C1.53333 5.63931 1.53333 5.38298 1.6 4.61398C1.53333 3.84498 1.66667 3.3964 1.73333 3.14007C1.86667 2.75557 2.06667 2.49924 2.33333 2.24291C2.6 1.98658 2.86667 1.79433 3.26667 1.66616C3.53333 1.60208 4 1.47391 4.8 1.40983C5.6 1.40983 5.86667 1.40983 8 1.40983C10.1333 1.40983 10.4 1.40983 11.2 1.47391C12 1.53799 12.4 1.60208 12.6667 1.73024C13.0667 1.85841 13.3333 2.05066 13.6 2.30699C13.8667 2.56332 14.0667 2.81965 14.2 3.20415C14.3333 3.46049 14.4667 3.90907 14.4667 4.61398C14.5333 5.44706 14.5333 5.63931 14.5333 7.68997C14.5333 9.74063 14.5333 9.99696 14.5333 10.766Z" fill="#10B981"/>
<path id="Vector_2" d="M8 3.84473C5.8 3.84473 4 5.57497 4 7.68971C4 9.80445 5.8 11.5347 8 11.5347C10.2 11.5347 12 9.80445 12 7.68971C12 5.57497 10.2 3.84473 8 3.84473ZM8 10.189C6.53333 10.189 5.4 9.09954 5.4 7.68971C5.4 6.27988 6.53333 5.19047 8 5.19047C9.46667 5.19047 10.6 6.27988 10.6 7.68971C10.6 9.09954 9.46667 10.189 8 10.189Z" fill="#10B981"/>
<path id="Vector_3" d="M12.3335 4.80584C12.8858 4.80584 13.3335 4.37557 13.3335 3.84481C13.3335 3.31405 12.8858 2.88379 12.3335 2.88379C11.7812 2.88379 11.3335 3.31405 11.3335 3.84481C11.3335 4.37557 11.7812 4.80584 12.3335 4.80584Z" fill="#10B981"/>
</g>
</svg>
