<svg width="18" height="17" viewBox="0 0 18 17" fill="none" xmlns="http://www.w3.org/2000/svg">
<g id="Group 28">
<path id="Vector" d="M10.0979 10.1955C9.00048 9.73143 8.07977 8.93813 7.46693 7.92859C7.43908 7.87812 7.42803 7.8203 7.43534 7.76331C7.44265 7.70632 7.46795 7.65303 7.50767 7.61096L8.03386 7.04592C8.07039 7.0077 8.09469 6.95974 8.10375 6.90802C8.1128 6.8563 8.10621 6.80309 8.08478 6.75504L7.25646 5.20033C7.25646 5.20033 6.88982 4.64866 6.13957 5.12343C6.13957 5.12343 4.1672 6.64136 5.42667 8.72768C6.68613 10.814 7.87091 11.5195 8.93687 12.031C9.86365 12.4757 11.87 13.0675 13.0819 10.8976C13.0819 10.8976 13.5062 10.2289 13.0819 10.0584C12.8884 9.98147 11.8326 9.46658 11.3845 9.2526C11.3278 9.22511 11.2634 9.21741 11.2017 9.23078C11.14 9.24415 11.0847 9.27778 11.045 9.32616L10.4136 10.1119C10.377 10.1572 10.3266 10.1898 10.2697 10.2049C10.2129 10.2199 10.1527 10.2166 10.0979 10.1955Z" stroke="#10B981"/>
<path id="Vector_2" d="M1 16.1538L2.35791 12.4091C1.44489 10.7818 1.16144 8.8837 1.56002 7.06634C1.95861 5.24897 3.01224 3.63538 4.52587 2.52425C6.0395 1.41313 7.91062 0.879738 9.79284 1.02281C11.6751 1.16589 13.4409 1.97575 14.7635 3.30246C16.0861 4.62917 16.8758 6.3829 16.9866 8.23898C17.0973 10.0951 16.5214 11.9278 15.3657 13.3979C14.2099 14.868 12.5525 15.8759 10.7002 16.2351C8.84798 16.5942 6.92632 16.2803 5.291 15.3514L1 16.1538Z" stroke="#10B981" stroke-linecap="round"/>
</g>
</svg>
