<svg width="16" height="16" viewBox="0 0 16 16" fill="none" xmlns="http://www.w3.org/2000/svg">
<path d="M16 1.81404C15.3975 2.12953 14.795 2.36614 14.1255 2.44502C14.795 1.97179 15.3305 1.18307 15.5983 0.315486C14.9289 0.788715 14.2594 1.1042 13.523 1.26194C12.9205 0.473229 12.0502 0 11.113 0C9.30544 0 7.83264 1.73517 7.83264 3.8647C7.83264 4.18019 7.83264 4.49567 7.89958 4.73229C5.15481 4.57455 2.74477 2.99712 1.13808 0.709843C0.870293 1.26194 0.669456 1.97179 0.669456 2.68163C0.669456 4.02244 1.27197 5.20552 2.14226 5.91536C1.60669 5.91536 1.07113 5.75762 0.669456 5.44213C0.669456 5.44213 0.669456 5.44213 0.669456 5.521C0.669456 7.41392 1.80753 8.99135 3.28033 9.30683C3.01255 9.3857 2.74477 9.46458 2.41004 9.46458C2.20921 9.46458 2.00837 9.46458 1.80753 9.3857C2.20921 10.9631 3.41423 12.0673 4.88703 12.0673C3.74895 13.0927 2.3431 13.7236 0.803347 13.7236C0.535565 13.7236 0.267782 13.7236 0 13.6448C1.4728 14.749 3.21339 15.3799 5.02092 15.3799C11.113 15.3799 14.3933 9.46458 14.3933 4.33793C14.3933 4.18019 14.3933 4.02244 14.3933 3.8647C14.9958 3.23373 15.5314 2.52389 16 1.81404Z" fill="#10B981"/>
</svg>
