<svg width="1920" height="935" viewBox="0 0 1920 935" fill="none" xmlns="http://www.w3.org/2000/svg">
<rect x="1" width="1920" height="935" fill="#101928"/>
<rect x="1773" y="110.887" width="172.174" height="14.6558" transform="rotate(-30.3079 1773 110.887)" fill="url(#paint0_linear_445_473)"/>
<rect x="1773" y="150.887" width="172.174" height="14.6558" transform="rotate(-30.3079 1773 150.887)" fill="url(#paint1_linear_445_473)"/>
<rect x="1773" y="190.887" width="172.174" height="14.6558" transform="rotate(-30.3079 1773 190.887)" fill="url(#paint2_linear_445_473)"/>
<rect x="1773" y="230.887" width="172.174" height="14.6558" transform="rotate(-30.3079 1773 230.887)" fill="url(#paint3_linear_445_473)"/>
<rect x="1773" y="270.887" width="172.174" height="14.6558" transform="rotate(-30.3079 1773 270.887)" fill="url(#paint4_linear_445_473)"/>
<rect x="1773" y="310.887" width="172.174" height="14.6558" transform="rotate(-30.3079 1773 310.887)" fill="url(#paint5_linear_445_473)"/>
<g opacity="0.04" clip-path="url(#clip0_445_473)">
<path d="M47.7732 733.301C52.625 733.301 57.4384 734.465 61.8699 736.765C68.0869 739.994 72.7853 745.171 75.5401 751.217L76.2813 749.795C84.0755 734.829 102.603 728.982 117.59 736.765C123.807 739.994 128.507 745.173 131.261 751.218L132.004 749.794C139.795 734.831 158.332 728.986 173.31 736.765C188.294 744.548 194.146 763.055 186.355 778.022L106.753 930.591C106.266 931.525 105.531 932.308 104.63 932.854C103.728 933.4 102.694 933.689 101.64 933.688H-121.572C-122.563 933.689 -123.538 933.434 -124.402 932.949C-125.266 932.463 -125.99 931.763 -126.504 930.917C-127.018 930.07 -127.305 929.106 -127.336 928.116C-127.368 927.126 -127.144 926.145 -126.685 925.268L-35.156 749.791C-31.3854 742.544 -25.0103 737.196 -17.2069 734.735C-9.41124 732.274 -1.11655 732.992 6.14777 736.766C12.3647 739.995 17.0662 745.172 19.8203 751.219L20.5615 749.795C24.3344 742.544 30.7095 737.195 38.5129 734.734C41.5083 733.787 44.6313 733.304 47.7732 733.301ZM15.4813 777.79C14.5613 777.79 13.6546 777.57 12.8371 777.148C12.0195 776.727 11.3148 776.116 10.7818 775.367C10.2488 774.618 9.90306 773.752 9.77339 772.843C9.64371 771.933 9.73386 771.005 10.0364 770.138C13.1229 761.272 9.16331 751.316 0.825439 746.984C-3.7002 744.636 -8.86984 744.188 -13.7348 745.72C-18.5998 747.254 -22.574 750.588 -24.9278 755.108L-112.066 922.171H98.1406L176.125 772.705C180.979 763.378 177.331 751.838 167.989 746.985C163.465 744.641 158.289 744.189 153.428 745.721C148.563 747.255 144.589 750.589 142.235 755.109L132.042 774.685C131.372 775.978 130.236 776.968 128.863 777.457C127.49 777.945 125.983 777.896 124.645 777.318C123.307 776.742 122.236 775.682 121.649 774.35C121.062 773.018 121.001 771.513 121.48 770.138C124.563 761.269 120.606 751.316 112.269 746.985C102.925 742.133 91.3699 745.779 86.5126 755.109L76.3222 774.682C75.6507 775.974 74.5143 776.964 73.1418 777.452C71.7692 777.94 70.2624 777.892 68.9244 777.315C67.5858 776.74 66.5152 775.679 65.9279 774.347C65.3406 773.015 65.2804 771.51 65.7593 770.135C68.8427 761.267 64.8855 751.316 56.5483 746.985C52.0204 744.641 46.8546 744.189 41.985 745.721C37.12 747.255 33.1458 750.589 30.792 755.109L20.5993 774.687C20.1125 775.623 19.3778 776.407 18.4753 776.954C17.5727 777.501 16.5371 777.79 15.4813 777.79Z" fill="white"/>
<path d="M-55.1249 901.618C-54.1985 901.618 -53.2861 901.843 -52.4657 902.272C-51.7939 902.621 -51.1976 903.099 -50.7109 903.679C-50.2242 904.258 -49.8566 904.928 -49.6292 905.65C-49.4017 906.371 -49.3189 907.13 -49.3855 907.884C-49.452 908.637 -49.6666 909.37 -50.017 910.041L-60.7388 930.593C-61.0884 931.264 -61.5671 931.859 -62.1473 932.345C-62.7275 932.831 -63.398 933.198 -64.1203 933.426C-64.8426 933.653 -65.6027 933.735 -66.3571 933.669C-67.1115 933.603 -67.8453 933.388 -68.5167 933.039C-69.1886 932.689 -69.7849 932.211 -70.2716 931.632C-70.7583 931.052 -71.1259 930.382 -71.3533 929.661C-71.5807 928.939 -71.6635 928.18 -71.5969 927.427C-71.5304 926.673 -71.3158 925.94 -70.9654 925.269L-60.2436 904.718C-59.7564 903.783 -59.0214 902.999 -58.1188 902.452C-57.2162 901.905 -56.1806 901.617 -55.1249 901.618ZM15.4891 766.269C16.4155 766.269 17.328 766.494 18.1483 766.923C18.8201 767.273 19.4164 767.751 19.9031 768.33C20.3898 768.91 20.7574 769.579 20.9848 770.301C21.2123 771.022 21.2951 771.781 21.2285 772.535C21.162 773.288 20.9474 774.021 20.597 774.692L-19.1928 850.958C-19.5426 851.629 -20.0212 852.225 -20.6015 852.711C-21.1817 853.197 -21.8521 853.564 -22.5744 853.791C-23.2967 854.018 -24.0568 854.101 -24.8111 854.034C-25.5655 853.968 -26.2993 853.754 -26.9708 853.404C-27.6425 853.055 -28.2388 852.577 -28.7254 851.997C-29.2121 851.418 -29.5796 850.748 -29.807 850.026C-30.0344 849.305 -30.1173 848.546 -30.0508 847.792C-29.9843 847.039 -29.7697 846.306 -29.4195 845.635L10.3704 769.369C10.8575 768.434 11.5924 767.65 12.4951 767.103C13.3978 766.556 14.4334 766.268 15.4891 766.269ZM40.4472 825.229C41.3741 825.23 42.2869 825.455 43.108 825.885C43.7797 826.234 44.3759 826.712 44.8626 827.291C45.3492 827.871 45.7168 828.541 45.9442 829.262C46.1716 829.983 46.2544 830.743 46.1879 831.496C46.1214 832.25 45.9069 832.982 45.5567 833.653L-5.01897 930.593C-5.36864 931.264 -5.84726 931.859 -6.42747 932.345C-7.00771 932.831 -7.67815 933.198 -8.40048 933.426C-9.12282 933.653 -9.8829 933.735 -10.6373 933.669C-11.3916 933.603 -12.1255 933.388 -12.7969 933.039C-13.4687 932.689 -14.065 932.211 -14.5518 931.632C-15.0385 931.052 -15.4061 930.382 -15.6335 929.661C-15.8609 928.939 -15.9437 928.18 -15.8771 927.427C-15.8106 926.673 -15.596 925.94 -15.2456 925.269L35.33 828.33C35.8169 827.394 36.5516 826.61 37.454 826.064C38.3563 825.517 39.3917 825.228 40.4472 825.229ZM71.2104 766.264C72.1373 766.264 73.0503 766.489 73.8712 766.919C74.5429 767.268 75.1392 767.746 75.6258 768.326C76.1125 768.905 76.48 769.575 76.7074 770.296C76.9348 771.018 77.0177 771.777 76.9512 772.53C76.8847 773.284 76.6702 774.017 76.3199 774.687L63.478 799.303C62.0072 802.127 58.5197 803.216 55.6993 801.748C55.0275 801.399 54.4313 800.921 53.9447 800.341C53.458 799.762 53.0906 799.092 52.8632 798.371C52.6359 797.649 52.5531 796.89 52.6197 796.137C52.6863 795.383 52.901 794.65 53.2513 793.98L66.0933 769.364C66.5801 768.429 67.3148 767.645 68.2172 767.099C69.1196 766.552 70.155 766.263 71.2104 766.264ZM57.713 898.94C58.6399 898.941 59.5528 899.166 60.3737 899.596C61.0455 899.945 61.6417 900.423 62.1283 901.002C62.615 901.582 62.9825 902.251 63.2099 902.973C63.4374 903.694 63.5202 904.453 63.4537 905.207C63.3872 905.96 63.1727 906.693 62.8224 907.364L50.7024 930.593C49.2347 933.414 45.7464 934.51 42.9244 933.039C42.2527 932.689 41.6564 932.211 41.1698 931.631C40.6831 931.052 40.3157 930.382 40.0883 929.661C39.861 928.939 39.7782 928.18 39.8448 927.426C39.9115 926.673 40.1261 925.94 40.4765 925.269L52.595 902.04C53.0821 901.105 53.817 900.321 54.7195 899.775C55.622 899.228 56.6574 898.939 57.713 898.94ZM126.93 766.266C127.857 766.266 128.77 766.491 129.591 766.921C130.263 767.27 130.859 767.748 131.346 768.328C131.832 768.907 132.2 769.577 132.427 770.298C132.655 771.02 132.737 771.779 132.671 772.533C132.604 773.286 132.39 774.019 132.04 774.689L86.4139 862.145C84.9447 864.968 81.4579 866.059 78.6352 864.59C77.9634 864.24 77.3672 863.762 76.8806 863.183C76.394 862.603 76.0265 861.934 75.7991 861.212C75.5718 860.491 75.489 859.731 75.5556 858.978C75.6222 858.225 75.8369 857.492 76.1873 856.821L121.813 769.366C122.3 768.431 123.035 767.647 123.937 767.1C124.84 766.554 125.875 766.265 126.93 766.266Z" fill="white"/>
<path d="M189.077 817.474C193.995 817.472 198.842 818.655 203.205 820.921C210.465 824.692 215.82 831.058 218.282 838.852C220.746 846.643 220.024 854.927 216.248 862.178L136.649 1014.75C136.161 1015.68 135.427 1016.46 134.526 1017.01C133.624 1017.56 132.59 1017.85 131.535 1017.85H-91.6779C-92.669 1017.85 -93.6434 1017.59 -94.507 1017.1C-95.3707 1016.62 -96.0944 1015.92 -96.6084 1015.07C-97.1224 1014.23 -97.4094 1013.26 -97.4415 1012.27C-97.4737 1011.28 -97.2499 1010.3 -96.792 1009.42L-64.5279 947.57C-63.0572 944.746 -59.575 943.656 -56.7499 945.125C-53.9249 946.594 -52.8282 950.072 -54.3012 952.893L-82.1731 1006.33H128.036L206.019 856.859C208.371 852.342 208.821 847.179 207.285 842.318C205.749 837.462 202.411 833.49 197.885 831.14C195.157 829.726 192.128 828.99 189.055 828.992C185.982 828.995 182.955 829.737 180.229 831.155C179.558 831.505 178.824 831.719 178.069 831.786C177.315 831.852 176.555 831.77 175.832 831.542C175.11 831.315 174.439 830.948 173.859 830.462C173.279 829.976 172.8 829.381 172.45 828.71C172.1 828.039 171.886 827.306 171.819 826.553C171.753 825.799 171.836 825.04 172.063 824.319C172.291 823.597 172.658 822.928 173.145 822.348C173.631 821.769 174.227 821.291 174.899 820.941C179.277 818.663 184.14 817.474 189.077 817.474Z" fill="white"/>
</g>
<rect opacity="0.5" x="-12.3699" y="20.7344" width="239.666" height="104.893" transform="rotate(22.8103 -12.3699 20.7344)" fill="url(#paint6_linear_445_473)"/>
<defs>
<linearGradient id="paint0_linear_445_473" x1="1773" y1="118.215" x2="1945.17" y2="118.215" gradientUnits="userSpaceOnUse">
<stop offset="0.135" stop-color="#10B981" stop-opacity="0"/>
<stop offset="0.65" stop-color="#0D9468" stop-opacity="0.179191"/>
<stop offset="1" stop-color="#07533A" stop-opacity="0.5"/>
</linearGradient>
<linearGradient id="paint1_linear_445_473" x1="1773" y1="158.215" x2="1945.17" y2="158.215" gradientUnits="userSpaceOnUse">
<stop offset="0.135" stop-color="#10B981" stop-opacity="0"/>
<stop offset="0.65" stop-color="#0D9468" stop-opacity="0.179191"/>
<stop offset="1" stop-color="#07533A" stop-opacity="0.5"/>
</linearGradient>
<linearGradient id="paint2_linear_445_473" x1="1773" y1="198.215" x2="1945.17" y2="198.215" gradientUnits="userSpaceOnUse">
<stop offset="0.135" stop-color="#10B981" stop-opacity="0"/>
<stop offset="0.65" stop-color="#0D9468" stop-opacity="0.179191"/>
<stop offset="1" stop-color="#07533A" stop-opacity="0.5"/>
</linearGradient>
<linearGradient id="paint3_linear_445_473" x1="1773" y1="238.215" x2="1945.17" y2="238.215" gradientUnits="userSpaceOnUse">
<stop offset="0.135" stop-color="#10B981" stop-opacity="0"/>
<stop offset="0.65" stop-color="#0D9468" stop-opacity="0.179191"/>
<stop offset="1" stop-color="#07533A" stop-opacity="0.5"/>
</linearGradient>
<linearGradient id="paint4_linear_445_473" x1="1773" y1="278.215" x2="1945.17" y2="278.215" gradientUnits="userSpaceOnUse">
<stop offset="0.135" stop-color="#10B981" stop-opacity="0"/>
<stop offset="0.65" stop-color="#0D9468" stop-opacity="0.179191"/>
<stop offset="1" stop-color="#07533A" stop-opacity="0.5"/>
</linearGradient>
<linearGradient id="paint5_linear_445_473" x1="1773" y1="318.215" x2="1945.17" y2="318.215" gradientUnits="userSpaceOnUse">
<stop offset="0.135" stop-color="#10B981" stop-opacity="0"/>
<stop offset="0.65" stop-color="#0D9468" stop-opacity="0.179191"/>
<stop offset="1" stop-color="#07533A" stop-opacity="0.5"/>
</linearGradient>
<linearGradient id="paint6_linear_445_473" x1="-12.3699" y1="73.1808" x2="183.655" y2="79.609" gradientUnits="userSpaceOnUse">
<stop stop-color="#10B981"/>
<stop offset="1" stop-color="#07533A" stop-opacity="0"/>
</linearGradient>
<clipPath id="clip0_445_473">
<rect width="238" height="252" fill="white" transform="matrix(-1 0 0 -1 239 935)"/>
</clipPath>
</defs>
</svg>
