<svg width="50" height="50" viewBox="0 0 50 50" fill="none" xmlns="http://www.w3.org/2000/svg">
<g clip-path="url(#clip0_1_1290)">
<path d="M16.9006 19.1262L13.6258 22.401C13.0205 23.0084 12.6145 23.7997 12.6145 24.6819V26.1509C12.6145 26.7222 13.0773 27.1839 13.6475 27.1839H18.6454C19.2156 27.1839 19.6784 26.748 19.6784 26.2108C19.6784 25.6716 19.2156 25.2356 18.6443 25.2356H15.9285C15.3582 25.2356 14.8954 25.1116 14.8954 24.9598C14.8954 24.8059 14.8954 24.6829 14.8954 24.6829C14.8954 24.3524 15.0235 24.0394 15.2446 23.8369L18.5193 20.5632C19.1257 19.9558 19.5121 19.1645 19.5121 18.2822V16.6996C19.5121 15.1005 18.0039 13.7937 16.1454 13.7937C14.288 13.7937 12.7798 15.0995 12.7798 16.6996V17.3432C12.7798 17.6996 13.2416 17.9878 13.8128 17.9878H14.0277C14.5979 17.9878 15.0607 17.6996 15.0607 17.3432C15.0607 16.9878 15.0607 16.6996 15.0607 16.6996C15.0607 16.1852 15.5576 15.743 16.1454 15.743C16.7528 15.743 17.2311 16.1852 17.2311 16.6996V18.2822C17.2311 18.6118 17.103 18.9062 16.9006 19.1262Z" fill="#10B981"/>
<path d="M28.0304 13.9394H27.8166C27.2453 13.9394 26.5449 14.3361 26.2505 14.8257L22.0522 21.8287C21.7599 22.3184 21.5212 23.152 21.5212 23.6902C21.5212 24.2274 21.983 24.6644 22.5543 24.6644H25.7474C26.3197 24.6644 26.7804 25.1261 26.7804 25.6974V26.1509C26.7804 26.7222 27.2422 27.184 27.8135 27.184H28.0294C28.6006 27.184 29.0624 26.7232 29.0624 26.1509V25.6974C29.0624 25.1261 29.2256 24.6644 29.4281 24.6644C29.6326 24.6644 29.7959 24.2284 29.7959 23.6902C29.7959 23.151 29.6326 22.714 29.4291 22.714C29.2277 22.714 29.0624 22.2522 29.0624 21.681V14.9724C29.0634 14.4012 28.6027 13.9394 28.0304 13.9394ZM26.7815 21.681C26.7815 22.2522 26.3207 22.714 25.7484 22.713H25.0377C24.4675 22.713 24.2412 22.3153 24.5315 21.8246L26.2556 18.9114C26.5459 18.4217 26.7825 18.4848 26.7825 19.056L26.7815 21.681Z" fill="#10B981"/>
<path d="M32.4622 12.1501C32.0687 12.1501 31.7505 12.6119 31.7505 13.1832V20.0374C31.7505 20.6086 32.0697 21.0704 32.4622 21.0694C32.8558 21.0694 33.175 20.6076 33.175 20.0363V16.523C33.175 16.1883 33.4974 15.928 33.8827 15.928C34.2659 15.928 34.5893 16.1883 34.5893 16.523V20.0363C34.5893 20.6076 34.9085 21.0694 35.301 21.0694C35.6926 21.0694 36.0118 20.6076 36.0118 20.0363V16.523C36.0118 15.5571 35.0583 14.7761 33.8816 14.7761C33.7546 14.7761 33.6337 14.7916 33.518 14.8174C33.3207 14.8629 33.174 14.4755 33.174 13.9042V13.1832C33.175 12.6119 32.8548 12.1501 32.4622 12.1501Z" fill="#10B981"/>
<path d="M49.031 26.653L46.9887 26.0156C47.1902 24.0559 47.154 22.0756 46.8554 20.1056C44.9237 7.33932 32.9673 -1.47455 20.199 0.458262C7.43478 2.39107 -1.37909 14.3495 0.553723 27.1158C0.774793 28.5703 1.12603 29.9762 1.59296 31.3192C1.97002 32.3967 2.81814 33.1249 3.38424 32.9896C3.94931 32.8543 4.002 31.9101 3.61668 30.8368C3.15491 29.5517 2.81091 28.2036 2.5981 26.8038C0.834709 15.1666 8.8707 4.26397 20.5099 2.50264C32.1491 0.740281 43.0497 8.77627 44.8131 20.4155C45.0621 22.0715 45.1199 23.7377 44.9826 25.3896C44.9826 25.3896 44.1293 25.123 43.0756 24.7945C42.0208 24.466 41.3731 25.1034 41.6231 26.215L42.9754 32.2334C43.2254 33.345 44.1096 33.6218 44.9464 32.8491L49.4835 28.6684C50.3223 27.8947 50.1178 26.9928 49.031 26.653Z" fill="#10B981"/>
<path d="M48.0889 43.164C48.1447 42.8686 48.1168 42.5556 47.9836 42.2539C47.089 40.2333 44.2564 35.347 37.3113 33.6446C34.1275 32.8615 29.3724 31.9287 24.8033 31.9287L24.3353 31.9318C17.5452 32.033 11.4606 33.4111 11.2674 33.4576C11.0546 33.4917 6.0237 34.3553 2.66737 37.9534L2.67976 37.9658C2.0992 38.4503 1.56202 39.3304 1.32235 39.7612L1.30169 39.7478C0.856454 40.4843 0.522783 41.2074 0.281053 41.9585C0.183947 42.2611 0.188079 42.568 0.26659 42.8541C0.121965 43.1031 0.0310578 43.3882 0.0289918 43.694L6.67382e-05 47.3478C-0.00819755 48.291 0.752117 49.0668 1.69941 49.0771L12.9884 49.1701H12.9977C13.9368 49.1701 14.7053 48.4077 14.7136 47.4697L14.7425 43.8148C14.7446 43.5287 14.6692 43.2622 14.5463 43.0225C14.601 42.944 14.6661 42.8675 14.7084 42.787C14.8655 42.4863 15.6196 41.4874 18.7115 41.2973C19.7032 41.2353 20.8922 41.2054 22.2455 41.2054C26.1493 41.2054 30.1937 41.4636 30.2339 41.4667L30.36 41.4678C30.7804 41.4678 32.8868 41.5421 33.0211 43.0101C33.0366 43.1785 33.08 43.3345 33.1337 43.4853C32.9395 43.7735 32.8269 44.1206 32.8382 44.4946L32.9591 48.1546C32.9932 49.0802 33.7473 49.8064 34.6729 49.8064L46.8059 49.4077C47.748 49.3726 48.4898 48.5792 48.4588 47.6391L48.3379 43.9832C48.3276 43.6805 48.2346 43.4047 48.0889 43.164ZM12.6486 47.1009L2.06821 47.0141L2.09093 44.0638L12.6713 44.1506L12.6486 47.1009ZM30.3765 39.4038C30.3734 39.4038 30.3693 39.4038 30.3662 39.4038C30.3259 39.4017 26.2175 39.1383 22.2444 39.1383C20.8488 39.1383 19.6164 39.1703 18.5834 39.2343C14.8665 39.4647 13.4285 40.7725 12.8758 41.8314C12.8593 41.8624 12.8128 41.9058 12.8593 41.9058L2.51035 41.8965C2.66427 41.539 2.85021 41.1837 3.06819 40.8201C3.21178 40.6165 3.93594 39.6538 4.13738 39.4079L4.18077 39.3624C7.04641 36.2892 11.5618 35.503 11.6682 35.4824C11.7292 35.4679 17.7931 34.094 24.3663 33.9968L24.8043 33.9938C29.1679 33.9938 33.7463 34.8946 36.8206 35.6507C42.0963 36.9451 44.6345 40.3108 45.7109 42.3056L35.0427 42.5421C34.6615 40.2343 32.3227 39.4038 30.3765 39.4038ZM35.0117 47.728L34.9136 44.7776L46.2842 44.4057L46.3824 47.354L35.0117 47.728Z" fill="#10B981"/>
</g>
<defs>
<clipPath id="clip0_1_1290">
<rect width="50" height="50" fill="white"/>
</clipPath>
</defs>
</svg>
