<svg width="50" height="50" viewBox="0 0 50 50" fill="none" xmlns="http://www.w3.org/2000/svg">
<g id="Layer_1" clip-path="url(#clip0_1_1307)">
<g id="SVGRepo_iconCarrier">
<g id="Group">
<g id="Group_2">
<g id="Group_3">
<path id="Vector" d="M24.9998 15.5682C28.5616 15.5682 31.4592 12.6704 31.4592 9.1087C31.4592 5.54699 28.5615 2.64923 24.9998 2.64923C21.4379 2.64923 18.5403 5.54699 18.5403 9.1087C18.5403 12.6703 21.4379 15.5682 24.9998 15.5682ZM24.9998 5.76749C26.8419 5.76749 28.3408 7.26622 28.3408 9.10851C28.3408 10.9508 26.842 12.4495 24.9998 12.4495C23.1575 12.4495 21.6587 10.9508 21.6587 9.10851C21.6587 7.26632 23.1576 5.76749 24.9998 5.76749Z" fill="#10B981"/>
<path id="Vector_2" d="M14.5827 31.1261H35.4168C36.2779 31.1261 36.9761 30.428 36.9761 29.5668C36.9761 22.963 31.6035 17.5906 24.9998 17.5906C18.3961 17.5906 13.0234 22.963 13.0234 29.5668C13.0234 30.428 13.7216 31.1261 14.5827 31.1261ZM33.72 28.0076H16.2794C18.0065 18.3209 31.9946 18.3307 33.72 28.0076Z" fill="#10B981"/>
<path id="Vector_3" d="M31.2928 37.112L27.9108 36.6205L26.3983 33.5559C25.8275 32.3994 24.1729 32.3986 23.6018 33.5559L22.0893 36.6205L18.7073 37.112C17.431 37.2974 16.9191 38.8709 17.8431 39.7717L20.2903 42.1571L19.7126 45.5255C19.4945 46.7966 20.8328 47.7698 21.975 47.1692L25 45.579L28.025 47.1692C29.1602 47.7661 30.5069 46.8052 30.2874 45.5255L29.7096 42.1571L32.1568 39.7717C33.0805 38.8714 32.5699 37.2976 31.2928 37.112ZM26.6798 42.9386C24.8726 41.9887 25.0164 42.0471 23.3206 42.9386C23.6457 41.0434 23.7485 41.1728 22.2825 39.7438C24.1863 39.4672 24.0941 39.6052 25.0002 37.7693C25.9036 39.5999 25.8115 39.4669 27.7178 39.7438C26.256 41.1686 26.3541 41.04 26.6798 42.9386Z" fill="#10B981"/>
<path id="Vector_4" d="M13.9209 37.112L10.5389 36.6205L9.02639 33.5559C8.45559 32.3994 6.801 32.3986 6.22991 33.5559L4.7175 36.6205L1.33547 37.112C0.0592031 37.2974 -0.452711 38.8709 0.471312 39.7716L2.91858 42.157L2.34084 45.5254C2.12278 46.7965 3.46106 47.7697 4.60325 47.1691L7.62825 45.5788L10.6532 47.1691C11.7884 47.766 13.1352 46.8052 12.9156 45.5254L12.3379 42.157L14.7851 39.7716C15.7086 38.8714 15.198 37.2976 13.9209 37.112ZM9.30784 42.9386C7.54289 42.0108 7.7136 42.0108 5.94866 42.9386C6.27385 41.0433 6.37659 41.1729 4.91057 39.7438C6.81428 39.4672 6.72219 39.6052 7.62825 37.7693C8.53166 39.5999 8.43957 39.4668 10.3459 39.7438C8.96897 41.086 8.96164 40.9209 9.30784 42.9386Z" fill="#10B981"/>
<path id="Vector_5" d="M48.6646 37.112L45.2825 36.6205L43.7701 33.5559C43.1993 32.3994 41.5447 32.3986 40.9737 33.5559L39.4612 36.6205L36.0791 37.112C34.8029 37.2974 34.2909 38.8709 35.215 39.7717L37.6623 42.1571L37.0846 45.5255C36.8665 46.7966 38.2047 47.7697 39.347 47.1692L42.372 45.5789L45.397 47.1692C46.5322 47.7661 47.8789 46.8052 47.6594 45.5255L47.0817 42.1571L49.5288 39.7717C50.4522 38.8714 49.9416 37.2976 48.6646 37.112ZM44.0516 42.9386C42.2443 41.9885 42.397 42.0425 40.6924 42.9386C41.0175 41.0434 41.1203 41.1728 39.6543 39.7438C41.6744 39.4503 41.5196 39.4968 42.372 37.7693C43.2753 39.5999 43.1832 39.4668 45.0897 39.7438C43.6278 41.1687 43.7259 41.0401 44.0516 42.9386Z" fill="#10B981"/>
</g>
</g>
</g>
</g>
</g>
<defs>
<clipPath id="clip0_1_1307">
<rect width="50" height="50" fill="white"/>
</clipPath>
</defs>
</svg>
