<svg width="50" height="50" viewBox="0 0 50 50" fill="none" xmlns="http://www.w3.org/2000/svg">
<g id="Capa_1" clip-path="url(#clip0_1_1325)">
<g id="SVGRepo_iconCarrier">
<g id="Group">
<g id="Group_2">
<path id="Vector" d="M8.62767 17.0446C8.85569 16.7544 9.0889 16.4693 9.33248 16.1947C9.64342 15.8371 9.96991 15.4847 10.312 15.1478C11.5402 13.9196 12.898 12.8676 14.375 11.9917V11.6497C14.375 10.8516 13.7272 10.209 12.9343 10.209H11.3329C11.0479 10.209 10.7836 10.3437 10.6229 10.5769L8.25972 13.9196L7.68447 12.7069L8.60176 10.7791C8.72613 10.5147 8.53438 10.209 8.24417 10.209H6.40959C6.11938 10.209 5.92244 10.5147 6.052 10.7791L6.96929 12.7069L6.40441 13.8989L4.09823 10.5873C3.93758 10.3541 3.66809 10.209 3.38306 10.209H1.69877C0.900677 10.209 0.258057 10.8568 0.258057 11.6497V21.232H6.09865C6.77754 19.7343 7.62233 18.335 8.62767 17.0446Z" fill="#10B981"/>
<path id="Vector_2" d="M2.66797 4.64345C2.66797 7.20357 4.7513 9.2869 7.31142 9.2869C9.87153 9.2869 11.9549 7.20357 11.9549 4.64345C11.9549 2.08333 9.87153 0 7.31142 0C4.7513 0 2.66797 2.08333 2.66797 4.64345Z" fill="#10B981"/>
<path id="Vector_3" d="M46.4489 10.209C46.1639 10.209 45.8996 10.3437 45.739 10.5769L43.3758 13.9196L42.8005 12.7069L43.7178 10.7791C43.8422 10.5147 43.6504 10.209 43.3603 10.209H41.5257C41.2355 10.209 41.0386 10.5147 41.1682 10.7791L42.0854 12.7069L41.5206 13.8989L39.2196 10.5873C39.0589 10.3541 38.7894 10.209 38.5044 10.209H36.8201C36.022 10.209 35.3794 10.8568 35.3794 11.6497V12.0176C36.8357 12.8831 38.1779 13.93 39.3905 15.1427C39.743 15.4951 40.0798 15.8578 40.4011 16.2258C40.6291 16.4901 40.8572 16.7647 41.0696 17.0394C42.075 18.3298 42.9249 19.7291 43.5987 21.2268H49.4911V11.6497C49.4911 10.8516 48.8433 10.209 48.0504 10.209H46.4489Z" fill="#10B981"/>
<path id="Vector_4" d="M37.7893 4.64345C37.7893 7.20357 39.8726 9.2869 42.4328 9.2869C44.9929 9.2869 47.0763 7.20357 47.0763 4.64345C47.0763 2.08333 44.9929 0 42.4328 0C39.8726 0 37.7893 2.08333 37.7893 4.64345Z" fill="#10B981"/>
<path id="Vector_5" d="M48.7293 45.3566L42.3601 40.4747C41.5257 41.8325 40.5307 43.0866 39.3906 44.2268C39.2973 44.3201 39.1989 44.4134 39.1003 44.5066L45.5732 49.4662C46.0448 49.829 46.5993 50 47.1486 50C47.926 50 48.6981 49.6527 49.206 48.9842C50.0767 47.8544 49.8643 46.2272 48.7293 45.3566Z" fill="#10B981"/>
<path id="Vector_6" d="M31.9278 29.5921C31.9278 28.794 31.28 28.1514 30.4871 28.1514H28.8858C28.6007 28.1514 28.3364 28.2861 28.1758 28.5193L25.8125 31.862L25.2373 30.6493L26.1546 28.7215C26.2789 28.4571 26.0872 28.1514 25.797 28.1514H23.9625C23.6722 28.1514 23.4753 28.4571 23.6049 28.7215L24.5222 30.6493L23.9573 31.8413L21.6615 28.5297C21.5008 28.2965 21.2313 28.1514 20.9463 28.1514H19.262C18.4639 28.1514 17.8213 28.7992 17.8213 29.5921V39.1744H31.933V29.5921H31.9278Z" fill="#10B981"/>
<path id="Vector_7" d="M24.8744 27.2332C27.4345 27.2332 29.5179 25.1499 29.5179 22.5897C29.5179 20.0297 27.4346 17.9463 24.8744 17.9463C22.3142 17.9463 20.231 20.0296 20.231 22.5897C20.231 25.1499 22.3143 27.2332 24.8744 27.2332Z" fill="#10B981"/>
<path id="Vector_8" d="M17.3496 47.4398C19.7283 48.4452 22.2522 48.9531 24.8486 48.9531C27.4501 48.9531 29.974 48.4452 32.3475 47.4398C34.4671 46.5432 36.3846 45.2891 38.0586 43.7137C38.1984 43.5841 38.3384 43.4493 38.4732 43.3146C39.5718 42.216 40.5254 40.9981 41.3235 39.687C41.8055 38.8837 42.2356 38.0545 42.5984 37.189C43.6038 34.8103 44.1116 32.2865 44.1116 29.6901C44.1116 27.0937 43.6038 24.5647 42.5984 22.1912C42.4636 21.8698 42.3185 21.5485 42.163 21.2376C41.2302 19.3253 39.9917 17.5892 38.468 16.0655C37.5196 15.1171 36.4831 14.2776 35.3741 13.5521C34.4153 12.925 33.4047 12.386 32.3424 11.9351C29.9637 10.9298 27.4398 10.4219 24.8434 10.4219C22.2419 10.4219 19.718 10.9298 17.3445 11.9351C16.3028 12.3756 15.3078 12.9043 14.3646 13.5158C13.2348 14.2465 12.1828 15.0964 11.2189 16.0603C9.7004 17.5788 8.4618 19.3149 7.52379 21.2324C7.3735 21.5434 7.22321 21.8646 7.08846 22.1859C6.08307 24.5647 5.5752 27.0885 5.5752 29.6849C5.5752 32.2812 6.08307 34.8103 7.08846 37.1838C8.05758 39.4797 9.44646 41.5371 11.2189 43.3095C12.9912 45.0767 15.0538 46.4656 17.3496 47.4398ZM14.0536 21.2324C14.1573 21.1028 14.2609 20.9732 14.3698 20.8489C14.6185 20.5535 14.8776 20.2684 15.1575 19.9938C17.7487 17.4025 21.1898 15.9774 24.8538 15.9774C28.5178 15.9774 31.959 17.4025 34.5449 19.9938C34.8403 20.2892 35.1202 20.5949 35.3845 20.911C35.4726 21.0199 35.5607 21.1235 35.6488 21.2375C37.5404 23.6422 38.5613 26.5858 38.5613 29.6901C38.5613 33.354 37.1361 36.7952 34.5449 39.3864C31.9537 41.9776 28.5126 43.4028 24.8538 43.4028C21.195 43.4028 17.7487 41.9776 15.1627 39.3864C12.5715 36.7952 11.1463 33.3541 11.1463 29.6901C11.1411 26.5806 12.1672 23.637 14.0536 21.2324Z" fill="#10B981"/>
</g>
</g>
</g>
</g>
<defs>
<clipPath id="clip0_1_1325">
<rect width="50" height="50" fill="white"/>
</clipPath>
</defs>
</svg>
