<svg width="1920" height="948" viewBox="0 0 1920 948" fill="none" xmlns="http://www.w3.org/2000/svg">
<rect width="1920" height="948" fill="#101928"/>
<mask id="mask0_490_443" style="mask-type:alpha" maskUnits="userSpaceOnUse" x="0" y="0" width="1920" height="948">
<rect width="1920" height="948" fill="#101928"/>
</mask>
<g mask="url(#mask0_490_443)">
<g filter="url(#filter0_f_490_443)">
<ellipse cx="959.5" cy="812" rx="282.5" ry="289" fill="#10B981" fill-opacity="0.5"/>
</g>
<mask id="mask1_490_443" style="mask-type:alpha" maskUnits="userSpaceOnUse" x="-209" y="-144" width="2859" height="2824">
<path d="M1446.23 2679.18L-209 1280.8L993.867 -143.001L2649.09 1255.39L1446.23 2679.18Z" fill="#162033"/>
</mask>
<g mask="url(#mask1_490_443)">
<g opacity="0.15">
<path d="M2670.16 1181.79C2575.4 1261.64 2475.49 1336.11 2371.21 1404.71C2324.84 1435.17 2276.38 1465.07 2221.33 1477.52C2080.65 1509.42 1941.35 1421.4 1837.66 1325.83C1742.13 1237.82 1657.77 1139.14 1586.89 1032.5C1516.64 926.838 1458.24 811.801 1363.84 724.363C1269.4 636.925 1124.87 581.906 1003.16 630.075C930.758 658.727 877.023 720.046 846.416 788.101C815.809 856.155 805.976 930.911 801.841 1004.82C797.111 1089.42 798.128 1178.91 752.655 1251.89C705.56 1327.4 609.063 1372.79 516.37 1362.93C384.512 1348.93 290.507 1241.07 197.124 1152.13C78.4505 1039.12 -67.5483 943.049 -234.015 917.904C-400.483 892.76 -588.378 952.972 -671.596 1090.47" stroke="#8A8A8A" stroke-miterlimit="10"/>
<path d="M2660.42 1146.57C2567.34 1225.16 2468.87 1298.06 2365.95 1364.75C2320.19 1394.42 2272.38 1423.35 2218.3 1435.66C2109.66 1460.35 2001.7 1414.05 1910.37 1348.73C1885.49 1330.95 1861.82 1311.76 1839.74 1292.18C1744.71 1208.07 1660.36 1113.19 1588.97 1010.33C1518.26 908.449 1459.51 796.746 1365.65 711.948C1313.03 664.365 1246.72 625.55 1176.91 606.598C1116.1 590.114 1052.33 588.992 993.643 611.272C983.18 615.265 973.032 619.9 963.295 625.182C903.264 657.634 858.666 712.929 830.862 773.256C821.907 792.622 814.567 812.539 808.419 832.721C792.399 885.439 784.324 940.545 778.728 994.783C769.72 1080.87 763.649 1169.67 714.747 1241.73C666.197 1313.3 573.436 1357.59 482.882 1348.44C354.019 1335.39 261.183 1232.87 169.119 1149.08C161.843 1142.46 154.516 1135.93 147.042 1129.49C34.3441 1031.87 -100.34 952.448 -251.238 933.064C-412.137 912.399 -592.282 973.636 -671.235 1108.57" stroke="#909090" stroke-miterlimit="10"/>
<path d="M2650.69 1111.3C2559.28 1188.59 2462.26 1259.91 2360.69 1324.8C2315.58 1353.63 2268.38 1381.67 2215.27 1393.79C2108.52 1418.09 2002.34 1374.51 1912.01 1312.39C1887.34 1295.48 1863.88 1277.2 1841.87 1258.53C1747.33 1178.27 1663 1087.24 1591.14 988.163C1519.93 890.059 1460.68 781.729 1367.5 699.485C1312.65 651.06 1244.66 610.832 1172.98 590.372C1110.67 572.618 1044.73 570.384 984.127 592.511C973.281 596.445 962.796 601.114 952.672 606.474C890.37 639.302 844.61 696.321 815.306 758.407C805.901 778.301 798.063 798.743 791.419 819.407C774.012 873.389 763.88 929.647 755.661 984.748C742.377 1072.27 729.363 1160.35 676.932 1231.61C627.118 1299.3 537.949 1342.49 449.487 1333.99C323.621 1321.86 231.952 1224.7 141.206 1146.07C134.06 1139.86 126.816 1133.75 119.474 1127.67C8.53997 1036.25 -122.709 963.365 -268.366 948.178C-423.646 931.949 -596.092 994.3 -670.777 1126.57" stroke="#959595" stroke-miterlimit="10"/>
<path d="M2640.9 1076.08C2551.17 1152.11 2455.59 1221.85 2355.43 1284.89C2310.93 1312.88 2264.43 1340.04 2212.24 1351.96C2107.42 1375.87 2002.97 1335.02 1913.59 1276.14C1889.14 1260.09 1865.83 1242.73 1843.94 1224.96C1749.9 1148.57 1665.54 1061.37 1593.22 966.079C1521.59 871.668 1461.75 766.754 1369.36 687.023C1312.28 637.755 1242.69 596.118 1169.09 574.148C1105.24 555.122 1037.22 551.734 974.658 573.705C963.429 577.627 952.558 582.329 942.097 587.722C877.522 620.973 830.552 679.714 799.748 743.558C789.893 763.979 781.605 784.95 774.369 806.09C755.574 861.338 743.337 918.791 732.496 974.709C714.934 1063.72 695.126 1150.94 638.971 1221.49C588.18 1285.3 502.316 1327.38 415.948 1319.5C293.028 1308.32 202.576 1216.49 113.148 1143.01C106.086 1137.21 98.9717 1131.51 91.7604 1125.84C-17.4098 1040.63 -145.272 974.275 -285.637 963.242C-435.298 951.448 -600.093 1014.87 -670.462 1144.52" stroke="#9B9B9B" stroke-miterlimit="10"/>
<path d="M2631.17 1040.81C2543.16 1115.55 2448.98 1183.75 2350.18 1244.93C2306.28 1272.14 2260.43 1298.37 2209.21 1310.09C2106.33 1333.62 2003.67 1295.5 1915.19 1239.81C1890.99 1224.63 1867.85 1208.18 1846.02 1191.31C1752.48 1118.78 1668.14 1035.38 1595.35 943.913C1523.26 853.283 1462.78 751.873 1371.17 674.609C1311.81 624.542 1240.64 581.452 1165.12 557.926C1099.78 537.675 1029.63 533.132 965.101 554.947C953.536 558.858 942.281 563.547 931.433 569.018C864.588 602.645 816.407 663.109 784.151 728.713C773.845 749.707 765.059 771.203 757.326 792.825C737.144 849.337 722.85 907.943 709.338 964.721C687.499 1055.22 661.091 1141.54 601.066 1211.42C549.488 1271.45 466.692 1312.28 382.462 1305.1C262.538 1294.88 173.254 1208.38 85.1436 1140.09C78.2113 1134.71 71.1799 1129.41 64.0511 1124.16C-43.4032 1045.15 -167.783 985.328 -302.906 978.492C-446.998 971.178 -604.044 1035.67 -670.145 1162.66" stroke="#A0A0A0" stroke-miterlimit="10"/>
<path d="M2621.43 1005.6C2535.1 1079.08 2442.37 1145.7 2344.93 1205.03C2301.63 1231.39 2256.48 1256.74 2206.18 1268.27C2105.23 1291.46 2004.31 1256.01 1916.82 1203.52C1892.84 1189.25 1869.86 1173.66 1848.15 1157.71C1755.05 1089.03 1670.78 1009.48 1597.48 921.791C1524.93 834.898 1463.75 737.082 1373.02 662.152C1311.39 611.241 1238.63 566.697 1161.19 541.706C1094.3 520.183 1022.04 514.485 955.587 536.146C943.638 540.044 932.048 544.722 920.812 550.27C851.648 584.273 802.351 646.508 768.596 713.87C757.84 735.392 748.556 757.414 740.327 779.516C718.758 837.293 702.501 897.145 686.272 954.692C660.348 1046.68 627.291 1132.1 563.204 1201.3C511.075 1257.66 431.158 1297.18 349.021 1290.66C232.093 1281.35 143.978 1200.18 57.1838 1137.09C50.334 1132.11 43.4335 1127.23 36.4352 1122.39C-69.2537 1049.54 -190.2 996.294 -320.082 993.656C-458.555 990.776 -607.901 1056.34 -669.737 1180.76" stroke="#A6A6A6" stroke-miterlimit="10"/>
<path d="M2611.69 970.378C2527.03 1042.6 2435.75 1107.6 2339.67 1165.08C2297.02 1190.6 2252.48 1215.03 2203.1 1226.41C2104.08 1249.2 2004.9 1216.44 1918.36 1167.18C1894.64 1153.79 1871.82 1139.15 1850.17 1124.06C1757.62 1059.28 1673.36 983.573 1599.61 899.624C1526.6 816.468 1464.67 722.243 1374.87 649.694C1310.91 598.028 1236.57 551.985 1157.26 525.44C1088.83 502.646 1014.48 495.838 946.071 517.344C933.74 521.184 921.762 525.939 910.189 531.522C838.754 565.901 788.247 629.859 753.039 699.026C741.832 721.075 732.051 743.623 723.277 766.205C700.321 825.246 681.959 886.249 663.109 944.613C632.908 1038.08 593.539 1122.57 525.293 1191.14C472.804 1243.87 395.526 1282.03 315.53 1276.17C201.597 1267.82 114.651 1191.97 29.1753 1134.03C22.456 1129.47 15.639 1124.95 8.76966 1120.57C-95.1553 1053.92 -212.668 1007.26 -337.306 1008.77C-470.161 1010.33 -611.809 1077 -669.376 1198.77" stroke="#ABABAB" stroke-miterlimit="10"/>
<path d="M2601.96 935.102C2518.98 1006.03 2429.14 1069.49 2334.46 1125.12C2292.42 1149.85 2248.59 1173.35 2200.12 1184.53C2103.04 1206.94 2005.63 1176.9 1920 1130.89C1896.49 1118.35 1873.84 1104.63 1852.3 1090.44C1760.2 1029.48 1675.96 957.612 1601.74 877.445C1528.27 798.07 1465.55 707.48 1376.73 637.224C1310.39 584.802 1234.56 537.307 1153.33 509.207C1083.41 485.143 1006.89 477.178 936.511 498.529C923.844 502.357 911.483 507.1 899.523 512.76C825.816 547.561 774.146 613.243 737.439 684.124C725.783 706.7 715.55 729.821 706.232 752.882C681.888 813.188 661.469 875.388 639.949 934.567C605.47 1029.52 559.98 1113.13 487.337 1181.01C434.676 1230.25 359.898 1266.92 281.995 1261.66C171.012 1254.23 85.2318 1183.76 1.12297 1130.97C-5.51389 1126.82 -12.2003 1122.71 -18.9391 1118.73C-121.1 1058.29 -235.178 1018.16 -354.574 1023.87C-481.812 1029.91 -615.806 1097.61 -669.058 1216.76" stroke="#B1B1B1" stroke-miterlimit="10"/>
<path d="M2592.17 899.885C2510.87 969.556 2422.47 1031.44 2329.15 1085.21C2287.71 1109.1 2244.54 1131.72 2197.04 1142.71C2101.89 1164.73 2006.32 1137.28 1921.59 1094.6C1898.34 1082.89 1875.85 1070.12 1854.42 1056.84C1762.82 999.782 1678.59 931.713 1603.87 855.325C1529.93 779.687 1466.37 692.821 1378.59 624.769C1309.87 571.589 1232.55 522.599 1149.4 492.988C1077.93 467.698 999.337 458.58 926.996 479.729C913.945 483.545 901.199 488.275 888.901 494.014C812.923 529.192 760.043 596.597 721.883 669.283C709.777 692.386 699.046 716.033 689.184 739.573C663.454 801.099 640.927 864.54 616.786 924.536C578.029 1020.98 526.56 1103.8 449.428 1170.85C396.736 1216.66 324.318 1251.73 248.505 1247.18C140.517 1240.7 55.9055 1175.55 -26.8848 1127.92C-33.3912 1124.18 -39.995 1120.48 -46.6514 1116.91C-147.048 1062.68 -257.692 1029.08 -371.845 1038.99C-493.513 1049.46 -619.76 1118.27 -668.746 1234.81" stroke="#B7B7B7" stroke-miterlimit="10"/>
<path d="M2582.43 864.668C2502.85 933.041 2415.85 993.392 2323.89 1045.31C2283.06 1068.36 2240.58 1090.09 2194 1100.89C2100.79 1122.52 2006.96 1097.75 1923.18 1058.31C1900.14 1047.47 1877.81 1035.61 1856.5 1023.24C1765.39 970.036 1681.18 905.81 1605.99 833.204C1531.6 761.302 1467.19 678.16 1380.44 612.358C1309.34 558.421 1230.59 507.846 1145.52 476.77C1072.5 450.208 991.834 439.936 917.527 460.975C904.091 464.778 891.008 469.542 878.276 475.312C799.98 510.865 745.936 580.04 706.326 654.44C693.769 678.071 682.541 702.244 672.182 726.264C645.065 789.055 620.434 853.647 593.717 914.507C550.683 1012.43 493.423 1094.57 411.563 1160.74C358.981 1203.25 288.733 1236.63 215.061 1232.73C110.069 1227.17 26.6249 1167.4 -54.799 1124.92C-61.2229 1121.58 -67.6965 1118.3 -74.2223 1115.14C-172.855 1067.12 -280.064 1040.05 -388.974 1054.11C-505.024 1069.02 -623.571 1138.9 -668.241 1252.82" stroke="#BCBCBC" stroke-miterlimit="10"/>
<path d="M2572.7 829.408C2494.79 896.525 2409.24 955.252 2318.64 1005.36C2278.46 1027.58 2236.59 1048.43 2190.98 1059.03C2099.7 1080.27 2007.6 1058.23 1924.77 1022.03C1901.99 1012.05 1879.82 1001.1 1858.58 989.634C1767.97 940.293 1683.73 879.908 1608.08 811.084C1533.22 742.964 1467.87 663.588 1382.2 599.946C1308.72 545.297 1228.48 493.181 1141.54 460.551C1067.03 432.719 984.191 421.335 907.969 442.175C894.151 445.92 880.682 450.717 867.611 456.566C787.044 492.495 731.838 563.394 690.726 639.598C677.72 663.757 666.041 688.457 655.137 713.002C626.632 777.057 599.944 842.846 570.558 904.522C523.199 1003.89 460.335 1085.47 373.655 1150.67C321.372 1189.98 253.153 1221.57 181.574 1218.29C79.5781 1213.69 -2.69777 1159.24 -82.8047 1121.96C-89.1461 1119.04 -95.4891 1116.16 -101.884 1113.41C-198.754 1071.59 -302.528 1051.06 -406.196 1069.32C-516.628 1088.71 -627.475 1159.66 -667.877 1270.92" stroke="#C2C2C2" stroke-miterlimit="10"/>
<path d="M2562.96 794.184C2486.73 860.046 2402.62 917.193 2313.38 965.401C2273.8 986.824 2232.64 1006.7 2187.94 1017.15C2098.55 1038.01 2008.29 1018.69 1926.36 985.687C1903.79 976.575 1881.78 966.578 1860.65 955.977C1770.54 910.495 1686.31 853.953 1610.2 788.91C1534.89 724.527 1468.59 649.007 1384.05 587.482C1308.1 532.208 1226.47 478.464 1137.61 444.324C1061.56 415.22 976.639 402.683 898.45 423.412C884.296 427.146 870.444 431.93 856.986 437.857C774.146 474.207 717.73 546.829 675.119 624.792C661.663 649.478 649.485 674.749 638.037 699.728C608.145 765.048 579.351 832.033 547.344 894.481C495.709 995.333 427.381 1076.51 335.646 1140.55C283.705 1176.79 217.473 1206.42 147.985 1203.84C48.9843 1200.19 -32.1219 1151.03 -110.912 1118.94C-117.123 1116.43 -123.383 1113.96 -129.647 1111.58C-224.752 1075.97 -325.091 1061.97 -423.517 1084.43C-528.379 1108.25 -631.526 1180.27 -667.612 1288.91" stroke="#C7C7C7" stroke-miterlimit="10"/>
<path d="M2553.17 758.915C2478.62 823.476 2395.91 879.088 2308.13 925.445C2269.15 946.029 2228.64 965.026 2184.91 975.282C2097.46 995.794 2008.93 979.159 1928 949.35C1905.64 941.15 1883.84 932.018 1862.78 922.324C1773.11 880.698 1688.95 828.001 1612.33 766.738C1536.55 706.137 1469.31 634.473 1385.91 575.019C1307.47 519.121 1224.46 463.749 1133.63 428.052C1056.04 397.676 968.994 384.029 888.89 404.559C874.352 408.28 860.162 413.098 846.32 419.012C761.21 455.739 703.631 530.086 659.52 609.806C645.564 635.063 632.938 660.817 620.994 686.276C589.715 752.862 558.674 820.947 524.235 884.309C468.084 986.548 394.666 1067.65 297.789 1130.29C246.33 1163.57 181.895 1191.17 114.548 1189.26C18.4953 1186.52 -61.3958 1142.73 -138.867 1115.8C-144.996 1113.69 -151.126 1111.64 -157.306 1109.67C-250.696 1080.26 -347.554 1072.84 -440.736 1099.45C-539.98 1127.7 -635.428 1200.84 -667.248 1306.87" stroke="#CDCDCD" stroke-miterlimit="10"/>
<path d="M2543.43 723.694C2470.61 787.002 2389.3 840.987 2302.87 885.536C2264.5 905.282 2224.69 923.398 2181.88 933.458C2096.36 953.583 2009.57 939.672 1929.58 913.105C1907.44 905.77 1885.8 897.548 1864.86 888.761C1775.68 850.995 1691.54 802.094 1614.46 744.659C1538.22 687.749 1469.94 619.938 1387.76 562.604C1306.8 506.125 1222.45 449.036 1129.7 411.874C1050.61 380.273 961.443 365.425 879.374 385.8C864.454 389.463 849.879 394.313 835.698 400.306C748.269 437.409 689.528 513.479 643.963 595.005C629.558 620.79 616.433 647.069 603.945 673.008C571.278 740.858 538.18 810.141 501.071 874.318C440.645 977.997 362.083 1059.15 259.829 1120.22C208.898 1150.62 146.263 1176.11 81.0079 1174.85C-12.0494 1173.07 -90.7721 1134.61 -166.925 1112.83C-172.922 1111.09 -178.97 1109.49 -185.02 1107.93C-276.644 1084.69 -370.069 1083.85 -458.01 1114.65C-551.636 1147.39 -639.383 1221.55 -666.935 1324.96" stroke="#D2D2D2" stroke-miterlimit="10"/>
<path d="M2533.7 688.473C2462.54 750.525 2382.68 802.932 2297.61 845.627C2259.89 864.581 2220.69 881.768 2178.85 891.634C2095.26 911.371 2010.21 900.185 1931.17 876.813C1909.29 870.345 1887.81 863.033 1866.93 855.153C1778.26 821.29 1694.13 776.187 1616.54 722.532C1539.89 669.36 1470.61 605.494 1389.61 550.143C1306.13 493.083 1220.44 434.322 1125.77 395.65C1045.13 362.778 953.893 346.821 869.859 367.04C854.603 370.692 839.644 375.529 825.076 381.6C735.376 419.079 675.472 496.919 628.409 580.158C613.553 606.47 599.977 633.322 586.944 659.74C552.89 728.856 517.688 799.289 477.955 864.328C413.252 969.492 329.635 1050.98 221.967 1110.1C171.608 1137.76 110.729 1161.01 47.5678 1160.36C-42.4928 1159.5 -120.048 1126.41 -194.883 1109.78C-200.797 1108.45 -206.715 1107.26 -212.635 1106.11C-302.495 1089.07 -392.485 1094.76 -475.136 1129.76C-563.144 1166.94 -643.191 1242.21 -666.476 1342.96" stroke="#D8D8D8" stroke-miterlimit="10"/>
<path d="M2523.96 653.209C2454.49 713.961 2376.06 764.833 2292.36 805.675C2255.24 823.79 2216.69 840.094 2175.82 849.767C2094.17 869.116 2010.85 860.654 1932.81 840.48C1911.14 834.878 1889.82 828.52 1869.06 821.503C1780.88 791.499 1696.77 750.239 1618.72 700.365C1541.56 650.974 1471.23 591.05 1391.47 537.73C1305.4 480.177 1218.43 419.656 1121.89 379.43C1039.71 345.286 946.345 328.174 860.394 348.238C844.754 351.878 829.411 356.703 814.504 362.853C722.532 400.753 661.418 480.271 612.902 565.315C597.597 592.155 583.523 619.533 569.993 646.431C534.554 716.766 497.292 788.442 454.938 854.298C385.958 960.903 297.467 1043.04 184.202 1099.99C134.411 1125 75.2442 1145.87 14.222 1145.92C-72.8434 1146.01 -149.231 1118.25 -222.747 1106.77C-228.53 1105.86 -234.366 1105.08 -240.203 1104.34C-328.299 1093.5 -414.854 1105.73 -492.262 1144.88C-574.699 1186.49 -647.047 1262.83 -666.016 1360.97" stroke="#DEDEDE" stroke-miterlimit="10"/>
<path d="M2514.17 617.987C2446.37 677.484 2369.4 726.777 2287.05 765.72C2250.54 782.996 2212.69 798.375 2172.74 807.897C2093.02 826.858 2011.44 821.121 1934.35 804.188C1912.89 799.452 1891.78 794.005 1871.09 787.894C1783.4 761.749 1699.31 724.332 1620.75 678.193C1543.13 632.583 1471.71 576.602 1393.23 525.267C1304.58 467.267 1216.32 404.941 1117.86 363.204C1034.19 327.79 938.697 309.568 850.782 329.477C834.758 333.103 819.077 337.962 803.785 344.145C709.542 382.422 647.217 463.708 597.249 550.511C581.493 577.879 566.922 605.783 552.848 633.161C516.021 704.76 476.655 777.587 431.679 844.26C358.422 952.35 265.093 1035.45 146.147 1089.86C96.968 1112.37 39.5172 1130.76 -19.4128 1131.47C-103.483 1132.52 -178.748 1110.04 -250.899 1103.76C-256.6 1103.25 -262.304 1102.84 -268.012 1102.56C-354.344 1097.93 -437.513 1116.69 -509.63 1160.04C-586.45 1206.13 -651.098 1283.54 -665.8 1379.06" stroke="#E3E3E3" stroke-miterlimit="10"/>
<path d="M2504.44 582.724C2438.37 640.922 2362.79 688.634 2281.84 725.771C2245.93 742.253 2208.75 756.704 2169.76 766.032C2091.98 784.605 2012.13 781.593 1935.99 767.855C1914.79 764.033 1893.8 759.448 1873.26 754.246C1786.08 731.96 1702 698.386 1622.98 656.029C1544.9 614.156 1472.43 562.207 1395.18 512.767C1303.91 454.364 1214.41 390.143 1114.04 346.896C1028.82 310.21 931.201 290.832 841.369 310.587C825.01 314.158 808.896 319.047 793.265 325.309C696.703 363.962 633.264 446.973 581.796 535.535C565.59 563.43 550.567 591.906 535.949 619.764C497.735 692.628 456.263 766.65 408.665 834.141C331.131 943.716 233.096 1028.2 108.386 1079.66C59.769 1099.7 4.03534 1115.57 -52.7544 1116.94C-133.876 1118.9 -207.926 1101.8 -278.76 1100.71C-284.331 1100.62 -289.952 1100.61 -295.53 1100.74C-380.098 1102.32 -459.832 1127.61 -526.707 1175.16C-597.909 1225.68 -654.856 1304.16 -665.291 1397.07" stroke="#E9E9E9" stroke-miterlimit="10"/>
<path d="M2494.7 547.508C2430.3 604.451 2356.17 650.584 2276.59 685.867C2241.33 701.512 2204.79 715.081 2166.73 724.214C2090.88 742.444 2012.76 742.292 1937.58 731.57C1916.59 728.658 1895.81 724.939 1875.34 720.644C1788.6 702.214 1704.54 672.483 1625.06 633.908C1546.56 595.773 1472.96 547.9 1396.94 500.354C1302.99 441.59 1212.31 375.477 1110.01 330.72C1023.29 292.809 923.553 272.276 831.758 291.83C815.015 295.388 798.565 300.266 782.547 306.605C683.713 345.68 619.063 430.414 566.143 520.736C549.488 549.158 533.967 578.161 518.804 606.497C479.203 680.626 435.675 755.801 385.454 824.153C303.596 935.167 200.937 1021.44 70.3785 1069.59C22.3197 1087.3 -31.6424 1100.47 -86.3398 1102.49C-164.466 1105.41 -237.348 1093.64 -306.864 1097.7C-312.352 1098.02 -317.842 1098.42 -323.29 1098.97C-406.094 1106.75 -482.394 1138.62 -544.026 1190.32C-609.659 1245.32 -658.858 1324.87 -665.025 1415.12" stroke="#EEEEEE" stroke-miterlimit="10"/>
<path d="M2484.96 512.283C2422.24 567.97 2349.55 612.523 2271.33 645.954C2236.67 660.76 2200.79 673.446 2163.69 682.385C2089.73 700.226 2013.39 702.8 1939.22 695.32C1918.43 693.274 1897.86 690.467 1877.46 687.077C1791.22 672.552 1707.18 646.618 1627.23 611.825C1548.23 577.38 1473.53 533.584 1398.84 487.936C1302.2 428.902 1210.34 360.805 1106.12 314.493C1017.86 275.311 916.05 253.624 822.288 273.068C805.161 276.613 788.374 281.525 771.97 287.896C670.866 327.347 605.053 413.806 550.634 505.886C533.529 534.836 517.51 564.364 501.851 593.181C460.862 668.576 415.228 744.946 362.386 814.115C276.249 926.614 168.952 1015.13 32.562 1059.47C-14.9899 1074.93 -67.1314 1085.36 -119.737 1088.04C-194.866 1091.88 -266.581 1085.47 -334.73 1094.69C-340.087 1095.42 -345.496 1096.23 -350.859 1097.14C-431.948 1111.13 -504.765 1149.53 -561.155 1205.43C-621.17 1264.87 -662.716 1345.49 -664.568 1433.12" stroke="#F4F4F4" stroke-miterlimit="10"/>
<path d="M2475.18 477.019C2414.13 531.406 2342.89 574.425 2266.03 605.956C2231.98 619.924 2196.8 631.729 2160.62 640.473C2088.59 657.926 2013.99 663.225 1940.76 658.941C1920.24 657.762 1899.78 655.908 1879.49 653.381C1793.75 642.714 1709.72 620.623 1629.27 589.61C1549.85 558.993 1474.05 519.275 1400.6 475.476C1301.23 416.216 1208.24 346.092 1102.1 298.27C1012.3 257.816 908.358 235.018 812.681 254.263C795.218 257.797 777.999 262.695 761.256 269.146C657.881 308.973 590.857 397.2 534.938 491.039C517.383 520.516 500.866 550.57 484.708 579.913C442.332 656.572 394.593 734.138 339.129 804.125C248.717 918.064 136.765 1009.27 -5.48898 1049.35C-52.6315 1062.61 -102.903 1070.25 -153.368 1073.6C-225.502 1078.39 -296.048 1077.31 -362.879 1091.68C-368.154 1092.82 -373.432 1094.04 -378.665 1095.36C-457.989 1115.56 -527.372 1160.49 -578.52 1220.59C-632.916 1284.46 -666.764 1366.19 -664.349 1451.21" stroke="#F9F9F9" stroke-miterlimit="10"/>
<path d="M2465.44 441.799C2327.53 565.236 2133.1 625.456 1942.4 622.697C1751.69 619.892 1565.03 557.598 1402.5 463.063C1300.35 403.665 1206.27 331.381 1098.27 282.05C990.26 232.719 861.633 208.199 750.682 250.442C611.8 303.285 537.669 442.039 467.757 566.603C352.705 771.486 195.61 982.162 -43.3031 1039.23C-162.299 1067.65 -290.865 1054.34 -406.233 1093.59C-566.26 1147.99 -676.889 1309.35 -663.842 1469.22" stroke="white" stroke-miterlimit="10"/>
</g>
</g>
</g>
<path d="M1617.64 352.983L1616 316H1619.84L1618.2 352.983H1617.64Z" fill="#10B981"/>
<path d="M1615.51 353.409L1602.52 318.742L1606.17 317.556L1616.04 353.237L1615.51 353.409Z" fill="#10B981"/>
<path d="M1613.62 354.471L1590.55 325.516L1593.66 323.26L1614.07 354.145L1613.62 354.471Z" fill="#10B981"/>
<path d="M1612.15 356.067L1581.26 335.658L1583.52 332.553L1612.47 355.62L1612.15 356.067Z" fill="#10B981"/>
<path d="M1611.24 358.039L1575.56 348.173L1576.74 344.522L1611.41 357.512L1611.24 358.039Z" fill="#10B981"/>
<path d="M1610.98 360.198L1574 361.84V358.001L1610.98 359.643V360.198Z" fill="#10B981"/>
<path d="M1611.41 362.327L1576.74 375.318L1575.56 371.667L1611.24 361.8L1611.41 362.327Z" fill="#10B981"/>
<path d="M1612.47 364.221L1583.52 387.288L1581.26 384.183L1612.15 363.773L1612.47 364.221Z" fill="#10B981"/>
<path d="M1614.07 365.695L1593.66 396.581L1590.55 394.325L1613.62 365.37L1614.07 365.695Z" fill="#10B981"/>
<path d="M1616.04 366.603L1606.17 402.284L1602.52 401.098L1615.51 366.432L1616.04 366.603Z" fill="#10B981"/>
<path d="M1618.2 366.857L1619.84 403.841H1616L1617.64 366.857H1618.2Z" fill="#10B981"/>
<path d="M1620.33 366.432L1633.32 401.098L1629.67 402.284L1619.8 366.603L1620.33 366.432Z" fill="#10B981"/>
<path d="M1622.22 365.37L1645.29 394.325L1642.18 396.581L1621.77 365.695L1622.22 365.37Z" fill="#10B981"/>
<path d="M1623.69 363.773L1654.58 384.183L1652.32 387.288L1623.37 364.221L1623.69 363.773Z" fill="#10B981"/>
<path d="M1624.6 361.8L1660.28 371.667L1659.1 375.318L1624.43 362.327L1624.6 361.8Z" fill="#10B981"/>
<path d="M1624.86 359.643L1661.84 358.001V361.84L1624.86 360.198V359.643Z" fill="#10B981"/>
<path d="M1624.43 357.512L1659.1 344.522L1660.28 348.173L1624.6 358.039L1624.43 357.512Z" fill="#10B981"/>
<path d="M1623.37 355.62L1652.32 332.553L1654.58 335.658L1623.69 356.067L1623.37 355.62Z" fill="#10B981"/>
<path d="M1621.77 354.145L1642.18 323.26L1645.29 325.516L1622.22 354.471L1621.77 354.145Z" fill="#10B981"/>
<path d="M1619.8 353.237L1629.67 317.556L1633.32 318.742L1620.33 353.409L1619.8 353.237Z" fill="#10B981"/>
<rect width="172.174" height="14.6558" transform="matrix(-0.863326 -0.504647 -0.504647 0.863326 134.038 208.887)" fill="url(#paint0_linear_490_443)"/>
<rect width="172.174" height="14.6558" transform="matrix(-0.863326 -0.504647 -0.504647 0.863326 134.038 248.887)" fill="url(#paint1_linear_490_443)"/>
<rect width="172.174" height="14.6558" transform="matrix(-0.863326 -0.504647 -0.504647 0.863326 134.038 288.887)" fill="url(#paint2_linear_490_443)"/>
<rect width="172.174" height="14.6558" transform="matrix(-0.863326 -0.504647 -0.504647 0.863326 134.038 328.887)" fill="url(#paint3_linear_490_443)"/>
<rect width="172.174" height="14.6558" transform="matrix(-0.863326 -0.504647 -0.504647 0.863326 134.038 368.887)" fill="url(#paint4_linear_490_443)"/>
<rect width="172.174" height="14.6558" transform="matrix(-0.863326 -0.504647 -0.504647 0.863326 134.038 408.887)" fill="url(#paint5_linear_490_443)"/>
<defs>
<filter id="filter0_f_490_443" x="-23" y="-177" width="1965" height="1978" filterUnits="userSpaceOnUse" color-interpolation-filters="sRGB">
<feFlood flood-opacity="0" result="BackgroundImageFix"/>
<feBlend mode="normal" in="SourceGraphic" in2="BackgroundImageFix" result="shape"/>
<feGaussianBlur stdDeviation="350" result="effect1_foregroundBlur_490_443"/>
</filter>
<linearGradient id="paint0_linear_490_443" x1="0" y1="7.32791" x2="172.174" y2="7.32791" gradientUnits="userSpaceOnUse">
<stop offset="0.135" stop-color="#10B981" stop-opacity="0"/>
<stop offset="0.65" stop-color="#0D9468" stop-opacity="0.179191"/>
<stop offset="1" stop-color="#07533A" stop-opacity="0.5"/>
</linearGradient>
<linearGradient id="paint1_linear_490_443" x1="0" y1="7.32791" x2="172.174" y2="7.32791" gradientUnits="userSpaceOnUse">
<stop offset="0.135" stop-color="#10B981" stop-opacity="0"/>
<stop offset="0.65" stop-color="#0D9468" stop-opacity="0.179191"/>
<stop offset="1" stop-color="#07533A" stop-opacity="0.5"/>
</linearGradient>
<linearGradient id="paint2_linear_490_443" x1="0" y1="7.32791" x2="172.174" y2="7.32791" gradientUnits="userSpaceOnUse">
<stop offset="0.135" stop-color="#10B981" stop-opacity="0"/>
<stop offset="0.65" stop-color="#0D9468" stop-opacity="0.179191"/>
<stop offset="1" stop-color="#07533A" stop-opacity="0.5"/>
</linearGradient>
<linearGradient id="paint3_linear_490_443" x1="0" y1="7.32791" x2="172.174" y2="7.32791" gradientUnits="userSpaceOnUse">
<stop offset="0.135" stop-color="#10B981" stop-opacity="0"/>
<stop offset="0.65" stop-color="#0D9468" stop-opacity="0.179191"/>
<stop offset="1" stop-color="#07533A" stop-opacity="0.5"/>
</linearGradient>
<linearGradient id="paint4_linear_490_443" x1="0" y1="7.32791" x2="172.174" y2="7.32791" gradientUnits="userSpaceOnUse">
<stop offset="0.135" stop-color="#10B981" stop-opacity="0"/>
<stop offset="0.65" stop-color="#0D9468" stop-opacity="0.179191"/>
<stop offset="1" stop-color="#07533A" stop-opacity="0.5"/>
</linearGradient>
<linearGradient id="paint5_linear_490_443" x1="0" y1="7.32791" x2="172.174" y2="7.32791" gradientUnits="userSpaceOnUse">
<stop offset="0.135" stop-color="#10B981" stop-opacity="0"/>
<stop offset="0.65" stop-color="#0D9468" stop-opacity="0.179191"/>
<stop offset="1" stop-color="#07533A" stop-opacity="0.5"/>
</linearGradient>
</defs>
</svg>
