<svg width="55" height="40" viewBox="0 0 55 40" fill="none" xmlns="http://www.w3.org/2000/svg">
<path d="M29.2087 37.0681L32.8069 40C46.3529 32.4607 52.7026 23.8743 54.3958 14.2408C55.6658 6.28273 52.4909 0 44.448 0C38.7332 0 33.2302 3.76963 31.9602 10.0524C30.902 17.3822 35.1351 21.7801 40.4265 22.8272C38.3099 29.9476 29.4204 37.0681 29.2087 37.0681ZM11.0062 23.2461C8.678 30.1571 0.211735 37.0681 7.62939e-05 37.0681L3.59824 40C17.1443 32.4607 23.494 23.8743 25.1872 14.2408C26.4572 6.28273 23.2823 0 15.2394 0C9.52463 0 4.02155 3.76963 2.96327 10.0524C1.69333 17.3822 5.71481 22.1989 11.0062 23.2461Z" fill="white"/>
</svg>
