<svg width="121" height="48" viewBox="0 0 121 48" fill="none" xmlns="http://www.w3.org/2000/svg">
<g id="Company logo">
<path id="Vector" d="M37.9251 32.4265L39.3932 28.995C41.0006 30.1854 43.0973 30.8155 45.1945 30.8155C46.7323 30.8155 47.7107 30.2205 47.7107 29.3103C47.6756 26.7891 38.4494 28.7499 38.3792 22.4113C38.3441 19.1898 41.2102 16.7037 45.2646 16.7037C47.6756 16.7037 50.0875 17.2992 51.7997 18.665L50.4279 22.1697C48.8525 21.1567 46.9067 20.4504 45.0546 20.4504C43.7965 20.4504 42.9575 21.0454 42.9575 21.8163C42.9925 24.3024 52.2895 22.9366 52.3942 28.995C52.3942 32.2866 49.5978 34.5978 45.6135 34.5978C42.6783 34.5978 39.9871 33.8976 37.9246 32.4265H37.9251ZM96.3831 27.7524C96.0125 28.4109 95.4735 28.9589 94.8212 29.3403C94.169 29.7217 93.427 29.9227 92.6715 29.9228C90.3167 29.9228 88.4079 28.0101 88.4079 25.6508C88.4079 23.2914 90.3167 21.3787 92.6715 21.3787C93.427 21.3788 94.169 21.5798 94.8212 21.9612C95.4735 22.3426 96.0125 22.8906 96.3831 23.5491L100.465 21.2835C98.9359 18.5513 96.0197 16.7037 92.6715 16.7037C87.7398 16.7037 83.742 20.7091 83.742 25.6508C83.742 30.5919 87.7398 34.5978 92.6715 34.5978C96.0197 34.5978 98.9359 32.7502 100.465 30.018L96.3831 27.7524ZM55.0427 34.2474H60.1453V9.25586H55.0432L55.0427 34.2474ZM103.042 9.25586V34.2474H108.144V26.76L114.19 34.2474H120.713L113.024 25.3525L120.153 17.0526H113.911L108.144 23.9531V9.25586H103.042ZM75.8655 17.0536V19.0851C75.027 17.6841 72.9649 16.7037 70.7981 16.7037C66.3245 16.7037 62.7948 20.661 62.7948 25.6332C62.7948 30.6055 66.3245 34.5978 70.7981 34.5978C72.9649 34.5978 75.027 33.6174 75.8655 32.2164V34.2474H80.9681V17.0536H75.8655ZM75.8655 27.787C75.1317 29.0125 73.5939 29.9223 71.8817 29.9223C69.5264 29.9223 67.6177 28.0101 67.6177 25.6508C67.6177 23.2914 69.5264 21.3787 71.8817 21.3787C73.5939 21.3787 75.1317 22.3241 75.8655 23.5842V27.787Z" fill="#1C2539"/>
<path id="Vector_2" d="M10.9783 8.70312C9.32472 8.70312 7.98442 10.0464 7.98442 11.703C7.98402 12.0966 8.06115 12.4864 8.21139 12.8501C8.36163 13.2139 8.58205 13.5444 8.86006 13.823C9.13806 14.1016 9.46822 14.3227 9.83166 14.4736C10.1951 14.6246 10.5847 14.7025 10.9783 14.7029H13.9727V11.703C13.9733 10.9081 13.6582 10.1456 13.0967 9.58299C12.5352 9.02041 11.7732 8.70392 10.9783 8.70312ZM10.9783 16.7028H2.99412C1.34055 16.7028 0.000244141 18.0461 0.000244141 19.7032C0.000244141 21.3598 1.34055 22.7031 2.99412 22.7031H10.9788C12.6319 22.7031 13.9727 21.3598 13.9727 19.7032C13.9727 18.0461 12.6319 16.7028 10.9783 16.7028Z" fill="#36C5F0"/>
<path id="Vector_3" d="M29.9412 19.7032C29.9412 18.0461 28.6004 16.7028 26.9468 16.7028C25.2932 16.7028 23.9529 18.0461 23.9529 19.7032V22.7031H26.9468C27.7417 22.7023 28.5037 22.3858 29.0652 21.8233C29.6268 21.2607 29.9418 20.4981 29.9412 19.7032ZM21.957 19.7032V11.703C21.9577 10.9081 21.6426 10.1456 21.081 9.58299C20.5195 9.02041 19.7575 8.70392 18.9626 8.70312C17.3091 8.70312 15.9688 10.0464 15.9688 11.703V19.7027C15.9688 21.3603 17.3091 22.7036 18.9626 22.7036C19.7575 22.7028 20.5195 22.3863 21.081 21.8238C21.6426 21.2612 21.9577 20.4986 21.957 19.7037" fill="#2EB67D"/>
<path id="Vector_4" d="M18.9626 38.7031C19.7575 38.7023 20.5195 38.3858 21.081 37.8233C21.6426 37.2607 21.9577 36.4981 21.957 35.7032C21.9577 34.9084 21.6426 34.1458 21.081 33.5832C20.5195 33.0206 19.7575 32.7041 18.9626 32.7033H15.9688V35.7032C15.9688 37.3598 17.3091 38.7031 18.9626 38.7031ZM18.9626 30.7034H26.9473C28.6004 30.7034 29.9412 29.3601 29.9412 27.703C29.9418 26.9081 29.6268 26.1456 29.0652 25.583C28.5037 25.0204 27.7417 24.7039 26.9468 24.7031H18.9626C17.3091 24.7031 15.9688 26.0464 15.9688 27.703C15.9684 28.0966 16.0455 28.4864 16.1957 28.8501C16.346 29.2139 16.5664 29.5444 16.8444 29.823C17.1224 30.1016 17.4526 30.3227 17.816 30.4736C18.1794 30.6246 18.5691 30.7025 18.9626 30.7029" fill="#ECB22E"/>
<path id="Vector_5" d="M1.51064e-06 27.703C-0.000393626 28.0966 0.0767319 28.4864 0.226974 28.8501C0.377217 29.2139 0.597634 29.5444 0.875642 29.823C1.15365 30.1016 1.4838 30.3227 1.84725 30.4736C2.2107 30.6246 2.60032 30.7025 2.99388 30.7029C3.78875 30.7021 4.55075 30.3856 5.11229 29.823C5.67383 29.2605 5.98892 28.4979 5.98826 27.703V24.7031H2.99388C1.3403 24.7031 1.51064e-06 26.0464 1.51064e-06 27.703ZM7.98417 27.703V35.7027C7.98417 37.3598 9.32448 38.7031 10.9781 38.7031C11.7729 38.7023 12.5349 38.3858 13.0965 37.8233C13.658 37.2607 13.9731 36.4981 13.9724 35.7032V27.703C13.9728 27.3094 13.8957 26.9196 13.7454 26.5558C13.5951 26.192 13.3747 25.8614 13.0966 25.5828C12.8186 25.3043 12.4883 25.0832 12.1248 24.9323C11.7613 24.7813 11.3716 24.7035 10.9781 24.7031C9.32448 24.7031 7.98417 26.0464 7.98417 27.703Z" fill="#E01E5A"/>
</g>
</svg>
