<svg width="168" height="48" viewBox="0 0 168 48" fill="none" xmlns="http://www.w3.org/2000/svg">
<g id="Company logo">
<path id="Vector" fill-rule="evenodd" clip-rule="evenodd" d="M44.6462 10.1055L30.4001 37.9549H17.0191L22.981 26.4129H22.7136C17.795 32.7978 10.4564 37.0011 0 37.9549V26.5727C0 26.5727 6.6892 26.1776 10.6216 22.0432H0V10.1057H11.9375V19.9241L12.2055 19.923L17.0836 10.1057H26.1116V19.8619L26.3796 19.8614L31.4406 10.1055H44.6462Z" fill="#1C2539"/>
<g id="Vector_2">
<path d="M122.331 34.8804H126.175V12.8125H122.331V34.8804Z" fill="#1C2539"/>
<path fill-rule="evenodd" clip-rule="evenodd" d="M101.136 34.655C101.972 35.0025 102.821 35.176 103.685 35.176C105.112 35.176 106.389 34.8287 107.516 34.134C108.642 33.4393 109.515 32.4815 110.135 31.2611C110.755 30.0311 111.064 28.637 111.064 27.0785C111.064 25.5199 110.745 24.1257 110.107 22.8958C109.468 21.6659 108.581 20.713 107.445 20.037C106.309 19.3516 105.018 19.0137 103.572 19.023C102.652 19.023 101.77 19.2014 100.925 19.5582C100.08 19.915 99.3757 20.4219 98.8123 21.0791C98.7688 21.1292 98.7266 21.1797 98.6856 21.2308V12.8266H94.8269V34.8804H98.6575L98.6497 32.8202C98.7489 32.9416 98.8547 33.0602 98.9673 33.1763C99.5776 33.8054 100.3 34.2983 101.136 34.655ZM105.079 31.092C104.45 31.4769 103.732 31.6695 102.925 31.6695C102.127 31.6695 101.394 31.4723 100.728 31.078C100.061 30.6742 99.5306 30.125 99.1362 29.4303C98.7514 28.7356 98.5589 27.9469 98.5589 27.0644C98.5495 26.1818 98.7373 25.3932 99.1222 24.6984C99.5165 23.9943 100.047 23.4498 100.714 23.0648C101.38 22.6705 102.117 22.478 102.925 22.4874C103.732 22.478 104.45 22.6658 105.079 23.0507C105.718 23.4263 106.206 23.9661 106.544 24.6703C106.891 25.365 107.065 26.1631 107.065 27.0644C107.065 27.9656 106.891 28.7637 106.544 29.4585C106.206 30.1532 105.718 30.6977 105.079 31.092Z" fill="#1C2539"/>
<path d="M50.2161 14.1504H54.6099L58.5404 28.5046L62.7217 14.1504H66.3832L70.918 28.2166L74.6921 14.1504H78.7198L72.7768 34.8804H68.9884L64.3774 21.1388L60.1445 34.8804H56.3139L50.2161 14.1504Z" fill="#1C2539"/>
<path fill-rule="evenodd" clip-rule="evenodd" d="M85.2083 35.2466C83.6779 35.2558 82.2979 34.9178 81.0679 34.2325C79.8475 33.5378 78.8851 32.5754 78.181 31.3456C77.4862 30.1156 77.1388 28.712 77.1388 27.1348C77.1388 25.6045 77.4956 24.2196 78.2091 22.9803C78.9226 21.741 79.8897 20.774 81.1101 20.0793C82.3307 19.3845 83.692 19.0371 85.1943 19.0371C86.8842 19.0371 88.3629 19.4127 89.6303 20.1638C90.9072 20.9148 91.8601 21.9804 92.4891 23.3606C93.1275 24.7313 93.3576 26.3039 93.1792 28.0783H81.1162C81.1499 28.7852 81.3262 29.4284 81.6454 30.0076C82.0021 30.6461 82.4998 31.1437 83.138 31.5004C83.7765 31.8572 84.4901 32.0355 85.2787 32.0355C85.8796 32.0263 86.4382 31.9229 86.9545 31.7258C87.4709 31.5193 87.9075 31.2423 88.2644 30.895C88.6304 30.5475 88.8886 30.1532 89.0388 29.712H93.0666C92.8225 30.7916 92.3343 31.754 91.6019 32.5989C90.8696 33.4345 89.9495 34.087 88.8417 34.5565C87.7337 35.0258 86.5226 35.2558 85.2083 35.2466ZM81.6594 24.2055C81.4344 24.5979 81.2786 25.0204 81.1918 25.473H89.188C89.13 24.9012 88.9535 24.3801 88.6585 23.9098C88.3207 23.3559 87.8606 22.9287 87.2785 22.6283C86.6964 22.3184 86.0392 22.1635 85.3069 22.1635C84.5277 22.1635 83.8189 22.3419 83.1804 22.6987C82.542 23.0554 82.0349 23.5577 81.6594 24.2055Z" fill="#1C2539"/>
<path d="M113.895 19.361C113.895 18.103 114.182 16.9857 114.754 16.0093C115.327 15.0235 116.13 14.2583 117.162 13.7138C118.204 13.1599 119.42 12.8735 120.81 12.8547V16.2769C120.162 16.2863 119.608 16.4224 119.148 16.6853C118.697 16.9388 118.35 17.3096 118.106 17.7978C117.881 18.2473 117.76 18.7683 117.742 19.361H120.725V22.6142H117.74V34.8804H113.895V22.6142H111.416V19.361H113.895Z" fill="#1C2539"/>
<path fill-rule="evenodd" clip-rule="evenodd" d="M135.949 35.2184C134.381 35.2184 132.977 34.8756 131.738 34.1903C130.508 33.4956 129.541 32.5378 128.837 31.3174C128.142 30.0874 127.795 28.6933 127.795 27.1348C127.795 25.5669 128.142 24.168 128.837 22.9381C129.541 21.6988 130.508 20.7365 131.738 20.0511C132.977 19.3657 134.381 19.023 135.949 19.023C137.526 19.023 138.934 19.3657 140.174 20.0511C141.422 20.7365 142.394 21.6941 143.089 22.924C143.783 24.1539 144.136 25.5575 144.145 27.1348C144.136 28.6933 143.783 30.0874 143.089 31.3174C142.403 32.5378 141.436 33.4956 140.188 34.1903C138.939 34.8756 137.526 35.2184 135.949 35.2184ZM135.949 31.6836C136.775 31.6836 137.507 31.4958 138.146 31.1202C138.784 30.7353 139.277 30.2001 139.624 29.5148C139.972 28.82 140.145 28.0267 140.145 27.1348C140.145 26.2335 139.972 25.4354 139.624 24.7407C139.277 24.0459 138.784 23.5108 138.146 23.1352C137.507 22.7503 136.775 22.5578 135.949 22.5578C135.132 22.5578 134.404 22.7503 133.766 23.1352C133.137 23.5108 132.649 24.0459 132.301 24.7407C131.954 25.4354 131.785 26.2335 131.794 27.1348C131.794 28.0267 131.968 28.82 132.315 29.5148C132.672 30.2001 133.16 30.7353 133.78 31.1202C134.409 31.4958 135.132 31.6836 135.949 31.6836Z" fill="#1C2539"/>
<path d="M148.299 19.361H144.018L148.651 34.8804H152.398L155.445 24.9682L158.735 34.8804H162.425L167.072 19.361H163.2L160.564 29.0208L157.651 19.361H153.904L151.005 29.2337L148.299 19.361Z" fill="#1C2539"/>
</g>
</g>
</svg>
