<svg width="14" height="19" viewBox="0 0 14 19" fill="none" xmlns="http://www.w3.org/2000/svg">
<path d="M6.75 0.25C10.4414 0.25 13.5 3.27344 13.5 7C13.5 9.53125 12.6562 10.3047 8.15625 17.4766C7.48828 18.5312 5.97656 18.5312 5.30859 17.4766C0.808594 10.3047 0 9.53125 0 7C0 3.30859 2.98828 0.25 6.75 0.25ZM6.75 16.5625C11.25 9.32031 11.8125 8.93359 11.8125 7C11.8125 4.22266 9.52734 1.9375 6.75 1.9375C3.9375 1.9375 1.6875 4.22266 1.6875 7C1.6875 8.93359 2.25 9.39062 6.75 16.5625ZM3.9375 7C3.9375 5.45312 5.16797 4.1875 6.75 4.1875C8.29688 4.1875 9.5625 5.45312 9.5625 7C9.5625 8.58203 8.29688 9.8125 6.75 9.8125C5.16797 9.8125 3.9375 8.58203 3.9375 7Z" fill="white"/>
</svg>
