<svg width="12" height="16" viewBox="0 0 12 16" fill="none" xmlns="http://www.w3.org/2000/svg">
<path d="M6.375 0.21875C9.3125 0.21875 12 2.25 12 5.34375C12 8.25 10.5 11.5 7.1875 11.5C6.375 11.5 5.40625 11.0938 5 10.375C4.3125 13.1875 4.34375 13.625 2.78125 15.7812C2.625 15.8438 2.65625 15.8438 2.5625 15.7188C2.5 15.125 2.4375 14.5625 2.4375 13.9688C2.4375 12.0625 3.3125 9.28125 3.75 7.4375C3.5 6.9375 3.4375 6.375 3.4375 5.84375C3.4375 3.34375 6.375 2.96875 6.375 5.03125C6.375 6.25 5.53125 7.40625 5.53125 8.59375C5.53125 9.375 6.21875 9.9375 7 9.9375C9.15625 9.9375 9.8125 6.84375 9.8125 5.1875C9.8125 2.96875 8.25 1.75 6.09375 1.75C3.625 1.75 1.71875 3.53125 1.71875 6.03125C1.71875 7.25 2.46875 7.875 2.46875 8.15625C2.46875 8.40625 2.28125 9.25 1.96875 9.25C1.21875 9.25 0 8 0 5.8125C0 2.34375 3.15625 0.21875 6.375 0.21875Z" fill="white"/>
</svg>
