<svg width="48" height="48" viewBox="0 0 48 48" fill="none" xmlns="http://www.w3.org/2000/svg">
<g id="Frame" clip-path="url(#clip0_1_2077)">
<g id="SVGRepo_iconCarrier">
<g id="Group">
<path id="Vector" d="M9.62886 27.3633H6.18689C4.72016 27.3633 3.52686 28.5566 3.52686 30.0235V45.3408C3.52686 46.8075 4.72016 48.001 6.18689 48.001H9.62886C11.0956 48.001 12.2891 46.8077 12.2891 45.3408V30.0235C12.2891 28.5566 11.0956 27.3633 9.62886 27.3633ZM9.84046 45.3408C9.84046 45.4575 9.74557 45.5524 9.62886 45.5524H6.18689C6.07038 45.5524 5.97549 45.4575 5.97549 45.3408V30.0235C5.97549 29.9068 6.07038 29.8119 6.18689 29.8119H9.62886C9.74557 29.8119 9.84046 29.9068 9.84046 30.0235V45.3408Z" fill="#10B981"/>
<path id="Vector_2" d="M20.2545 32.8069H16.8126C15.3458 32.8069 14.1523 34.0002 14.1523 35.4671V45.3396C14.1523 46.8064 15.3458 47.9999 16.8126 47.9999H20.2545C21.7213 47.9999 22.9146 46.8066 22.9146 45.3396V35.4671C22.9146 34.0002 21.7215 32.8069 20.2545 32.8069ZM20.4659 45.3396C20.4659 45.4563 20.3711 45.5512 20.2545 45.5512H16.8126C16.6959 45.5512 16.601 45.4563 16.601 45.3396V35.4671C16.601 35.3504 16.6959 35.2555 16.8126 35.2555H20.2545C20.3711 35.2555 20.4659 35.3504 20.4659 35.4671V45.3396Z" fill="#10B981"/>
<path id="Vector_3" d="M30.88 32.1182H27.4381C25.9713 32.1182 24.7778 33.3115 24.7778 34.7784V45.3404C24.7778 46.8071 25.9713 48.0006 27.4381 48.0006H30.88C32.3468 48.0006 33.5401 46.8073 33.5401 45.3404V34.7784C33.5401 33.3117 32.3468 32.1182 30.88 32.1182ZM31.0914 45.3404C31.0914 45.4571 30.9965 45.552 30.88 45.552H27.4381C27.3214 45.552 27.2265 45.4571 27.2265 45.3404V34.7784C27.2265 34.6617 27.3214 34.5668 27.4381 34.5668H30.88C30.9965 34.5668 31.0914 34.6617 31.0914 34.7784V45.3404Z" fill="#10B981"/>
<path id="Vector_4" d="M41.8131 28.0519H38.3712C36.9044 28.0519 35.7109 29.2452 35.7109 30.7121V45.3399C35.7109 46.8066 36.9044 48.0001 38.3712 48.0001H41.8131C43.2799 48.0001 44.4732 46.8068 44.4732 45.3399V30.7121C44.4732 29.2452 43.2799 28.0519 41.8131 28.0519ZM42.0245 45.3397C42.0245 45.4564 41.9297 45.5513 41.8131 45.5513H38.3712C38.2545 45.5513 38.1596 45.4564 38.1596 45.3397V30.7119C38.1596 30.5952 38.2545 30.5003 38.3712 30.5003H41.8131C41.9297 30.5003 42.0245 30.5952 42.0245 30.7119V45.3397Z" fill="#10B981"/>
<path id="Vector_5" d="M23.5417 0C15.0386 0 8.12061 6.9178 8.12061 15.4209C8.12061 23.924 15.0384 30.8418 23.5415 30.8418C32.0446 30.8418 38.9622 23.924 38.9622 15.4209C38.9622 6.9178 32.0448 0 23.5417 0ZM23.5417 28.3932C16.3886 28.3932 10.5694 22.5738 10.5694 15.4209C10.5694 8.26802 16.3886 2.44864 23.5417 2.44864C30.6946 2.44864 36.5138 8.26802 36.5138 15.4209C36.5138 22.5738 30.6944 28.3932 23.5417 28.3932Z" fill="#10B981"/>
<path id="Vector_6" d="M26.2622 11.4758C26.2622 12.1518 26.8105 12.7001 27.4865 12.7001C28.1625 12.7001 28.7108 12.1518 28.7108 11.4758C28.7108 9.04735 27.027 7.00559 24.7659 6.45424V5.13728C24.7659 4.46125 24.2176 3.91296 23.5415 3.91296C22.8655 3.91296 22.3172 4.46125 22.3172 5.13728V6.45424C20.0559 7.00559 18.3721 9.04714 18.3721 11.4758C18.3721 13.9044 20.0559 15.946 22.3172 16.4973V21.7921C21.431 21.343 20.8207 20.4253 20.8207 19.3657C20.8207 18.6897 20.2724 18.1414 19.5964 18.1414C18.9204 18.1414 18.3721 18.6897 18.3721 19.3657C18.3721 21.7943 20.0559 23.8359 22.3172 24.3872V25.7042C22.3172 26.3802 22.8655 26.9285 23.5415 26.9285C24.2176 26.9285 24.7659 26.3802 24.7659 25.7042V24.3872C27.027 23.8359 28.7108 21.7943 28.7108 19.3657C28.7108 16.9371 27.027 14.8955 24.7659 14.3442V9.04959C25.6519 9.49871 26.2622 10.4163 26.2622 11.4758ZM20.8207 11.4758C20.8207 10.4161 21.431 9.49851 22.3172 9.04939V13.9022C21.4308 13.4533 20.8207 12.5354 20.8207 11.4758ZM26.2622 19.3659C26.2622 20.4255 25.6521 21.3432 24.7659 21.7921V16.9397C25.6519 17.3886 26.2622 18.3065 26.2622 19.3659Z" fill="#10B981"/>
</g>
</g>
</g>
<defs>
<clipPath id="clip0_1_2077">
<rect width="48" height="48" fill="white"/>
</clipPath>
</defs>
</svg>
