<svg width="48" height="48" viewBox="0 0 48 48" fill="none" xmlns="http://www.w3.org/2000/svg">
<g id="Frame">
<g id="SVGRepo_iconCarrier">
<path id="Vector" fill-rule="evenodd" clip-rule="evenodd" d="M22.5029 12H21.0059C20.1779 12 19.5059 12.672 19.5059 13.5C19.5059 14.328 20.1779 15 21.0059 15H22.5089L22.5119 16.503C22.5134 17.331 23.1869 18.0015 24.0149 18C24.8429 17.9985 25.5134 17.325 25.5119 16.497L25.5089 15H27.0059C27.8339 15 28.5059 14.328 28.5059 13.5C28.5059 12.672 27.8339 12 27.0059 12H25.5029L25.4999 10.497C25.4984 9.669 24.8249 8.9985 23.9969 9C23.1689 9.0015 22.4984 9.675 22.4999 10.503L22.5029 12Z" fill="#10B981"/>
<path id="Vector_2" fill-rule="evenodd" clip-rule="evenodd" d="M39 13.5V7.5C39 6.306 38.526 5.1615 37.6815 4.3185C36.8385 3.474 35.694 3 34.5 3C29.3055 3 18.6945 3 13.5 3C12.306 3 11.1615 3.474 10.3185 4.3185C9.474 5.1615 9 6.306 9 7.5V40.5C9 41.694 9.474 42.8385 10.3185 43.6815C11.1615 44.526 12.306 45 13.5 45C17.4 45 28.974 45 34.4985 45C35.3265 45 35.9985 44.328 35.9985 43.5C35.9985 42.672 35.3265 42 34.4985 42C28.974 42 17.4 42 13.5 42C13.1025 42 12.72 41.8425 12.4395 41.5605C12.1575 41.28 12 40.8975 12 40.5V7.5C12 7.1025 12.1575 6.72 12.4395 6.4395C12.72 6.1575 13.1025 6 13.5 6H34.5C34.8975 6 35.28 6.1575 35.5605 6.4395C35.8425 6.72 36 7.1025 36 7.5V13.5C36 14.328 36.672 15 37.5 15C38.328 15 39 14.328 39 13.5Z" fill="#10B981"/>
<path id="Vector_3" fill-rule="evenodd" clip-rule="evenodd" d="M35.9733 21.3086C34.2348 21.9296 32.9883 23.5931 32.9883 25.5461C32.9883 28.0346 34.9878 30.0266 37.4763 30.0266C38.3058 30.0266 38.9883 30.6986 38.9883 31.5281C38.9883 32.3561 38.3163 33.0281 37.4883 33.0281C36.6603 33.0281 35.9883 32.3561 35.9883 31.5281C35.9883 30.7001 35.3163 30.0281 34.4883 30.0281C33.6603 30.0281 32.9883 30.7001 32.9883 31.5281C32.9883 33.4811 34.2363 35.1461 35.9778 35.7671L35.9703 37.5116C35.9673 38.3396 36.6363 39.0146 37.4643 39.0176C38.2923 39.0221 38.9673 38.3516 38.9703 37.5236L38.9778 35.7746C40.7298 35.1596 41.9883 33.4901 41.9883 31.5281C41.9883 29.0456 39.9573 27.0266 37.4763 27.0266C36.6528 27.0266 35.9883 26.3696 35.9883 25.5461C35.9883 24.7181 36.6603 24.0461 37.4883 24.0461C38.3133 24.0461 38.9838 24.7136 38.9883 25.5371V25.5566C38.9943 26.3786 39.6633 27.0461 40.4883 27.0461C41.3163 27.0461 41.9883 26.3741 41.9883 25.5461C41.9883 23.5826 40.7283 21.9116 38.9733 21.2981L38.9883 19.5296C38.9943 18.7016 38.3283 18.0251 37.5003 18.0176C36.6723 18.0116 35.9943 18.6791 35.9883 19.5056L35.9733 21.3086Z" fill="#10B981"/>
<path id="Vector_4" fill-rule="evenodd" clip-rule="evenodd" d="M16.5 25.5281H28.5C29.328 25.5281 30 24.8561 30 24.0281C30 23.2001 29.328 22.5281 28.5 22.5281H16.5C15.672 22.5281 15 23.2001 15 24.0281C15 24.8561 15.672 25.5281 16.5 25.5281Z" fill="#10B981"/>
<path id="Vector_5" fill-rule="evenodd" clip-rule="evenodd" d="M16.5 31.5469H28.5C29.328 31.5469 30 30.8749 30 30.0469C30 29.2189 29.328 28.5469 28.5 28.5469H16.5C15.672 28.5469 15 29.2189 15 30.0469C15 30.8749 15.672 31.5469 16.5 31.5469Z" fill="#10B981"/>
<path id="Vector_6" fill-rule="evenodd" clip-rule="evenodd" d="M16.5 37.5176H28.5C29.328 37.5176 30 36.8456 30 36.0176C30 35.1896 29.328 34.5176 28.5 34.5176H16.5C15.672 34.5176 15 35.1896 15 36.0176C15 36.8456 15.672 37.5176 16.5 37.5176Z" fill="#10B981"/>
</g>
</g>
</svg>
