<svg width="48" height="48" viewBox="0 0 48 48" fill="none" xmlns="http://www.w3.org/2000/svg">
<g id="Frame">
<g id="SVGRepo_iconCarrier">
<path id="Vector" d="M25.9634 41.0269C25.9705 41.0259 25.977 41.0245 25.984 41.0236L25.9751 41.0147L25.9634 41.0269ZM6.85764 15.4284H17.1434V12H3.4292V39.4284H25.715V36H6.85764V15.4284ZM30.8576 12V15.4284H41.1434V25.7142H44.5723V12H30.8576ZM27.4292 30.3009V39.7294L36.0008 44.4436L44.5723 39.7294V30.3009L36.0003 25.5863L27.4292 30.3009ZM41.1434 37.702L36.0008 40.5305L30.8576 37.702V32.3278L36.0003 29.4994L41.1429 32.3278V37.702H41.1434Z" fill="#10B981"/>
<path id="Vector_2" d="M34.2861 35.0151C34.2861 35.4698 34.4667 35.9058 34.7882 36.2273C35.1097 36.5487 35.5457 36.7293 36.0004 36.7293C36.455 36.7293 36.891 36.5487 37.2125 36.2273C37.534 35.9058 37.7146 35.4698 37.7146 35.0151C37.7146 34.5605 37.534 34.1245 37.2125 33.803C36.891 33.4815 36.455 33.3009 36.0004 33.3009C35.5457 33.3009 35.1097 33.4815 34.7882 33.803C34.4667 34.1245 34.2861 34.5605 34.2861 35.0151Z" fill="#10B981"/>
<path id="Vector_3" d="M22.2866 9.28125V20.5716H10.2866V24H37.7151V20.5716H25.7151V9.28125L27.9318 11.498L30.3557 9.07359L24.0008 2.71875L17.646 9.07359L20.0699 11.498L22.2866 9.28125Z" fill="#10B981"/>
</g>
</g>
</svg>
