<svg width="199" height="199" viewBox="0 0 199 199" fill="none" xmlns="http://www.w3.org/2000/svg">
<g id="Group">
<g id="Group_2">
<path id="Vector" d="M99.3459 197.139C153.317 197.139 197.07 153.387 197.07 99.4151C197.07 45.4436 153.317 1.69104 99.3459 1.69104C45.3744 1.69104 1.62183 45.4436 1.62183 99.4151C1.62183 153.387 45.3744 197.139 99.3459 197.139Z" stroke="#10B981" stroke-opacity="0.2" stroke-width="2" stroke-linecap="round" stroke-linejoin="round"/>
</g>
<g id="Group_3">
<path id="Vector_2" d="M118.809 179.357C162.974 168.632 190.083 124.134 179.357 79.9685C168.632 35.8031 124.134 8.69476 79.9685 19.4202C35.8031 30.1457 8.69472 74.6435 19.4202 118.809C30.1457 162.974 74.6435 190.083 118.809 179.357Z" stroke="#10B981" stroke-opacity="0.2" stroke-width="2" stroke-linecap="round" stroke-linejoin="round"/>
</g>
<g id="Group_4">
<path id="Vector_3" d="M118.189 163.536C153.624 153.154 173.932 116.012 163.55 80.5773C153.167 45.1428 116.025 24.8343 80.5904 35.2169C45.156 45.5995 24.8474 82.7415 35.23 118.176C45.6126 153.61 82.7547 173.919 118.189 163.536Z" stroke="#10B981" stroke-opacity="0.2" stroke-width="2" stroke-linecap="round" stroke-linejoin="round"/>
</g>
<g id="Group_5">
<path id="Vector_4" d="M111.325 149.395C138.936 142.762 155.942 115.001 149.308 87.3893C142.674 59.778 114.913 42.7724 87.3018 49.4061C59.6905 56.0399 42.6848 83.801 49.3186 111.412C55.9523 139.024 83.7134 156.029 111.325 149.395Z" stroke="#10B981" stroke-opacity="0.2" stroke-width="2" stroke-linecap="round" stroke-linejoin="round"/>
</g>
<g id="Group_6">
<path id="Vector_5" d="M105.18 134.97C124.793 131.76 138.09 113.259 134.881 93.6459C131.671 74.0329 113.17 60.7353 93.5569 63.9448C73.9438 67.1544 60.6462 85.6557 63.8557 105.269C67.0653 124.882 85.5666 138.179 105.18 134.97Z" stroke="#10B981" stroke-opacity="0.2" stroke-width="2" stroke-linecap="round" stroke-linejoin="round"/>
</g>
</g>
</svg>
