<svg width="56" height="55" viewBox="0 0 56 55" fill="none" xmlns="http://www.w3.org/2000/svg">
<rect x="28" width="38.2927" height="38.2927" transform="rotate(45.0809 28 0)" fill="#FDFDFD" fill-opacity="0.3"/>
<g clip-path="url(#clip0_1_575)">
<path d="M17.1074 24.9848C17.043 25.5004 17 26.0246 17 26.5574C17 31.241 19.5652 35.3188 23.3637 37.4801L24.0727 35.9848V25.7711L23.2863 24.9848H17.1074ZM39 25.7711C39 24.9848 38.2137 24.1984 37.4273 24.1984H31.141C31.532 22.6258 31.9273 21.0574 31.9273 20.2711C31.9273 18.6984 31.141 17.1301 30.75 16.7348C30.7414 16.7262 30.359 16.3438 29.5727 16.3438C28.3953 16.3438 28.3953 17.5211 28.3953 17.5211C28.3953 17.5426 28.0043 19.4848 28.0043 20.2711C28.0043 21.0574 26.4316 24.1984 25.6453 24.9848L24.859 25.3758V36.3758L25.6453 36.7668H34.2863C35.859 36.7668 36.6453 35.9805 36.6453 35.1941C36.6453 34.4078 35.859 33.6215 35.0727 33.6215C36.6453 33.6215 37.4316 32.8352 37.4316 32.0488C37.4316 31.2625 36.6453 30.4762 35.859 30.4762C37.4316 30.4762 38.218 29.6898 38.218 28.9035C38.218 28.1172 37.4316 27.3309 36.6453 27.3309C38.2137 27.3438 39 26.5574 39 25.7711Z" fill="white"/>
</g>
<defs>
<clipPath id="clip0_1_575">
<rect width="22" height="22" fill="white" transform="translate(17 16)"/>
</clipPath>
</defs>
</svg>
